<?xml version="1.0" standalone="no"?>
<!DOCTYPE svg PUBLIC "-//W3C//DTD SVG 1.1//EN" "http://www.w3.org/Graphics/SVG/1.1/DTD/svg11.dtd" >
<svg>
<metadata>
Created by FontForge 20120731 at Wed Nov 12 13:15:26 2014
 By Orthosie Webhosting
Copyright (c) 2008 by Vasiliy Shishkin. All rights reserved.
</metadata>
<defs>
<font id="Fregat-Bold" horiz-adv-x="530" >
  <font-face 
    font-family="Fregat"
    font-weight="700"
    font-stretch="normal"
    units-per-em="1000"
    panose-1="2 0 8 6 4 0 0 2 0 4"
    ascent="800"
    descent="-200"
    x-height="518"
    cap-height="704"
    bbox="-35 -209 931 897.082"
    underline-thickness="50"
    underline-position="-50"
    unicode-range="U+0020-FB00"
  />
<missing-glyph horiz-adv-x="330" 
 />
    <glyph glyph-name="ff" unicode="ff" horiz-adv-x="617" 
d="M96 39v371h-33c-38 0 -48 27 -48 54s10 54 48 54h33v15c0 111 40 176 183 176c43 0 73 -13 73 -63c0 -38 -12 -53 -44 -52c-6 1 -7 1 -14 1c-32 -1 -64 -9 -64 -60v-17h135v15c0 111 41 176 183 176c48 0 79 -5 79 -63c0 -38 -11 -53 -43 -52c-6 1 -14 1 -20 1
c-33 -1 -65 -9 -65 -60v-17h44c38 0 48 -27 48 -54s-10 -54 -48 -54h-44v-371c0 -38 -33 -48 -67 -48c-33 0 -67 10 -67 48v371h-135v-371c0 -38 -34 -48 -67 -48c-34 0 -67 10 -67 48z" />
    <glyph glyph-name="tt" unicode="tt" horiz-adv-x="659" 
d="M374 607c0 38 34 48 67 48c34 0 68 -10 68 -48v-89h49c38 0 48 -27 48 -54s-10 -54 -48 -54h-49v-232c0 -46 16 -71 77 -63c39 5 54 -9 57 -43c4 -58 -41 -81 -96 -81c-131 0 -173 72 -173 179v240h-145v-232c0 -46 25 -71 81 -64c39 4 52 -15 53 -49
c2 -58 -38 -74 -95 -74c-132 0 -173 72 -173 179v240h-32c-38 0 -48 27 -48 54s10 54 48 54h32v89c0 38 33 48 67 48c33 0 67 -10 67 -48v-89h145v89z" />
    <glyph glyph-name="h_h" unicode="&#x2d;&#x3e;" horiz-adv-x="817" 
d="M93 335h503c-14 7 -29 20 -38 28l-71 57c-21 20 -32 43 -8 63c19 17 51 17 67 0l212 -173c12 -10 12 -28 0 -37l-212 -174c-16 -19 -48 -19 -67 0c-24 19 -13 45 8 61l71 59c9 9 24 20 38 30h-503c-27 0 -43 15 -43 43c0 26 16 43 43 43z" />
    <glyph glyph-name="g_g" unicode="&#x3c;&#x2d;" horiz-adv-x="819" 
d="M726 335c26 0 43 -17 43 -43c0 -28 -17 -43 -43 -43h-507c16 -10 29 -21 42 -30l68 -59c23 -16 34 -42 12 -61c-20 -19 -49 -19 -71 0l-211 174c-11 9 -11 27 1 37l210 173c22 17 51 17 71 0c22 -20 11 -43 -12 -63l-68 -57c-13 -8 -26 -21 -42 -28h507z" />
    <glyph glyph-name=".notdef" horiz-adv-x="330" 
 />
    <glyph glyph-name="afii10066" unicode="&#x431;" horiz-adv-x="561" 
d="M193 488c23 23 86 34 114 34c162 0 219 -109 219 -263c0 -155 -63 -269 -233 -269c-172 0 -242 115 -247 276c-6 173 42 342 210 424c46 22 95 42 141 62c31 14 63 9 78 -25c16 -35 11 -67 -23 -87c-38 -23 -89 -34 -135 -51c-53 -20 -102 -47 -124 -101zM391 259
c0 70 -15 155 -106 155s-104 -85 -104 -155c0 -68 21 -165 108 -165c90 1 102 95 102 165z" />
    <glyph glyph-name="afii10067" unicode="&#x432;" horiz-adv-x="532" 
d="M65 98v323c0 54 20 97 89 97h157c98 0 173 -38 173 -141c0 -30 -19 -80 -55 -95c64 -27 68 -82 68 -118c0 -111 -77 -164 -191 -164h-152c-69 0 -89 44 -89 98zM350 370c0 40 -32 45 -60 45h-73c-13 0 -18 -8 -18 -20v-69h103c24 0 48 12 48 44zM199 223v-100
c0 -9 3 -19 12 -19h93c28 0 59 20 59 60c0 39 -31 59 -59 59h-105z" />
    <glyph glyph-name="afii10068" unicode="&#x433;" horiz-adv-x="403" 
d="M65 421c0 54 20 97 89 97h187c38 0 47 -27 47 -54s-10 -54 -47 -54h-124c-14 0 -18 -8 -18 -20v-352c0 -38 -33 -48 -67 -48c-33 0 -67 11 -67 48v383z" />
    <glyph glyph-name="afii10069" unicode="&#x434;" horiz-adv-x="547" 
d="M5 30c0 29 9 53 32 70c18 12 35 38 42 75c15 81 14 197 18 246c3 54 23 97 92 97h194c71 0 91 -45 91 -98v-316c43 -6 58 -31 58 -74v-101c0 -39 -24 -49 -57 -49c-34 0 -59 10 -59 49v51c0 11 -4 20 -17 20h-254c-14 0 -18 -9 -18 -20v-51c0 -39 -25 -49 -59 -49
c-33 0 -63 10 -63 49v101zM343 108v281c0 12 -3 21 -18 21h-86c-14 0 -19 -9 -19 -21c-5 -56 -10 -240 -33 -281h156z" />
    <glyph glyph-name="afii10070" unicode="&#x435;" horiz-adv-x="518" 
d="M273 428c-58 0 -92 -41 -99 -104h164c10 0 19 6 18 22c-4 53 -37 82 -83 82zM468 118c-26 -85 -101 -132 -197 -132c-166 1 -235 130 -236 276c0 141 63 269 232 269c137 0 216 -87 215 -214c-1 -67 -30 -86 -91 -86h-221c2 -66 22 -136 104 -135c42 0 62 19 80 53
c10 19 35 27 73 23c44 -5 48 -34 41 -54z" />
    <glyph glyph-name="afii10071" unicode="&#x451;" horiz-adv-x="518" 
d="M182 704c47 0 62 -25 62 -63s-13 -64 -62 -64s-63 26 -63 64s15 63 63 63zM350 704c48 0 62 -25 62 -63s-13 -64 -62 -64s-62 26 -62 64s15 63 62 63zM273 428c-58 0 -92 -41 -99 -104h164c10 0 19 6 18 22c-4 53 -37 82 -83 82zM468 118c-26 -85 -101 -132 -197 -132
c-166 1 -235 130 -236 276c0 141 63 269 232 269c137 0 216 -87 215 -214c-1 -67 -30 -86 -91 -86h-221c2 -66 22 -136 104 -135c42 0 62 19 80 53c10 19 35 27 73 23c44 -5 48 -34 41 -54z" />
    <glyph glyph-name="afii10072" unicode="&#x436;" horiz-adv-x="709" 
d="M418 480v-144c55 12 73 56 94 98c11 22 22 47 38 66c20 22 42 27 77 26c40 -1 67 -17 42 -56c-18 -29 -33 -60 -46 -85c-21 -39 -44 -79 -78 -94c100 -29 100 -163 138 -246c14 -32 3 -51 -43 -55c-41 -4 -77 10 -90 55c-33 109 -34 179 -132 177v-184
c0 -38 -32 -48 -64 -48c-31 0 -63 10 -63 48v184c-99 2 -99 -68 -132 -177c-13 -45 -49 -59 -90 -55c-46 4 -57 23 -43 55c38 83 38 215 138 246c-34 15 -58 55 -78 94c-13 25 -28 56 -46 85c-25 39 2 55 42 56c35 1 57 -4 76 -26c17 -19 28 -44 39 -66
c21 -42 39 -86 94 -98v144c0 38 32 48 63 48c32 0 64 -10 64 -48z" />
    <glyph glyph-name="afii10073" unicode="&#x437;" horiz-adv-x="452" 
d="M214 322c42 0 66 21 66 57c0 37 -31 48 -64 48c-39 0 -60 -13 -75 -50c-8 -19 -39 -26 -63 -23c-30 4 -53 18 -45 49c24 94 105 129 190 129c91 0 182 -46 182 -148c0 -43 -19 -81 -53 -108c44 -26 65 -73 65 -121c0 -112 -99 -169 -198 -169c-82 0 -168 35 -191 124
c-9 35 1 65 50 68c25 2 51 -1 66 -39c13 -32 38 -49 70 -49c43 0 78 22 78 68c0 47 -43 62 -82 62s-50 17 -50 49c0 50 26 53 54 53z" />
    <glyph glyph-name="afii10074" unicode="&#x438;" horiz-adv-x="569" 
d="M232 274l151 233c12 18 37 21 57 21c33 0 64 -10 64 -48v-442c0 -38 -34 -48 -67 -48c-34 0 -67 10 -67 48v263c-10 -20 -21 -39 -32 -57l-152 -232c-12 -18 -37 -22 -57 -22c-33 0 -64 10 -64 48v442c0 38 34 48 67 48c34 0 67 -10 67 -48v-262c10 20 21 39 33 56z" />
    <glyph glyph-name="afii10075" unicode="&#x439;" horiz-adv-x="569" 
d="M286 563c-68 0 -129 39 -149 79c-7 15 -2 34 14 47c15 12 42 17 55 3c24 -27 50 -37 80 -37s57 10 81 37c13 14 40 9 55 -3c15 -13 21 -32 13 -47c-19 -40 -80 -79 -149 -79zM440 528c30 0 64 -9 64 -48v-442c0 -35 -34 -48 -67 -48c-34 0 -67 10 -67 48v263
c-10 -20 -21 -39 -33 -57l-151 -232c-12 -18 -37 -22 -57 -22c-33 0 -64 10 -64 48v442c0 38 34 48 67 48c34 0 67 -10 67 -48v-262c10 20 21 39 32 56l152 233c12 18 37 21 57 21z" />
    <glyph glyph-name="afii10076" unicode="&#x43a;" horiz-adv-x="510" 
d="M199 480v-145c75 14 92 81 134 145c24 35 51 51 97 48c40 -2 75 -22 47 -61c-43 -60 -80 -156 -140 -180c107 -29 107 -160 146 -243c15 -31 4 -51 -43 -55c-43 -4 -79 10 -93 55c-34 110 -45 180 -148 177v-183c0 -38 -34 -48 -67 -48c-34 0 -67 10 -67 48v442
c0 38 33 48 67 48c33 0 67 -10 67 -48z" />
    <glyph glyph-name="afii10077" unicode="&#x43b;" horiz-adv-x="542" 
d="M477 421v-383c0 -38 -33 -48 -67 -48s-67 10 -67 48v352c0 12 -5 20 -18 20h-75c-15 0 -19 -8 -19 -20c-6 -60 -7 -150 -16 -225c-14 -101 -44 -176 -147 -176c-38 0 -54 15 -57 54c-1 37 16 56 36 59c15 2 37 16 41 47c13 80 15 216 19 272c4 53 25 97 94 97h186
c70 0 90 -43 90 -97z" />
    <glyph glyph-name="afii10078" unicode="&#x43c;" horiz-adv-x="630" 
d="M500 528c33 0 65 -14 65 -52v-438c0 -37 -33 -48 -66 -48c-34 0 -66 10 -66 48v240c-7 -19 -12 -33 -22 -51l-47 -89c-11 -21 -26 -29 -49 -29s-38 8 -49 29l-47 88c-10 18 -15 33 -22 52v-240c0 -38 -33 -48 -66 -48c-34 0 -66 11 -66 48v438c0 38 31 52 65 52
c31 0 52 -8 66 -33l119 -226l119 226c13 25 34 33 66 33z" />
    <glyph glyph-name="afii10079" unicode="&#x43d;" horiz-adv-x="560" 
d="M199 219v-181c0 -38 -34 -48 -67 -48c-34 0 -67 10 -67 48v442c0 38 33 48 67 48c33 0 67 -10 67 -48v-153h162v153c0 38 34 48 67 48c34 0 67 -10 67 -48v-442c0 -38 -33 -48 -67 -48c-33 0 -67 10 -67 48v181h-162z" />
    <glyph glyph-name="afii10080" unicode="&#x43e;" horiz-adv-x="528" 
d="M35 259c0 158 60 269 229 269s229 -111 229 -269s-60 -269 -229 -269s-229 111 -229 269zM364 259c0 74 -10 166 -100 166c-89 0 -99 -92 -99 -166s12 -166 99 -166c88 0 100 92 100 166z" />
    <glyph glyph-name="afii10081" unicode="&#x43f;" horiz-adv-x="557" 
d="M65 421c0 55 28 97 90 97h248c70 0 89 -43 89 -97v-383c0 -37 -33 -48 -67 -48c-33 0 -67 10 -67 48v352c0 12 -4 20 -18 20h-123c-13 0 -17 -8 -17 -20v-352c0 -38 -34 -48 -67 -48c-28 0 -68 10 -68 48v383z" />
    <glyph glyph-name="afii10082" unicode="&#x440;" horiz-adv-x="566" 
d="M191 486c26 27 74 45 120 45c161 0 220 -111 220 -271s-66 -272 -220 -272c-42 0 -84 12 -112 39v-165c0 -38 -33 -48 -67 -48c-33 0 -67 10 -67 48v617c0 38 27 51 61 51c29 0 59 -8 65 -44zM199 242c0 -64 27 -150 99 -150c82 0 92 93 92 168s-10 167 -92 167
c-67 0 -99 -77 -99 -140v-45z" />
    <glyph glyph-name="afii10083" unicode="&#x441;" horiz-adv-x="509" 
d="M35 259c0 158 60 269 229 269c114 0 193 -59 204 -149c5 -40 -12 -56 -58 -56c-33 1 -52 9 -61 36c-13 44 -35 66 -85 66c-89 0 -100 -92 -100 -166s13 -166 100 -166c45 0 71 26 88 65c11 27 32 36 64 37c39 1 64 -15 56 -51c-21 -92 -92 -154 -208 -154
c-169 0 -229 111 -229 269z" />
    <glyph glyph-name="afii10084" unicode="&#x442;" horiz-adv-x="416" 
d="M141 410h-78c-38 0 -48 27 -48 54s10 54 48 54h290c38 0 48 -27 48 -54s-10 -54 -48 -54h-78v-372c0 -38 -34 -48 -67 -48c-34 0 -67 10 -67 48v372z" />
    <glyph glyph-name="afii10085" unicode="&#x443;" horiz-adv-x="480" 
d="M458 454l-183 -520c-32 -92 -99 -120 -192 -105c-31 5 -41 29 -41 62c0 38 14 60 55 56c31 -4 60 14 70 43l15 44l-160 417c-17 46 0 68 43 72c35 4 70 3 81 -28l99 -275l94 275c10 31 45 32 80 28c43 -4 55 -23 39 -69z" />
    <glyph glyph-name="afii10086" unicode="&#x444;" horiz-adv-x="682" 
d="M406 521c155 -10 251 -98 251 -263c0 -161 -88 -247 -251 -260v-126c0 -37 -33 -47 -65 -47c-33 0 -65 10 -65 47v126c-176 10 -251 106 -251 260c0 153 75 252 251 263v137c0 36 32 46 65 46c32 0 65 -10 65 -46v-137zM276 419c-71 -13 -111 -56 -111 -157
c0 -102 39 -147 111 -163v320zM406 99c71 16 111 61 111 163c0 101 -41 144 -111 157v-320z" />
    <glyph glyph-name="afii10087" unicode="&#x445;" horiz-adv-x="461" 
d="M42 458c-26 44 5 61 43 64c32 2 64 3 79 -27l67 -126l66 126c16 30 48 29 80 27c38 -3 69 -20 42 -64l-116 -188l131 -205c24 -37 12 -65 -36 -67c-37 -2 -70 -3 -90 32l-77 143l-78 -143c-19 -35 -53 -34 -90 -32c-48 2 -60 30 -36 67l132 205z" />
    <glyph glyph-name="afii10088" unicode="&#x446;" horiz-adv-x="571" 
d="M481 480v-372c58 -4 80 -34 80 -84v-95c0 -38 -24 -48 -57 -48c-34 0 -58 10 -58 48v51c0 12 -5 20 -18 20h-274c-69 0 -89 44 -89 98v382c0 38 33 48 67 48c33 0 67 -10 67 -48v-352c0 -11 4 -20 18 -20h130v372c0 38 33 48 67 48c33 0 67 -10 67 -48z" />
    <glyph glyph-name="afii10089" unicode="&#x447;" horiz-adv-x="525" 
d="M460 480v-442c0 -38 -34 -48 -68 -48c-33 0 -67 10 -67 48v145c-26 -10 -61 -18 -103 -19c-107 -3 -177 54 -177 160v156c0 38 34 48 67 48c34 0 67 -10 67 -48v-143c0 -50 23 -72 72 -72c29 0 53 10 74 24v191c0 38 34 48 67 48c34 0 68 -10 68 -48z" />
    <glyph glyph-name="afii10090" unicode="&#x448;" horiz-adv-x="799" 
d="M65 98v382c0 38 33 48 67 48c33 0 67 -10 67 -48v-352c0 -11 4 -20 18 -20h115v372c0 38 34 48 67 48c34 0 67 -10 67 -48v-372h116c13 0 18 9 18 20v352c0 38 33 48 67 48c33 0 67 -10 67 -48v-382c0 -54 -20 -98 -90 -98h-490c-70 0 -89 44 -89 98z" />
    <glyph glyph-name="afii10091" unicode="&#x449;" horiz-adv-x="824" 
d="M466 108h134v372c0 38 33 48 67 48c33 0 67 -10 67 -48v-372c58 -4 80 -34 80 -84v-95c0 -38 -24 -48 -57 -48c-34 0 -58 10 -58 48v51c0 12 -5 20 -18 20h-527c-69 0 -89 44 -89 98v382c0 38 33 48 67 48c33 0 67 -10 67 -48v-352c0 -11 4 -20 18 -20h115v372
c0 38 34 48 67 48c34 0 67 -10 67 -48v-372z" />
    <glyph glyph-name="afii10092" unicode="&#x44a;" horiz-adv-x="541" 
d="M114 98v292c0 12 -5 20 -18 20h-44c-37 0 -47 27 -47 54s10 54 47 54h101c69 0 95 -30 95 -84v-92h110c144 0 173 -106 173 -171c0 -66 -37 -171 -173 -171h-155c-70 0 -89 44 -89 98zM248 238v-115c0 -11 4 -20 16 -20h73c28 0 60 20 60 68c0 47 -32 67 -60 67h-89z" />
    <glyph glyph-name="afii10093" unicode="&#x44b;" horiz-adv-x="719" 
d="M65 98v382c0 38 33 48 67 48c33 0 67 -10 67 -48v-138h99c145 0 173 -106 173 -171c0 -66 -37 -171 -173 -171h-144c-70 0 -89 44 -89 98zM199 238v-115c0 -11 4 -20 16 -20h62c28 0 60 20 60 68c0 47 -32 67 -60 67h-78zM654 480v-442c0 -38 -34 -48 -67 -48
c-34 0 -67 10 -67 48v442c0 38 33 48 67 48c33 0 67 -10 67 -48z" />
    <glyph glyph-name="afii10094" unicode="&#x44c;" horiz-adv-x="495" 
d="M65 98v382c0 38 34 48 67 48c34 0 67 -10 67 -48v-138h113c144 0 173 -106 173 -171c0 -66 -37 -171 -173 -171h-158c-69 0 -89 44 -89 98zM199 238v-115c0 -11 4 -20 17 -20h75c28 0 60 20 60 68c0 47 -32 67 -60 67h-92z" />
    <glyph glyph-name="afii10095" unicode="&#x44d;" horiz-adv-x="509" 
d="M227 321h115c-4 56 -32 103 -97 103c-47 0 -69 -19 -86 -54c-15 -32 -39 -36 -68 -32c-54 6 -56 40 -42 76c24 66 85 113 196 113c169 0 229 -110 229 -269c0 -158 -60 -268 -229 -268c-112 0 -183 49 -207 124c-11 34 9 60 49 64c30 3 54 -2 68 -27
c18 -32 42 -58 90 -58c69 -1 95 59 99 120h-117c-38 0 -48 27 -48 54s10 54 48 54z" />
    <glyph glyph-name="afii10096" unicode="&#x44e;" horiz-adv-x="777" 
d="M288 327c19 122 88 201 225 201c169 0 229 -110 229 -269c0 -158 -60 -268 -229 -268c-146 0 -215 87 -227 228h-87v-181c0 -38 -33 -48 -67 -48c-33 0 -67 10 -67 48v442c0 38 34 48 67 48c34 0 67 -10 67 -48v-153h89zM613 259c0 74 -11 166 -100 166
s-100 -92 -100 -166s13 -165 100 -165c88 0 100 91 100 165z" />
    <glyph glyph-name="afii10097" unicode="&#x44f;" horiz-adv-x="528" 
d="M463 421v-383c0 -38 -34 -48 -67 -48c-34 0 -67 10 -67 48v155h-37c-72 0 -94 -103 -119 -154c-19 -38 -41 -49 -87 -46c-40 3 -79 29 -51 64c45 56 51 130 116 171c-65 16 -101 80 -101 129c0 65 37 161 173 161h151c69 0 89 -43 89 -97zM329 297v98c0 12 -4 20 -17 20
h-69c-28 0 -59 -11 -59 -58c0 -48 31 -60 59 -60h86z" />
    <glyph glyph-name="afii10101" unicode="&#x454;" horiz-adv-x="509" 
d="M282 321c38 0 48 -27 48 -54s-10 -54 -48 -54h-117c4 -61 30 -121 99 -120c48 0 72 26 91 58c14 25 37 30 67 27c40 -4 60 -30 49 -64c-24 -75 -95 -124 -207 -124c-169 0 -229 110 -229 268c0 159 60 270 229 270c111 0 172 -48 197 -114c13 -36 11 -70 -43 -76
c-28 -4 -53 0 -68 32c-16 35 -39 54 -86 54c-65 0 -93 -47 -97 -103h115z" />
    <glyph glyph-name="afii10104" unicode="&#x457;" horiz-adv-x="287" 
d="M211 480v-442c0 -38 -34 -48 -67 -48c-34 0 -67 10 -67 48v442c0 38 33 48 67 48c33 0 67 -10 67 -48zM224 704c44 0 58 -23 58 -59s-12 -61 -58 -61c-47 0 -59 25 -59 61s14 59 59 59zM64 704c45 0 59 -23 59 -59s-13 -61 -59 -61s-59 25 -59 61s14 59 59 59z" />
    <glyph glyph-name="afii10017" unicode="&#x410;" horiz-adv-x="604" 
d="M373 277l-48 146c-13 40 -17 56 -23 96c-6 -40 -10 -56 -23 -96l-48 -146h142zM192 160l-39 -120c-14 -42 -42 -47 -75 -47s-74 6 -60 47l207 620c12 36 44 50 77 50s65 -14 77 -50l207 -620c14 -41 -27 -47 -60 -47s-61 5 -75 47l-39 120h-220z" />
    <glyph glyph-name="afii10018" unicode="&#x411;" horiz-adv-x="563" 
d="M215 580c-12 0 -17 -4 -17 -17v-141h135c122 0 205 -82 205 -211c0 -127 -84 -211 -205 -211h-170c-50 0 -98 13 -98 88v524c0 75 48 88 98 88h288c33 0 42 -30 42 -60s-8 -60 -42 -60h-236zM319 302h-121v-165c0 -13 5 -17 17 -17h104c56 0 81 35 81 91
c0 55 -26 91 -81 91z" />
    <glyph glyph-name="afii10019" unicode="&#x412;" horiz-adv-x="600" 
d="M198 302v-165c0 -13 5 -17 17 -17h130c56 0 81 35 81 91c0 63 -33 91 -93 91h-135zM468 373c62 -30 97 -85 97 -162c0 -127 -85 -211 -206 -211h-196c-50 0 -98 13 -98 88v524c0 75 48 88 98 88h170c121 0 206 -63 206 -191c0 -61 -30 -110 -71 -136zM319 422
c55 0 81 31 81 79c0 51 -25 79 -81 79h-104c-12 0 -17 -4 -17 -17v-141h121z" />
    <glyph glyph-name="afii10020" unicode="&#x413;" horiz-adv-x="443" 
d="M214 580c-11 0 -17 -4 -17 -17v-525c0 -37 -33 -47 -66 -47s-66 10 -66 47v574c0 75 47 88 98 88h233c33 0 42 -30 42 -60s-8 -60 -42 -60h-182z" />
    <glyph glyph-name="afii10021" unicode="&#x414;" horiz-adv-x="644" 
d="M206 119h214v443c0 14 -5 17 -16 17h-135c-11 0 -16 -3 -18 -17c-2 -71 -7 -183 -13 -282c-5 -69 -15 -131 -32 -161zM488 0h-346c-11 0 -18 -4 -18 -18v-87c0 -37 -28 -46 -62 -46c-33 0 -62 10 -62 46v137c0 38 14 64 48 82c38 20 49 103 58 200c8 116 11 247 13 298
c4 76 51 88 100 88h234c51 0 98 -12 98 -88v-493c40 -1 78 -15 78 -87v-137c0 -36 -30 -46 -63 -46c-34 0 -62 9 -62 46v87c0 14 -5 18 -16 18z" />
    <glyph glyph-name="afii10022" unicode="&#x415;" horiz-adv-x="515" 
d="M215 580c-12 0 -17 -4 -17 -17v-141h203c33 0 42 -30 42 -60s-9 -60 -42 -60h-203v-165c0 -13 5 -17 17 -17h223c34 0 42 -30 42 -60s-9 -60 -42 -60h-275c-50 0 -98 13 -98 88v524c0 75 48 88 98 88h275c33 0 42 -30 42 -60s-8 -60 -42 -60h-223z" />
    <glyph glyph-name="afii10023" unicode="&#x401;" horiz-adv-x="515" 
d="M359 861c45 0 57 -21 57 -55c0 -33 -9 -57 -57 -57c-47 0 -57 24 -57 57c0 34 10 55 57 55zM194 861c46 0 57 -21 57 -55c0 -33 -9 -57 -57 -57c-47 0 -57 24 -57 57c0 34 11 55 57 55zM215 580c-12 0 -17 -4 -17 -17v-141h203c33 0 42 -30 42 -60s-9 -60 -42 -60h-203
v-165c0 -13 5 -17 17 -17h223c34 0 42 -30 42 -60s-9 -60 -42 -60h-275c-50 0 -98 13 -98 88v524c0 75 48 88 98 88h275c33 0 42 -30 42 -60s-8 -60 -42 -60h-223z" />
    <glyph glyph-name="afii10024" unicode="&#x416;" horiz-adv-x="781" 
d="M456 657v-220c55 9 72 42 97 91c21 42 41 99 56 125c24 37 36 51 88 51s79 -23 53 -63c-32 -50 -59 -122 -93 -178c-22 -35 -38 -60 -75 -77c49 -22 81 -64 101 -112c30 -74 36 -148 63 -224c15 -43 -8 -56 -54 -57c-52 -1 -64 12 -79 51c-16 40 -31 146 -55 205
c-18 45 -49 68 -102 71v-282c0 -37 -33 -47 -65 -47c-33 0 -65 10 -65 47v282c-53 -2 -84 -26 -102 -71c-24 -59 -40 -165 -56 -205c-15 -39 -27 -52 -79 -51c-45 1 -69 14 -54 57c28 76 35 150 65 224c20 48 51 90 100 112c-37 17 -54 42 -75 77c-35 56 -63 128 -95 178
c-26 40 2 63 54 63s65 -14 88 -51c15 -26 35 -83 56 -125c25 -49 42 -82 98 -91v220c0 37 32 47 65 47c32 0 65 -10 65 -47z" />
    <glyph glyph-name="afii10025" unicode="&#x417;" horiz-adv-x="553" 
d="M151 203c17 -67 56 -97 119 -97c62 0 111 39 111 95c0 89 -60 103 -139 103c-31 0 -42 28 -42 61c0 35 14 57 45 60c61 2 118 21 118 93c0 52 -38 79 -95 79c-69 0 -98 -27 -106 -81c-5 -29 -41 -40 -75 -35c-37 4 -59 28 -55 56c14 113 95 177 235 177
c114 0 232 -55 233 -192c0 -66 -33 -118 -93 -149c73 -29 112 -97 110 -173c-4 -137 -97 -212 -251 -212c-115 0 -232 67 -240 193c-2 30 20 49 51 54c37 7 67 -3 74 -32z" />
    <glyph glyph-name="afii10026" unicode="&#x418;" horiz-adv-x="628" 
d="M434 38v414c-14 -35 -25 -55 -38 -79l-200 -347c-15 -26 -33 -35 -63 -35c-31 0 -68 10 -68 47v619c0 37 33 47 64 47s66 -10 66 -47v-420c13 35 25 54 38 78l201 350c16 28 33 39 68 39c31 0 61 -10 61 -47v-619c0 -37 -31 -47 -63 -47c-31 0 -66 10 -66 47z" />
    <glyph glyph-name="afii10027" unicode="&#x419;" horiz-adv-x="628" 
d="M317 738c-77 0 -131 41 -146 75c-8 18 -12 42 10 56c18 11 37 12 51 -2c26 -27 49 -37 85 -37c37 0 60 10 86 37c13 14 34 15 51 3c23 -15 18 -39 10 -57c-16 -34 -69 -75 -147 -75zM434 38v414c-14 -35 -25 -55 -39 -79l-199 -347c-15 -26 -33 -35 -64 -35
s-67 10 -67 47v619c0 37 33 47 64 47s65 -10 65 -47v-420c14 35 25 54 39 78l201 350c16 28 33 39 67 39c31 0 62 -10 62 -47v-619c0 -37 -32 -47 -63 -47s-66 10 -66 47z" />
    <glyph glyph-name="afii10028" unicode="&#x41a;" horiz-adv-x="566" 
d="M198 657v-222c50 0 89 22 114 66s55 119 76 152c25 37 37 51 89 51s77 -19 51 -58c-24 -35 -50 -99 -89 -166c-21 -35 -45 -73 -83 -91c50 -15 83 -65 103 -110c33 -76 55 -177 79 -226c23 -46 -6 -60 -59 -60c-44 0 -59 13 -72 40c-32 67 -44 141 -68 209
c-24 67 -74 84 -141 79v-283c0 -37 -34 -47 -67 -47s-66 10 -66 47v619c0 37 33 47 66 47s67 -10 67 -47z" />
    <glyph glyph-name="afii10029" unicode="&#x41b;" horiz-adv-x="603" 
d="M265 580c-11 0 -16 -4 -18 -17c-7 -92 -12 -286 -33 -423c-16 -97 -53 -148 -139 -147c-42 0 -62 17 -64 55c-1 30 7 54 34 59c27 4 43 27 47 69c17 135 21 365 29 431c9 72 53 93 112 93h207c51 0 98 -12 98 -87v-576c0 -37 -32 -46 -66 -46c-33 0 -66 9 -66 46v526
c0 13 -6 17 -17 17h-124z" />
    <glyph glyph-name="afii10030" unicode="&#x41c;" horiz-adv-x="703" 
d="M576 705c32 0 62 -12 62 -48v-619c0 -37 -33 -47 -64 -47s-65 10 -65 47v405c-9 -29 -25 -60 -37 -86l-77 -152c-9 -17 -26 -23 -43 -23c-18 0 -35 6 -44 23l-76 152c-13 26 -28 57 -38 86v-405c0 -37 -34 -47 -65 -47s-64 10 -64 47v619c0 36 31 48 63 48
c26 0 43 -8 56 -27c17 -25 168 -319 168 -319s151 294 167 319c13 19 30 27 57 27z" />
    <glyph glyph-name="afii10031" unicode="&#x41d;" horiz-adv-x="620" 
d="M555 657v-619c0 -37 -34 -47 -67 -47s-66 10 -66 47v260h-225v-260c0 -37 -33 -47 -66 -47s-66 10 -66 47v619c0 37 33 47 66 47s66 -10 66 -47v-239h225v239c0 37 33 47 66 47s67 -10 67 -47z" />
    <glyph glyph-name="afii10032" unicode="&#x41e;" horiz-adv-x="638" 
d="M35 350c0 213 72 361 284 361s284 -148 284 -361c0 -212 -71 -361 -284 -361s-284 149 -284 361zM467 350c0 109 -18 244 -148 244c-131 0 -148 -135 -148 -244c0 -108 19 -243 148 -243s148 135 148 243z" />
    <glyph glyph-name="afii10033" unicode="&#x41f;" horiz-adv-x="613" 
d="M450 700c51 0 98 -13 98 -88v-574c0 -37 -33 -47 -66 -47s-67 10 -67 47v525c0 13 -5 17 -16 17h-185c-11 0 -17 -4 -17 -17v-525c0 -37 -33 -47 -66 -47s-66 10 -66 47v574c0 75 47 88 98 88h287z" />
    <glyph glyph-name="afii10034" unicode="&#x420;" horiz-adv-x="576" 
d="M198 264v-226c0 -37 -33 -47 -67 -47c-33 0 -66 10 -66 47v574c0 75 48 88 98 88h177c120 0 211 -89 211 -217s-89 -219 -211 -219h-142zM326 385c55 0 86 44 86 98c0 56 -30 97 -86 97h-111c-12 0 -17 -4 -17 -17v-178h128z" />
    <glyph glyph-name="afii10035" unicode="&#x421;" horiz-adv-x="596" 
d="M35 350c0 213 73 361 285 361c161 0 234 -97 247 -223c3 -31 -29 -48 -64 -48c-38 -1 -63 7 -71 43c-15 72 -41 111 -118 111c-126 0 -142 -135 -142 -244c0 -108 18 -244 142 -243c79 0 103 52 120 112c9 30 31 42 71 43c47 0 72 -17 64 -59
c-20 -108 -93 -214 -255 -214c-208 0 -279 149 -279 361z" />
    <glyph glyph-name="afii10036" unicode="&#x422;" horiz-adv-x="500" 
d="M57 700h386c33 0 42 -30 42 -60s-8 -60 -42 -60h-127v-542c0 -37 -33 -47 -66 -47c-29 0 -66 10 -66 47v542h-127c-34 0 -42 30 -42 60s9 60 42 60z" />
    <glyph glyph-name="afii10037" unicode="&#x423;" horiz-adv-x="518" 
d="M504 657l-212 -550c-21 -56 -59 -114 -124 -114c-39 0 -70 10 -71 63c-1 34 13 47 38 51c19 3 27 7 39 39l39 99l-197 404c-18 36 12 53 47 55c56 2 71 -11 87 -47l122 -256l99 256c14 36 28 47 81 47c29 -1 66 -9 52 -47z" />
    <glyph glyph-name="afii10038" unicode="&#x424;" horiz-adv-x="743" 
d="M437 680v-42c181 -15 276 -144 276 -289s-103 -271 -276 -285v-40c0 -37 -33 -46 -66 -46c-32 0 -65 9 -65 46v40c-173 14 -276 137 -276 281c0 145 95 278 276 293v42c0 36 33 45 65 45c33 0 66 -9 66 -45zM437 159c92 10 144 91 144 190c0 98 -55 178 -144 189v-379z
M306 538c-88 -11 -144 -94 -144 -193s54 -176 144 -186v379z" />
    <glyph glyph-name="afii10039" unicode="&#x425;" horiz-adv-x="542" 
d="M271 479l101 178c20 37 41 47 95 47c29 0 66 -11 46 -48l-170 -300l178 -314c21 -37 -18 -50 -47 -51c-47 -1 -79 8 -99 44l-104 194l-104 -194c-20 -36 -52 -45 -99 -44c-29 1 -68 14 -47 51l178 314l-169 300c-21 37 16 48 45 48c54 0 75 -10 95 -47z" />
    <glyph glyph-name="afii10040" unicode="&#x426;" horiz-adv-x="654" 
d="M559 657v-537c47 -1 80 -17 80 -88v-136c0 -36 -29 -46 -63 -46c-33 0 -61 10 -61 46v87c0 13 -5 17 -16 17h-336c-51 0 -98 13 -98 88v575c0 36 33 46 66 46s67 -10 67 -46v-526c0 -13 5 -17 16 -17h213v537c0 37 33 47 66 47s66 -10 66 -47z" />
    <glyph glyph-name="afii10041" unicode="&#x427;" horiz-adv-x="575" 
d="M510 657v-619c0 -37 -34 -47 -67 -47s-66 10 -66 47v208c-37 -12 -85 -21 -128 -21c-119 0 -204 64 -204 186v246c0 37 33 47 66 47s66 -10 66 -47v-231c0 -66 49 -80 90 -80s78 9 110 24v287c0 37 33 47 66 47s67 -10 67 -47z" />
    <glyph glyph-name="afii10042" unicode="&#x428;" horiz-adv-x="909" 
d="M214 120h174v537c0 37 33 47 66 47s66 -10 66 -47v-537h174c11 0 17 4 17 17v526c0 36 33 46 66 46s67 -10 67 -46v-575c0 -75 -48 -88 -98 -88h-583c-51 0 -98 13 -98 88v575c0 36 33 46 66 46s66 -10 66 -46v-526c0 -13 6 -17 17 -17z" />
    <glyph glyph-name="afii10043" unicode="&#x429;" horiz-adv-x="939" 
d="M844 657v-537c46 -1 80 -17 80 -88v-136c0 -36 -30 -46 -63 -46s-62 10 -62 46v87c0 13 -5 17 -17 17h-619c-51 0 -98 13 -98 88v575c0 36 33 46 66 46s67 -10 67 -46v-526c0 -13 5 -17 16 -17h174v537c0 37 33 47 66 47c34 0 67 -10 67 -47v-537h190v537
c0 37 33 47 67 47c33 0 66 -10 66 -47z" />
    <glyph glyph-name="afii10044" unicode="&#x42a;" horiz-adv-x="651" 
d="M268 436h141c122 0 212 -91 212 -219s-91 -217 -212 -217h-176c-51 0 -98 13 -98 88v471c0 11 -4 16 -17 16h-72c-37 0 -46 29 -46 62s10 63 46 63h133c76 0 89 -38 89 -89v-175zM395 316h-127v-179c0 -13 5 -17 16 -17h111c56 0 87 41 87 97c0 54 -31 99 -87 99z" />
    <glyph glyph-name="afii10045" unicode="&#x42b;" horiz-adv-x="807" 
d="M742 657v-619c0 -37 -33 -47 -66 -47s-66 10 -66 47v619c0 37 33 47 66 47s66 -10 66 -47zM198 436h126c122 0 212 -91 212 -219s-91 -217 -212 -217h-161c-50 0 -98 13 -98 88v575c0 36 34 46 67 46s66 -10 66 -46v-227zM310 316h-112v-179c0 -13 5 -17 17 -17h95
c56 0 87 41 87 97c0 54 -32 99 -87 99z" />
    <glyph glyph-name="afii10046" unicode="&#x42c;" horiz-adv-x="581" 
d="M197 436h142c122 0 212 -91 212 -219s-91 -217 -212 -217h-176c-51 0 -98 13 -98 88v575c0 36 33 46 66 46s66 -10 66 -46v-227zM325 316h-128v-179c0 -13 6 -17 17 -17h111c56 0 87 41 87 97c0 54 -32 99 -87 99z" />
    <glyph glyph-name="afii10047" unicode="&#x42d;" horiz-adv-x="610" 
d="M575 350c0 -212 -58 -361 -283 -361c-169 0 -252 90 -266 214c-5 42 18 59 67 59c46 -1 70 -14 78 -51c13 -62 46 -106 121 -104c111 2 136 100 140 197h-184c-34 0 -42 30 -42 60s9 60 42 60h183c-8 88 -38 170 -139 170c-80 0 -108 -39 -124 -112
c-7 -36 -33 -43 -73 -44c-40 -2 -73 16 -69 48c14 131 98 225 266 225c223 0 283 -148 283 -361z" />
    <glyph glyph-name="afii10048" unicode="&#x42e;" horiz-adv-x="887" 
d="M287 424c16 173 94 287 281 287c212 0 284 -148 284 -361c0 -212 -71 -361 -284 -361c-197 0 -273 128 -283 315h-87v-266c0 -37 -33 -47 -66 -47s-67 10 -67 47v619c0 37 34 47 67 47s66 -10 66 -47v-233h89zM716 350c0 109 -18 244 -148 244
c-131 0 -148 -135 -148 -244c0 -108 19 -243 148 -243s148 135 148 243z" />
    <glyph glyph-name="afii10049" unicode="&#x42f;" horiz-adv-x="600" 
d="M235 193c-28 -62 -49 -136 -80 -176c-11 -15 -31 -28 -73 -26c-38 1 -87 21 -58 66c30 47 48 96 70 147c14 33 38 75 77 104c-65 25 -121 88 -121 182c0 128 90 210 211 210h176c51 0 98 -13 98 -88v-574c0 -37 -33 -47 -66 -47s-66 10 -66 47v244h-60
c-58 0 -87 -40 -108 -89zM275 396h128v167c0 13 -6 17 -17 17h-111c-56 0 -87 -34 -87 -90c0 -54 32 -94 87 -94z" />
    <glyph glyph-name="afii10053" unicode="&#x404;" horiz-adv-x="610" 
d="M35 350c0 213 60 361 284 361c168 0 251 -94 265 -225c4 -32 -29 -50 -68 -48c-41 1 -66 8 -74 44c-16 73 -43 112 -123 112c-102 0 -131 -82 -139 -170h183c33 0 42 -30 42 -60s-9 -60 -42 -60h-185c5 -97 30 -195 141 -197c74 -2 108 42 120 104c8 37 32 50 78 51
c49 0 72 -17 67 -59c-14 -124 -97 -214 -265 -214c-225 0 -284 149 -284 361z" />
    <glyph glyph-name="afii10056" unicode="&#x407;" horiz-adv-x="288" 
d="M210 657v-619c0 -37 -33 -47 -66 -47s-66 10 -66 47v619c0 37 33 47 66 47s66 -10 66 -47zM62 861c45 0 57 -21 57 -55c0 -33 -10 -57 -57 -57s-57 24 -57 57c0 34 10 55 57 55zM226 861c46 0 57 -21 57 -55c0 -33 -9 -57 -57 -57c-47 0 -57 24 -57 57c0 34 11 55 57 55z
" />
    <glyph glyph-name="D" unicode="D" horiz-adv-x="613" 
d="M214 580c-11 0 -17 -4 -17 -17v-425c0 -13 6 -17 17 -17h87c112 0 141 131 141 229s-32 230 -141 230h-87zM301 0h-138c-51 0 -98 13 -98 89v523c0 75 47 88 98 88h138c197 0 277 -164 277 -350s-78 -350 -277 -350z" />
    <glyph glyph-name="F" unicode="F" horiz-adv-x="500" 
d="M215 580c-11 0 -17 -4 -17 -17v-145h187c33 0 42 -30 42 -60s-8 -60 -42 -60h-187v-260c0 -37 -33 -47 -66 -47s-67 10 -67 47v574c0 75 48 88 98 88h270c33 0 42 -30 42 -60s-9 -60 -42 -60h-218z" />
    <glyph glyph-name="G" unicode="G" horiz-adv-x="622" 
d="M172 351c0 -88 14 -244 142 -244c115 0 130 88 132 136c1 25 -5 33 -28 33h-77c-32 0 -40 29 -40 57s9 56 40 56h142c73 0 91 -32 93 -86c7 -172 -62 -313 -257 -313c-205 0 -284 161 -284 361c0 204 75 349 279 360c140 0 227 -65 250 -183c6 -32 -7 -60 -58 -60
c-56 0 -73 11 -80 37c-15 57 -45 89 -112 89c-125 0 -142 -138 -142 -243z" />
    <glyph glyph-name="I" unicode="I" horiz-adv-x="263" 
d="M198 658v-620c0 -37 -34 -47 -67 -47s-66 10 -66 47v620c0 36 33 46 66 46s67 -10 67 -46z" />
    <glyph glyph-name="J" unicode="J" horiz-adv-x="424" 
d="M359 658v-478c0 -181 -179 -220 -317 -175c-35 12 -40 46 -34 78c6 30 30 51 59 41c34 -12 61 -14 82 -13c64 1 77 45 77 92v455c0 36 33 46 66 46s67 -10 67 -46z" />
    <glyph glyph-name="L" unicode="L" horiz-adv-x="469" 
d="M214 121h198c33 0 42 -31 42 -61s-9 -60 -42 -60h-249c-51 0 -98 13 -98 89v574c0 36 33 46 66 46s67 -10 67 -46v-525c0 -14 5 -17 16 -17z" />
    <glyph glyph-name="N" unicode="N" horiz-adv-x="644" 
d="M205 671l197 -334c15 -24 33 -56 47 -90v411c0 36 33 46 65 46s65 -10 65 -46v-620c0 -37 -38 -47 -70 -47s-56 8 -71 33l-197 334c-14 24 -32 59 -46 94v-414c0 -37 -33 -47 -65 -47s-65 10 -65 47v620c0 36 37 46 69 46s57 -7 71 -33z" />
    <glyph glyph-name="Q" unicode="Q" horiz-adv-x="638" 
d="M332 170c31 5 55 -1 73 -24l4 -6c49 47 58 135 58 211c0 108 -17 243 -148 243c-130 0 -148 -135 -148 -243c0 -107 19 -240 142 -244l-9 14c-18 29 -2 44 28 49zM384 -5c-20 -4 -42 -5 -65 -5c-214 0 -284 148 -284 361c0 212 72 360 284 360s284 -148 284 -360
c0 -141 -30 -253 -112 -313l70 -89c29 -36 4 -56 -44 -63c-41 -6 -68 4 -89 37z" />
    <glyph glyph-name="R" unicode="R" horiz-adv-x="610" 
d="M366 194c-22 49 -51 88 -109 88h-60v-244c0 -37 -33 -47 -66 -47s-66 10 -66 47v574c0 75 47 88 98 88h176c121 0 212 -82 212 -210c0 -94 -57 -157 -122 -182c40 -29 63 -71 78 -104c22 -50 39 -100 69 -147c29 -44 -20 -66 -58 -66c-41 0 -62 11 -73 26
c-31 40 -52 114 -79 177zM325 396c55 0 87 40 87 94c0 56 -31 90 -87 90h-111c-11 0 -17 -4 -17 -17v-167h128z" />
    <glyph glyph-name="S" unicode="S" horiz-adv-x="548" 
d="M143 196c20 -58 64 -94 123 -94c61 0 115 29 115 99c0 69 -76 87 -125 100c-108 28 -229 73 -229 213c0 128 112 198 226 198c111 0 215 -41 249 -167c8 -30 -13 -55 -51 -59c-27 -3 -61 -1 -74 31c-23 53 -52 80 -120 80c-47 0 -97 -21 -97 -82c1 -63 75 -80 118 -91
c112 -29 234 -71 235 -217c0 -138 -98 -221 -245 -221c-112 0 -224 57 -251 184c-7 34 12 56 43 63c34 8 70 -1 83 -37z" />
    <glyph glyph-name="U" unicode="U" horiz-adv-x="635" 
d="M197 658v-418c0 -76 42 -131 120 -131s121 55 121 131v418c0 36 33 46 66 46s66 -10 66 -46v-406c0 -186 -105 -263 -253 -263c-147 0 -252 77 -252 263v406c0 36 33 46 66 46s66 -10 66 -46z" />
    <glyph glyph-name="V" unicode="V" horiz-adv-x="560" 
d="M542 658l-179 -617c-12 -40 -44 -49 -82 -49s-69 9 -81 49l-182 617c-11 35 20 46 48 46c31 0 73 0 86 -47l109 -385c7 -25 14 -55 20 -89c6 32 13 64 20 88l110 386c13 47 54 47 86 47c27 0 56 -11 45 -46z" />
    <glyph glyph-name="W" unicode="W" horiz-adv-x="837" 
d="M417 704c37 0 55 -17 61 -47l81 -376c7 -22 14 -61 19 -94c5 35 15 69 21 94l87 376c10 45 50 47 80 47c28 0 63 -13 54 -50l-151 -613c-10 -41 -49 -49 -86 -49s-69 8 -79 49l-71 294c-5 18 -13 53 -16 75c-3 -22 -11 -57 -15 -75l-71 -294c-10 -41 -43 -49 -80 -49
s-75 7 -85 47l-149 615c-9 37 27 50 54 50c30 0 72 -5 81 -47l84 -376c6 -25 15 -61 21 -94c5 31 12 72 18 94l81 376c7 30 25 47 61 47z" />
    <glyph glyph-name="Y" unicode="Y" horiz-adv-x="523" 
d="M196 333l-184 318c-21 36 10 53 38 53c57 0 77 -10 97 -46l116 -213l115 213c20 36 46 46 101 46c28 0 52 -14 31 -51l-181 -320v-295c0 -37 -33 -47 -66 -47c-34 0 -67 10 -67 47v295z" />
    <glyph glyph-name="Z" unicode="Z" horiz-adv-x="502" 
d="M424 0h-362c-36 0 -47 27 -47 59c0 20 4 41 15 59l238 395c19 32 30 49 43 67h-252c-34 0 -42 30 -42 60s9 60 42 60h361c36 0 47 -27 47 -59c0 -20 -5 -41 -15 -59l-235 -397c-18 -30 -28 -44 -45 -64h252c33 0 42 -31 42 -61s-9 -60 -42 -60z" />
    <glyph glyph-name="A" unicode="A" horiz-adv-x="604" 
d="M373 277l-48 146c-13 40 -17 56 -23 96c-6 -40 -10 -56 -23 -96l-48 -146h142zM192 160l-39 -120c-14 -42 -42 -47 -75 -47s-74 6 -60 47l207 620c12 36 44 50 77 50s65 -14 77 -50l207 -620c14 -41 -27 -47 -60 -47s-61 5 -75 47l-39 120h-220z" />
    <glyph glyph-name="B" unicode="B" horiz-adv-x="600" 
d="M198 302v-165c0 -13 5 -17 17 -17h130c56 0 81 35 81 91c0 63 -33 91 -93 91h-135zM468 373c62 -30 97 -85 97 -162c0 -127 -85 -211 -206 -211h-196c-50 0 -98 13 -98 88v524c0 75 48 88 98 88h170c121 0 206 -63 206 -191c0 -61 -30 -110 -71 -136zM319 422
c55 0 81 31 81 79c0 51 -25 79 -81 79h-104c-12 0 -17 -4 -17 -17v-141h121z" />
    <glyph glyph-name="C" unicode="C" horiz-adv-x="596" 
d="M35 350c0 213 73 361 285 361c161 0 234 -97 247 -223c3 -31 -29 -48 -64 -48c-38 -1 -63 7 -71 43c-15 72 -41 111 -118 111c-126 0 -142 -135 -142 -244c0 -108 18 -244 142 -243c79 0 103 52 120 112c9 30 31 42 71 43c47 0 72 -17 64 -59
c-20 -108 -93 -214 -255 -214c-208 0 -279 149 -279 361z" />
    <glyph glyph-name="E" unicode="E" horiz-adv-x="515" 
d="M215 580c-12 0 -17 -4 -17 -17v-141h203c33 0 42 -30 42 -60s-9 -60 -42 -60h-203v-165c0 -13 5 -17 17 -17h223c34 0 42 -30 42 -60s-9 -60 -42 -60h-275c-50 0 -98 13 -98 88v524c0 75 48 88 98 88h275c33 0 42 -30 42 -60s-8 -60 -42 -60h-223z" />
    <glyph glyph-name="H" unicode="H" horiz-adv-x="620" 
d="M555 657v-619c0 -37 -34 -47 -67 -47s-66 10 -66 47v260h-225v-260c0 -37 -33 -47 -66 -47s-66 10 -66 47v619c0 37 33 47 66 47s66 -10 66 -47v-239h225v239c0 37 33 47 66 47s67 -10 67 -47z" />
    <glyph glyph-name="K" unicode="K" horiz-adv-x="579" 
d="M352 430l218 -379c23 -38 -6 -56 -44 -57c-50 -2 -82 10 -104 48l-163 284l-61 -68v-221c0 -37 -33 -46 -66 -46c-34 0 -67 9 -67 46v621c0 36 33 46 67 46c33 0 66 -10 66 -46v-217l185 210c33 38 56 61 112 52c42 -8 63 -39 36 -70z" />
    <glyph glyph-name="M" unicode="M" horiz-adv-x="703" 
d="M576 705c32 0 62 -12 62 -48v-619c0 -37 -33 -47 -64 -47s-65 10 -65 47v405c-9 -29 -25 -60 -37 -86l-77 -152c-9 -17 -26 -23 -43 -23c-18 0 -35 6 -44 23l-76 152c-13 26 -28 57 -38 86v-405c0 -37 -34 -47 -65 -47s-64 10 -64 47v619c0 36 31 48 63 48
c26 0 43 -8 56 -27c17 -25 168 -319 168 -319s151 294 167 319c13 19 30 27 57 27z" />
    <glyph glyph-name="O" unicode="O" horiz-adv-x="638" 
d="M35 350c0 213 72 361 284 361s284 -148 284 -361c0 -212 -71 -361 -284 -361s-284 149 -284 361zM467 350c0 109 -18 244 -148 244c-131 0 -148 -135 -148 -244c0 -108 19 -243 148 -243s148 135 148 243z" />
    <glyph glyph-name="P" unicode="P" horiz-adv-x="576" 
d="M198 264v-226c0 -37 -33 -47 -67 -47c-33 0 -66 10 -66 47v574c0 75 48 88 98 88h177c120 0 211 -89 211 -217s-89 -219 -211 -219h-142zM326 385c55 0 86 44 86 98c0 56 -30 97 -86 97h-111c-12 0 -17 -4 -17 -17v-178h128z" />
    <glyph glyph-name="T" unicode="T" horiz-adv-x="500" 
d="M57 700h386c33 0 42 -30 42 -60s-8 -60 -42 -60h-127v-542c0 -37 -33 -47 -66 -47c-29 0 -66 10 -66 47v542h-127c-34 0 -42 30 -42 60s9 60 42 60z" />
    <glyph glyph-name="X" unicode="X" horiz-adv-x="542" 
d="M271 479l101 178c20 37 41 47 95 47c29 0 66 -11 46 -48l-170 -300l178 -314c21 -37 -18 -50 -47 -51c-47 -1 -79 8 -99 44l-104 194l-104 -194c-20 -36 -52 -45 -99 -44c-29 1 -68 14 -47 51l178 314l-169 300c-21 37 16 48 45 48c54 0 75 -10 95 -47z" />
    <glyph glyph-name="b" unicode="b" horiz-adv-x="585" 
d="M191 35c-6 -37 -36 -44 -65 -44c-34 0 -61 12 -61 50v618c0 38 33 48 67 48c33 0 67 -10 67 -48v-165c21 21 77 38 118 38c158 0 213 -111 213 -271s-66 -272 -216 -272c-46 0 -94 18 -123 46zM199 278v-44c0 -61 29 -141 96 -141c82 0 95 93 95 168
c0 74 -13 167 -95 167c-73 0 -96 -86 -96 -150z" />
    <glyph glyph-name="d" unicode="d" horiz-adv-x="565" 
d="M253 532c38 0 78 -11 113 -38v165c0 38 34 48 67 48c34 0 67 -10 67 -48v-618c0 -38 -27 -50 -61 -50c-29 0 -59 7 -65 44c-30 -30 -77 -46 -121 -46c-156 0 -218 112 -218 272s58 271 218 271zM268 93c67 0 98 83 98 141v44c0 56 -24 150 -98 150
c-82 0 -93 -93 -93 -167c0 -75 11 -168 93 -168z" />
    <glyph glyph-name="f" unicode="f" horiz-adv-x="343" 
d="M95 39v371h-32c-38 0 -48 27 -48 54s10 54 48 54h32v15c0 111 41 176 184 176c15 0 32 -1 44 -4c27 -7 35 -25 35 -59c-1 -38 -12 -53 -44 -52c-6 1 -14 1 -20 1c-32 -1 -65 -9 -65 -60v-17h44c38 0 48 -27 48 -54s-10 -54 -48 -54h-44v-371c0 -38 -33 -48 -67 -48
c-33 0 -67 10 -67 48z" />
    <glyph glyph-name="g" unicode="g" horiz-adv-x="565" 
d="M374 485c6 36 36 43 65 43c34 0 61 -12 61 -50v-430c0 -135 -67 -216 -180 -238c-65 -13 -143 -11 -206 8c-36 11 -44 45 -40 79c4 35 26 55 56 45c48 -17 115 -27 165 -11c40 13 71 46 71 101c-27 -24 -71 -37 -112 -37c-159 0 -219 104 -219 263c0 160 58 272 219 272
c45 0 91 -18 120 -45zM366 241v44c0 56 -29 141 -96 141c-82 0 -95 -93 -95 -168c0 -74 13 -159 95 -159c73 0 96 84 96 142z" />
    <glyph glyph-name="h" unicode="h" horiz-adv-x="563" 
d="M199 658v-181c47 46 100 58 140 58c107 0 169 -56 169 -179v-317c0 -38 -33 -48 -67 -48c-33 0 -67 10 -67 48v288c0 38 -6 88 -59 88c-93 0 -116 -84 -116 -155v-221c0 -38 -33 -48 -67 -48c-33 0 -67 10 -67 48v618c0 38 34 50 67 50c34 0 67 -10 67 -49z" />
    <glyph glyph-name="i" unicode="i" horiz-adv-x="276" 
d="M205 480v-441c0 -38 -34 -48 -67 -48c-34 0 -67 10 -67 48v441c0 38 33 48 67 48c33 0 67 -10 67 -48zM138 707c57 0 73 -26 73 -66c0 -39 -12 -70 -73 -70c-62 0 -73 31 -73 70c0 40 15 66 73 66z" />
    <glyph glyph-name="j" unicode="j" horiz-adv-x="280" 
d="M209 480v-496c0 -115 -80 -170 -196 -158c-36 4 -48 36 -48 69c0 40 19 57 62 57c44 0 48 38 48 59v469c0 38 34 48 67 48c34 0 67 -10 67 -48zM142 707c58 0 73 -26 73 -66c0 -39 -11 -70 -73 -70c-61 0 -73 31 -73 70c0 40 15 66 73 66z" />
    <glyph glyph-name="k" unicode="k" horiz-adv-x="504" 
d="M200 658v-309l138 142c34 36 70 44 109 35c41 -11 51 -42 25 -69l-140 -141l156 -265c20 -33 -16 -59 -56 -62c-48 -3 -60 9 -77 40l-112 197l-43 -44v-142c0 -39 -35 -49 -69 -49c-32 0 -66 10 -66 49v618c0 38 34 49 66 49c34 0 69 -11 69 -49z" />
    <glyph glyph-name="l" unicode="l" horiz-adv-x="264" 
d="M199 658v-619c0 -38 -33 -48 -67 -48c-33 0 -67 10 -67 48v619c0 38 34 49 67 49c34 0 67 -10 67 -49z" />
    <glyph glyph-name="m" unicode="m" horiz-adv-x="846" 
d="M339 535c59 0 109 -23 141 -78c54 67 112 78 155 78c107 0 156 -60 156 -183v-313c0 -38 -33 -48 -67 -48c-33 0 -67 10 -67 48v288c0 38 -5 88 -58 88c-81 0 -104 -72 -104 -137v-239c0 -38 -34 -48 -67 -48c-30 0 -68 10 -68 48v281c0 39 -8 95 -61 95
c-76 0 -100 -71 -100 -140v-236c0 -38 -34 -48 -67 -48c-34 0 -67 10 -67 48v442c0 35 28 48 59 48c36 0 59 -10 64 -49l2 -12c45 56 105 67 149 67z" />
    <glyph glyph-name="n" unicode="n" horiz-adv-x="563" 
d="M189 480l2 -12c45 56 105 67 148 67c107 0 169 -56 169 -179v-317c0 -38 -33 -48 -67 -48c-33 0 -67 10 -67 48v288c0 38 -12 88 -65 88c-84 0 -110 -69 -110 -139v-237c0 -38 -33 -48 -67 -48c-33 0 -67 10 -67 48v442c0 35 29 47 59 47c37 0 60 -9 65 -48z" />
    <glyph glyph-name="q" unicode="q" horiz-adv-x="566" 
d="M375 487c6 36 36 41 65 41c34 0 61 -10 61 -48v-617c0 -38 -34 -49 -67 -49c-34 0 -67 10 -67 49v164c-27 -27 -70 -38 -112 -38c-154 0 -220 112 -220 271c0 160 59 272 220 272c46 0 94 -18 120 -45zM367 243v44c0 63 -32 141 -99 141c-82 0 -92 -93 -92 -168
c0 -74 10 -167 92 -167c72 0 99 86 99 150z" />
    <glyph glyph-name="r" unicode="r" horiz-adv-x="368" 
d="M188 479c24 34 65 52 100 55c54 4 70 -15 70 -54c0 -43 -2 -69 -47 -71c-82 -4 -112 -50 -112 -123v-247c0 -38 -33 -48 -67 -48c-33 0 -67 10 -67 48v442c0 35 25 47 56 47s54 -10 63 -36z" />
    <glyph glyph-name="s" unicode="s" horiz-adv-x="475" 
d="M83 182c42 6 61 -10 71 -31c21 -41 55 -57 95 -57c32 0 71 17 73 55c0 39 -37 50 -111 65c-86 18 -173 52 -173 158c0 105 100 160 196 160c85 0 161 -31 189 -112c12 -36 -3 -52 -40 -57c-23 -3 -59 -5 -80 25c-17 25 -38 40 -70 40c-40 0 -70 -13 -70 -45
c0 -42 70 -53 99 -58c101 -19 188 -52 188 -163c0 -116 -96 -175 -200 -175c-90 0 -172 32 -208 121c-15 36 -5 66 41 74z" />
    <glyph glyph-name="t" unicode="t" horiz-adv-x="383" 
d="M95 607c0 38 34 48 67 48c34 0 67 -10 67 -48v-89h56c38 0 48 -27 48 -54s-10 -54 -48 -54h-56v-232c0 -46 21 -70 82 -63c44 5 57 -17 57 -57c0 -25 -6 -45 -30 -56c-19 -8 -46 -11 -70 -11c-132 0 -173 72 -173 179v240h-32c-38 0 -48 27 -48 54s10 54 48 54h32v89z
" />
    <glyph glyph-name="u" unicode="u" horiz-adv-x="557" 
d="M369 39l-3 11c-44 -51 -99 -65 -142 -65c-107 0 -169 56 -169 179v316c0 38 33 48 67 48s67 -10 67 -48v-287c0 -38 6 -88 59 -88c83 0 110 64 110 135v240c0 38 33 48 67 48c33 0 67 -10 67 -48v-439c0 -38 -30 -50 -61 -50c-36 0 -54 14 -62 48z" />
    <glyph glyph-name="v" unicode="v" horiz-adv-x="491" 
d="M161 481l63 -223c9 -31 14 -67 22 -98c8 31 12 67 21 98l64 223c11 39 52 48 84 48c33 0 70 -10 58 -48l-142 -442c-12 -38 -53 -48 -85 -48c-33 0 -74 10 -86 48l-142 442c-12 38 25 48 58 48s74 -9 85 -48z" />
    <glyph glyph-name="w" unicode="w" horiz-adv-x="721" 
d="M155 483l56 -224c8 -31 11 -51 16 -84c6 35 10 51 18 81l59 227c7 26 25 39 56 39s49 -13 56 -39l59 -227c8 -30 12 -46 18 -81c5 33 8 53 16 84l57 224c10 39 48 46 83 45c32 0 65 -9 54 -48l-117 -430c-11 -40 -32 -59 -89 -59c-49 0 -72 27 -83 70l-35 132
c-5 17 -17 63 -19 88c-2 -25 -15 -71 -19 -88l-35 -132c-11 -43 -34 -70 -83 -70c-57 0 -78 19 -89 59l-116 430c-11 39 22 48 55 48c34 0 72 -6 82 -45z" />
    <glyph glyph-name="z" unicode="z" horiz-adv-x="415" 
d="M73 518h274c38 0 48 -27 48 -54c0 -25 -4 -39 -18 -59l-160 -240c-13 -19 -29 -40 -49 -57h184c38 0 48 -27 48 -54s-10 -54 -48 -54h-287c-38 0 -50 22 -50 54c0 25 5 43 14 57l164 245c12 18 27 39 43 54h-163c-38 0 -48 27 -48 54s10 54 48 54z" />
    <glyph glyph-name="a" unicode="a" 
d="M357 41c-34 -29 -76 -52 -150 -52c-91 0 -172 61 -172 164c0 172 170 190 301 182c1 69 -38 89 -79 89c-55 1 -77 -10 -124 -30c-24 -10 -45 -11 -64 11c-19 24 -20 62 10 80c58 35 115 47 180 47c114 0 211 -52 211 -191v-231c0 -22 2 -43 4 -67c3 -35 -18 -45 -50 -46
c-35 0 -52 12 -67 44zM336 237c-56 4 -169 4 -166 -84c1 -34 28 -56 70 -56c70 0 105 66 96 140z" />
    <glyph glyph-name="c" unicode="c" horiz-adv-x="509" 
d="M35 259c0 158 60 269 229 269c114 0 193 -59 204 -149c5 -40 -12 -56 -58 -56c-33 1 -52 9 -61 36c-13 44 -35 66 -85 66c-89 0 -100 -92 -100 -166s13 -166 100 -166c45 0 71 26 88 65c11 27 32 36 64 37c39 1 64 -15 56 -51c-21 -92 -92 -154 -208 -154
c-169 0 -229 111 -229 269z" />
    <glyph glyph-name="e" unicode="e" horiz-adv-x="518" 
d="M273 428c-58 0 -92 -41 -99 -104h164c10 0 19 6 18 22c-4 53 -37 82 -83 82zM468 118c-26 -85 -101 -132 -197 -132c-166 1 -235 130 -236 276c0 141 63 269 232 269c137 0 216 -87 215 -214c-1 -67 -30 -86 -91 -86h-221c2 -66 22 -136 104 -135c42 0 62 19 80 53
c10 19 35 27 73 23c44 -5 48 -34 41 -54z" />
    <glyph glyph-name="o" unicode="o" horiz-adv-x="528" 
d="M35 259c0 158 60 269 229 269s229 -111 229 -269s-60 -269 -229 -269s-229 111 -229 269zM364 259c0 74 -10 166 -100 166c-89 0 -99 -92 -99 -166s12 -166 99 -166c88 0 100 92 100 166z" />
    <glyph glyph-name="p" unicode="p" horiz-adv-x="566" 
d="M191 486c26 27 74 45 120 45c161 0 220 -111 220 -271s-66 -272 -220 -272c-42 0 -84 12 -112 39v-165c0 -38 -33 -48 -67 -48c-33 0 -67 10 -67 48v617c0 38 27 51 61 51c29 0 59 -8 65 -44zM199 242c0 -64 27 -150 99 -150c82 0 92 93 92 168s-10 167 -92 167
c-67 0 -99 -77 -99 -140v-45z" />
    <glyph glyph-name="x" unicode="x" horiz-adv-x="461" 
d="M42 458c-26 44 5 61 43 64c32 2 64 3 79 -27l67 -126l66 126c16 30 48 29 80 27c38 -3 69 -20 42 -64l-116 -188l131 -205c24 -37 12 -65 -36 -67c-37 -2 -70 -3 -90 32l-77 143l-78 -143c-19 -35 -53 -34 -90 -32c-48 2 -60 30 -36 67l132 205z" />
    <glyph glyph-name="y" unicode="y" horiz-adv-x="480" 
d="M458 454l-183 -520c-32 -92 -99 -120 -192 -105c-31 5 -41 29 -41 62c0 38 14 61 55 56c31 -4 60 14 70 43l15 44l-160 417c-17 46 0 68 43 72c35 4 70 3 81 -28l99 -275l94 275c10 31 45 32 80 28c43 -4 55 -23 39 -69z" />
    <glyph glyph-name="zero" unicode="0" horiz-adv-x="646" 
d="M40 348c0 171 83 356 283 356s283 -185 283 -356s-83 -356 -283 -356s-283 185 -283 356zM469 348c0 90 -25 241 -146 241c-122 0 -146 -151 -146 -241s24 -241 146 -241c121 0 146 151 146 241z" />
    <glyph glyph-name="one" unicode="1" horiz-adv-x="373" 
d="M288 658v-617c0 -37 -31 -46 -62 -46s-62 9 -62 46v523c-9 -9 -21 -15 -31 -19l-54 -21c-21 -8 -44 4 -53 26c-10 25 -6 52 19 65l134 77c14 9 28 12 47 12c31 0 62 -9 62 -46z" />
    <glyph glyph-name="two" unicode="2" 
d="M87 0c-52 0 -67 17 -67 76c0 40 19 63 33 80c59 68 124 118 194 172c57 44 116 99 116 159c0 67 -41 105 -111 105c-50 0 -89 -28 -102 -84c-8 -35 -40 -46 -72 -42c-33 3 -50 17 -50 52c8 125 111 191 224 191c134 0 245 -65 245 -207c0 -105 -64 -171 -141 -234
c-56 -46 -119 -88 -167 -137c-4 -4 -4 -11 4 -11h265c33 0 42 -30 42 -60s-9 -60 -42 -60h-371z" />
    <glyph glyph-name="three" unicode="3" 
d="M427 586l-140 -138c-4 -4 -2 -11 5 -12c124 -4 208 -89 207 -206c0 -146 -107 -241 -251 -241c-98 1 -186 38 -226 127c-16 35 -3 67 32 82c31 12 64 8 78 -23c26 -51 61 -71 119 -71c70 0 112 50 114 116c4 111 -99 125 -188 114c-24 -3 -47 13 -55 37
c-11 26 -1 51 16 70l95 102c12 15 24 25 39 38h-202c-34 0 -43 29 -43 59c0 31 9 60 43 60h344c34 0 41 -26 40 -60c-1 -24 -14 -39 -27 -54z" />
    <glyph glyph-name="four" unicode="4" horiz-adv-x="564" 
d="M495 144h-41v-107c0 -37 -33 -46 -66 -46s-66 9 -66 46v107h-260c-31 0 -49 15 -51 56c-1 23 4 35 16 54l254 403c25 39 49 52 92 52c33 0 81 -6 81 -52v-400h41c31 0 39 -29 39 -57s-8 -56 -39 -56zM322 527c-7 -18 -18 -42 -27 -56l-97 -154c-12 -20 -27 -43 -45 -60
h169v270z" />
    <glyph glyph-name="five" unicode="5" horiz-adv-x="548" 
d="M149 700h270c34 0 42 -29 42 -59s-8 -61 -42 -61h-207c-15 0 -16 -5 -19 -20l-12 -85c-4 -25 8 -29 28 -25c168 32 310 -35 308 -221c-1 -145 -102 -240 -247 -240c-98 0 -188 38 -228 130c-15 33 -6 58 29 74c33 15 64 12 84 -19c29 -47 59 -72 117 -72
c71 0 111 56 111 121c1 123 -126 155 -230 117c-54 -19 -119 3 -109 72l26 198c9 67 21 90 79 90z" />
    <glyph glyph-name="six" unicode="6" horiz-adv-x="558" 
d="M284 -10c-181 0 -244 149 -244 314c0 193 121 367 308 411c35 8 67 -1 86 -33s5 -58 -30 -68c-89 -24 -185 -79 -219 -176c33 25 78 36 120 36c135 0 223 -105 223 -239c0 -137 -103 -245 -244 -245zM285 358c-75 0 -109 -65 -109 -129c0 -61 35 -132 107 -132
c77 0 112 68 112 135c0 74 -31 126 -110 126z" />
    <glyph glyph-name="seven" unicode="7" horiz-adv-x="472" 
d="M119 38l188 524c5 14 0 18 -12 18h-233c-33 0 -42 30 -42 60s9 60 42 60h348c33 0 42 -30 42 -60c0 -14 -4 -28 -8 -40l-193 -562c-11 -32 -44 -46 -82 -46c-33 0 -63 9 -50 46z" />
    <glyph glyph-name="eight" unicode="8" horiz-adv-x="583" 
d="M135 380c-40 34 -64 79 -64 131c0 129 102 201 221 201s221 -72 221 -201c0 -52 -25 -97 -64 -131c65 -37 94 -108 94 -178c0 -142 -113 -217 -251 -217c-139 0 -250 75 -252 217c3 70 29 141 95 178zM292 597c-53 0 -93 -29 -94 -86c2 -45 38 -80 94 -80s93 35 93 80
c0 57 -40 86 -93 86zM292 326c-71 0 -115 -54 -115 -118c0 -65 46 -113 115 -113c68 0 115 48 115 113c0 64 -44 118 -115 118z" />
    <glyph glyph-name="nine" unicode="9" horiz-adv-x="551" 
d="M270 712c181 0 241 -144 241 -310c0 -203 -121 -369 -309 -415c-35 -9 -63 -9 -81 33c-14 34 -10 61 25 72c99 30 177 74 214 174c-33 -25 -71 -30 -112 -30c-136 1 -218 101 -218 231c0 137 91 245 240 245zM267 343c67 0 111 61 111 129s-34 136 -106 136
c-78 0 -113 -71 -113 -139c1 -73 33 -126 108 -126z" />
    <glyph glyph-name="at" unicode="@" horiz-adv-x="750" 
d="M543 436l-15 -140c-3 -29 15 -51 48 -19c27 25 35 63 36 100c2 128 -93 228 -227 228c-137 -2 -243 -123 -243 -262c0 -141 111 -255 259 -255c62 0 122 15 177 40c26 12 50 -2 61 -29c11 -30 8 -56 -24 -71c-67 -30 -139 -46 -213 -46c-197 0 -367 152 -367 362
c0 189 148 365 352 365c177 0 331 -139 327 -327c-1 -66 -25 -144 -79 -188c-30 -25 -71 -38 -110 -36c-32 2 -58 18 -71 48c-25 -28 -62 -46 -101 -47c-86 -2 -146 64 -148 152c-2 108 61 218 194 218h79c59 0 71 -34 65 -93zM427 362l6 57c1 6 -3 11 -9 11h-24
c-46 0 -74 -35 -82 -78c-7 -33 -6 -89 41 -88c50 0 64 57 68 98z" />
    <glyph glyph-name="numbersign" unicode="#" horiz-adv-x="607" 
d="M312 654l-27 -149h90l27 149c6 36 37 46 66 46s56 -9 50 -46l-26 -149h56c32 0 37 -27 32 -53s-18 -53 -51 -53h-56l-17 -94h56c33 0 38 -26 33 -53c-4 -26 -18 -53 -51 -53h-56l-29 -162c-6 -37 -37 -46 -66 -46s-56 10 -50 46l28 162h-89l-29 -162
c-6 -37 -37 -46 -66 -46s-56 10 -50 46l28 162h-56c-33 0 -37 27 -32 53c5 27 18 53 51 53h56l17 94h-57c-33 0 -37 27 -32 53s18 53 51 53h56l27 149c6 36 37 46 66 46s57 -9 50 -46zM250 305h90l17 94h-90z" />
    <glyph glyph-name="dollar" unicode="$" horiz-adv-x="564" 
d="M129 193c10 -49 44 -79 88 -92v210c-96 29 -186 79 -186 200c0 112 86 180 186 195v20c0 36 28 46 56 46c29 0 57 -10 57 -46v-22c87 -16 160 -66 178 -170c5 -31 -10 -49 -44 -51c-27 -2 -58 -1 -67 28c-15 44 -35 70 -67 84v-185c102 -30 199 -78 199 -207
c0 -122 -73 -197 -199 -213v-31c0 -37 -28 -47 -57 -47c-28 0 -56 10 -56 47v33c-97 15 -185 69 -201 181c-4 24 6 54 51 60c36 4 55 -10 62 -40zM330 100c40 12 71 40 71 94c0 48 -33 71 -71 85v-179zM217 598c-36 -12 -64 -42 -64 -86c1 -36 30 -57 64 -71v157z" />
    <glyph glyph-name="percent" unicode="%" horiz-adv-x="655" 
d="M25 545c0 86 39 156 138 156s138 -71 138 -156s-39 -156 -138 -156s-138 70 -138 156zM204 545c0 26 0 71 -41 71s-41 -45 -41 -71s1 -71 41 -71s41 45 41 71zM354 146c0 86 39 155 138 155s138 -70 138 -155s-39 -156 -138 -156s-138 70 -138 156zM533 146
c0 26 -1 71 -41 71c-41 0 -41 -45 -41 -71c0 -27 1 -71 41 -71s41 44 41 71zM554 644l-351 -619c-14 -29 -41 -39 -78 -32c-29 5 -36 26 -24 51l351 619c12 27 30 38 66 37c32 -1 51 -24 36 -56z" />
    <glyph glyph-name="asciicircum" unicode="^" horiz-adv-x="501" 
d="M250 579l-111 -180c-17 -28 -37 -37 -74 -29c-31 7 -37 35 -21 65l120 219c20 38 40 59 86 59s66 -21 87 -59l120 -219c16 -30 10 -58 -21 -65c-37 -8 -57 1 -75 29z" />
    <glyph glyph-name="ampersand" unicode="&#x26;" horiz-adv-x="640" 
d="M501 8l-49 51c-49 -45 -111 -68 -178 -68c-132 -1 -238 80 -239 218c0 97 72 165 147 212c-9 19 -17 37 -24 55c-40 110 11 224 145 224c93 0 162 -45 155 -147c-4 -76 -68 -136 -123 -172c31 -48 67 -93 104 -137c10 30 16 62 17 94c2 31 24 48 56 44
c39 -5 59 -30 57 -65c-4 -58 -21 -115 -47 -166c30 -32 61 -63 90 -95c28 -30 5 -53 -28 -63c-33 -11 -63 -6 -83 15zM378 142c-50 58 -97 118 -139 182c-39 -27 -71 -64 -71 -115c0 -64 44 -110 111 -110c37 0 71 14 99 43zM281 480c27 20 60 50 56 87c-3 19 -15 34 -35 35
c-66 1 -45 -89 -21 -122z" />
    <glyph glyph-name="asterisk" unicode="*" horiz-adv-x="489" 
d="M371 311c-29 -19 -64 -19 -83 15l-45 81l-44 -82c-18 -32 -53 -36 -83 -14c-31 22 -36 56 -10 83l63 67l-91 18c-39 7 -51 44 -36 80c14 31 41 44 71 30l85 -40l-12 93c-4 34 20 60 57 60c38 0 63 -25 59 -60l-12 -93l84 39c35 16 65 -1 76 -34c11 -35 -3 -69 -41 -76
l-90 -17l62 -67c26 -28 21 -62 -10 -83z" />
    <glyph glyph-name="parenleft" unicode="(" horiz-adv-x="276" 
d="M35 258c0 148 47 289 144 423c16 19 45 20 67 12c33 -13 28 -37 14 -60c-69 -114 -101 -242 -101 -375s32 -261 101 -375c14 -23 19 -47 -14 -60c-22 -8 -51 -7 -67 12c-94 118 -144 264 -144 423z" />
    <glyph glyph-name="parenright" unicode=")" horiz-adv-x="276" 
d="M96 681c96 -120 145 -271 145 -423c0 -154 -48 -303 -145 -423c-15 -19 -44 -21 -67 -12c-32 12 -27 37 -13 60c69 114 100 242 100 375s-31 261 -100 375c-14 23 -19 48 13 60c23 9 52 7 67 -12z" />
    <glyph glyph-name="underscore" unicode="_" horiz-adv-x="543" 
d="M499 -165h-455c-31 0 -39 28 -39 56c0 27 8 55 39 55h455c30 0 39 -28 39 -55c0 -28 -8 -56 -39 -56z" />
    <glyph glyph-name="hyphen" unicode="-" horiz-adv-x="350" 
d="M276 206h-203c-30 0 -38 28 -38 55c0 28 8 56 38 56h203c30 0 39 -28 39 -56c0 -27 -8 -55 -39 -55z" />
    <glyph glyph-name="plus" unicode="+" horiz-adv-x="567" 
d="M339 556v-154h154c31 0 39 -28 39 -56c0 -27 -8 -55 -39 -55h-154v-155c0 -31 -28 -39 -56 -39c-27 0 -55 9 -55 39v155h-155c-30 0 -38 28 -38 55c0 28 8 56 38 56h155v154c0 31 28 39 55 39c28 0 56 -8 56 -39z" />
    <glyph glyph-name="equal" unicode="=" horiz-adv-x="567" 
d="M494 371h-421c-30 0 -38 28 -38 55c0 28 8 56 38 56h421c30 0 38 -28 38 -56c0 -27 -8 -55 -38 -55zM494 197h-421c-30 0 -38 28 -38 55c0 28 8 56 38 56h421c30 0 38 -28 38 -56c0 -27 -8 -55 -38 -55z" />
    <glyph glyph-name="endash" unicode="&#x2013;" horiz-adv-x="568" 
d="M494 271h-420c-31 0 -39 28 -39 55c0 28 8 55 39 55h420c30 0 39 -27 39 -55c0 -27 -8 -55 -39 -55z" />
    <glyph glyph-name="slash" unicode="/" horiz-adv-x="497" 
d="M486 642l-373 -787c-14 -30 -41 -40 -78 -33c-29 5 -36 26 -24 52l372 787c13 26 31 38 66 37c33 -2 52 -24 37 -56z" />
    <glyph glyph-name="exclam" unicode="!" horiz-adv-x="263" 
d="M132 131c60 0 73 -27 73 -70c0 -44 -13 -74 -73 -74c-62 0 -73 30 -73 74c0 43 14 70 73 70zM132 703c45 0 78 -17 75 -64l-30 -419c-2 -26 -20 -33 -45 -33c-26 0 -44 7 -46 33l-30 419c-3 47 31 64 76 64z" />
    <glyph glyph-name="question" unicode="?" horiz-adv-x="485" 
d="M24 601c43 65 121 99 202 100c55 1 114 -14 159 -48c51 -39 78 -97 74 -161c-4 -75 -50 -121 -105 -168c-38 -31 -63 -61 -84 -105c-12 -24 -33 -30 -57 -27c-26 3 -42 16 -39 43c7 69 59 119 102 165c25 26 48 60 48 97c1 60 -45 95 -103 95c-46 0 -83 -20 -112 -55
c-21 -26 -53 -23 -76 0c-18 17 -23 43 -9 64zM225 131c60 0 73 -27 73 -70c0 -44 -13 -74 -73 -74c-62 0 -73 30 -73 74c0 43 15 70 73 70z" />
    <glyph glyph-name="emdash" unicode="&#x2014;" horiz-adv-x="858" 
d="M787 207h-717c-28 0 -35 25 -35 51s7 52 35 52h717c29 0 36 -26 36 -52s-7 -51 -36 -51z" />
    <glyph glyph-name="comma" unicode="," horiz-adv-x="275" 
d="M89 -149c-33 2 -47 22 -43 51l28 182c6 43 35 60 82 57c62 -4 74 -47 56 -90l-65 -162c-11 -27 -27 -40 -58 -38z" />
    <glyph glyph-name="period" unicode="." horiz-adv-x="281" 
d="M140 141c62 0 76 -29 76 -75c0 -47 -14 -79 -76 -79c-63 0 -75 32 -75 79c0 46 15 75 75 75z" />
    <glyph glyph-name="colon" unicode=":" horiz-adv-x="281" 
d="M141 141c61 0 75 -29 75 -75c0 -47 -13 -79 -75 -79c-64 0 -76 32 -76 79c0 46 15 75 76 75zM141 521c61 0 75 -29 75 -76c0 -46 -13 -79 -75 -79c-64 0 -76 33 -76 79s15 76 76 76z" />
    <glyph glyph-name="semicolon" unicode=";" horiz-adv-x="285" 
d="M139 521c61 0 75 -29 75 -76c0 -46 -13 -79 -75 -79c-64 0 -76 33 -76 79s15 76 76 76zM88 -149c-33 2 -46 22 -42 51l28 182c6 43 35 60 82 57c62 -4 73 -47 56 -90l-65 -162c-11 -27 -27 -40 -59 -38z" />
    <glyph glyph-name="quotesingle" unicode="'" horiz-adv-x="245" 
d="M98 415c-33 2 -46 22 -42 51l27 182c7 43 36 60 82 57c63 -4 74 -47 57 -90l-65 -162c-11 -27 -28 -39 -59 -38z" />
    <glyph glyph-name="quotedblright" unicode="&#x201d;" horiz-adv-x="389" 
d="M263 415c-34 2 -47 22 -43 51l28 182c6 43 35 60 82 57c62 -4 73 -47 56 -90l-65 -162c-11 -27 -27 -39 -58 -38zM79 415c-33 2 -47 22 -43 51l28 182c6 43 35 60 82 57c62 -4 74 -47 56 -90l-65 -162c-10 -27 -27 -39 -58 -38z" />
    <glyph glyph-name="quotedblleft" unicode="&#x201c;" horiz-adv-x="389" 
d="M147 749c33 -2 46 -22 42 -51l-27 -182c-7 -43 -36 -59 -82 -56c-63 3 -74 46 -57 90l65 161c11 27 28 40 59 38zM331 749c33 -2 46 -22 42 -51l-27 -182c-7 -43 -36 -59 -82 -56c-63 3 -74 46 -57 90l65 161c11 27 28 40 59 38z" />
    <glyph glyph-name="less" unicode="&#x3c;" horiz-adv-x="505" 
d="M436 124c23 -12 34 -25 33 -60c-1 -48 -25 -58 -64 -39l-344 165c-31 15 -51 35 -51 72c0 36 20 57 51 72l344 165c39 19 63 9 64 -39c1 -35 -6 -48 -33 -61l-266 -137z" />
    <glyph glyph-name="greater" unicode="&#x3e;" horiz-adv-x="505" 
d="M69 124l267 138l-267 137c-26 13 -34 26 -33 61c2 48 25 58 64 39l344 -165c32 -15 51 -36 51 -72c0 -37 -19 -57 -51 -72l-344 -165c-39 -19 -62 -9 -64 39c-1 35 10 48 33 60z" />
    <glyph glyph-name="asciitilde" unicode="~" horiz-adv-x="565" 
d="M408 266c-45 -6 -93 5 -143 26c-28 11 -57 20 -84 20c-25 1 -50 -7 -73 -27c-21 -18 -44 -21 -66 1c-19 17 -22 40 -7 59c37 47 79 70 125 77c45 6 93 -4 144 -25c28 -12 57 -21 84 -21c25 0 50 7 73 27c21 18 45 19 67 -3c18 -17 13 -39 -1 -58
c-30 -42 -73 -69 -119 -76z" />
    <glyph glyph-name="afii61352" unicode="&#x2116;" horiz-adv-x="906" 
d="M441 655c0 37 30 46 61 46c32 0 60 -10 60 -46v-620c0 -37 -29 -46 -61 -46s-56 7 -71 32l-197 334c-15 24 -33 44 -47 79v-399c0 -37 -30 -46 -61 -46c-32 0 -60 9 -60 46v620c0 36 29 46 61 46s56 -7 71 -32l197 -334c14 -25 32 -44 47 -79v399zM839 268h-208
c-26 0 -33 23 -33 46c0 24 7 47 33 47h208c25 0 32 -23 32 -47c0 -23 -6 -46 -32 -46zM605 555c0 79 36 142 130 142c93 0 130 -64 130 -142s-37 -142 -130 -142c-94 0 -130 63 -130 142zM779 555c0 24 0 65 -44 65s-44 -41 -44 -65s0 -65 44 -65c43 0 44 41 44 65z" />
    <glyph glyph-name="braceleft" unicode="{" horiz-adv-x="295" 
d="M62 313c26 8 29 38 29 62v173c0 106 66 154 166 152c27 0 33 -24 33 -48c0 -23 -6 -48 -32 -48c-45 -1 -58 -20 -58 -64v-168c0 -40 -14 -84 -48 -109c35 -22 48 -69 48 -110v-168c0 -44 13 -62 58 -64c26 0 32 -25 32 -48c0 -24 -6 -48 -33 -48
c-100 -2 -166 47 -166 153v172c0 24 -3 54 -29 63c-21 7 -27 28 -27 50c0 21 6 43 27 50z" />
    <glyph glyph-name="braceright" unicode="}" horiz-adv-x="295" 
d="M233 313c21 -7 27 -29 27 -50c0 -22 -6 -43 -27 -50c-26 -9 -29 -39 -29 -63v-172c0 -106 -66 -155 -166 -153c-26 0 -33 24 -33 48c0 23 7 48 33 48c44 2 57 20 57 64v168c0 41 14 88 48 110c-34 25 -48 69 -48 109v168c0 44 -13 63 -57 64c-26 0 -33 25 -33 48
c0 24 6 48 33 48c100 2 166 -46 166 -152v-173c0 -24 3 -54 29 -62z" />
    <glyph glyph-name="bracketleft" unicode="[" horiz-adv-x="280" 
d="M144 700h94c27 0 37 -20 37 -46s-9 -49 -38 -49h-47c-12 0 -17 -3 -17 -15v-654c0 -12 5 -15 17 -15h47c29 0 38 -23 38 -49s-10 -46 -37 -46h-94c-51 0 -79 28 -79 80v714c0 52 28 80 79 80z" />
    <glyph glyph-name="bracketright" unicode="]" horiz-adv-x="281" 
d="M137 700c51 0 79 -28 79 -80v-714c0 -52 -28 -80 -79 -80h-95c-27 0 -36 20 -37 46c0 26 9 49 38 49h48c12 0 16 3 16 15v654c0 12 -4 15 -16 15h-48c-29 0 -38 23 -38 49c1 26 10 46 37 46h95z" />
    <glyph glyph-name="backslash" unicode="\" horiz-adv-x="498" 
d="M114 660l373 -787c12 -26 4 -47 -25 -52c-37 -7 -64 3 -78 33l-373 787c-15 32 4 54 37 56c35 1 53 -11 66 -37z" />
    <glyph glyph-name="Euro" unicode="&#x20ac;" horiz-adv-x="691" 
d="M131 361h-54c-28 0 -31 25 -25 51c5 25 19 50 47 50h40c24 146 100 239 270 239c169 0 250 -89 256 -225c1 -32 -32 -46 -66 -46c-39 -1 -66 3 -71 39c-11 72 -42 115 -119 115c-79 0 -115 -54 -131 -122h148c28 0 30 -25 25 -50c-6 -26 -19 -51 -47 -51h-137v-31h115
c28 0 30 -25 25 -51c-6 -25 -18 -50 -47 -50h-83c14 -72 50 -132 132 -132c72 0 104 50 116 104c9 36 31 51 75 50c47 -1 71 -16 65 -58c-16 -108 -94 -214 -256 -214c-175 0 -250 98 -271 250h-105c-28 0 -30 25 -25 50c6 26 19 51 47 51h76v31z" />
    <glyph glyph-name="bullet" unicode="&#x2022;" horiz-adv-x="444" 
d="M222 512c87 0 157 -70 157 -157c0 -86 -70 -157 -157 -157s-157 71 -157 157c0 87 70 157 157 157z" />
    <glyph glyph-name="copyright" unicode="&#xa9;" horiz-adv-x="774" 
d="M387 709c185 0 352 -160 352 -362c0 -189 -153 -363 -352 -363c-194 0 -352 163 -352 363s158 362 352 362zM387 77c138 0 262 120 262 270c0 140 -114 269 -262 269c-145 0 -262 -120 -262 -269s117 -270 262 -270zM391 567c66 0 130 -36 153 -106
c13 -37 -3 -49 -31 -55c-36 -8 -55 0 -68 34c-8 23 -28 38 -55 38c-69 0 -82 -77 -82 -129c0 -55 16 -126 83 -126c26 0 51 17 61 45c11 31 28 35 56 33c47 -4 43 -41 36 -63c-20 -64 -82 -105 -153 -105c-131 1 -183 97 -183 216c0 117 51 218 183 218z" />
    <glyph glyph-name="guillemotleft" unicode="&#xab;" horiz-adv-x="376" 
d="M190 300l65 113c15 25 39 26 61 19c22 -6 29 -23 21 -44l-37 -104c-3 -7 -4 -11 -4 -16c0 -6 1 -9 4 -17l37 -103c8 -21 1 -38 -21 -44c-22 -7 -46 -7 -61 19l-65 112c-6 11 -11 21 -11 33s5 22 11 32zM46 300l66 113c14 25 39 26 60 19c22 -6 29 -23 22 -44l-38 -104
c-3 -7 -4 -11 -4 -16c0 -6 1 -9 4 -17l38 -103c7 -21 0 -38 -22 -44c-21 -7 -46 -7 -60 19l-66 112c-5 11 -11 21 -11 33s6 22 11 32z" />
    <glyph glyph-name="registered" unicode="&#xae;" horiz-adv-x="774" 
d="M387 709c195 0 352 -162 352 -362s-157 -363 -352 -363c-194 0 -352 163 -352 363s158 362 352 362zM387 616c-145 0 -262 -120 -262 -269s117 -270 262 -270s262 121 262 270s-117 269 -262 269zM299 144c-26 -1 -50 6 -50 37v304c0 47 31 71 77 71h83
c79 0 140 -48 140 -131c0 -46 -28 -83 -66 -96c43 -31 43 -89 72 -134c18 -29 -17 -43 -38 -45c-28 -2 -52 -3 -68 24c-10 17 -17 40 -23 64c-8 35 -19 61 -53 61h-26v-119c0 -27 -21 -36 -48 -36zM347 385h53c27 0 47 12 47 41s-17 40 -45 40h-44c-8 0 -11 -3 -11 -12v-69z
" />
    <glyph glyph-name="guillemotright" unicode="&#xbb;" horiz-adv-x="376" 
d="M186 300c6 -10 11 -20 11 -32s-5 -22 -11 -33l-65 -112c-14 -26 -39 -26 -61 -19c-22 6 -29 23 -21 44l38 103c2 8 3 11 3 17c0 5 -1 9 -3 16l-38 104c-8 21 -1 38 21 44c22 7 47 6 61 -19zM330 300c6 -10 11 -20 11 -32s-5 -22 -11 -33l-65 -112
c-15 -26 -39 -26 -61 -19c-22 6 -29 23 -21 44l37 103c3 8 4 11 4 17c0 5 -1 9 -4 16l-37 104c-8 21 -1 38 21 44c22 7 46 6 61 -19z" />
    <glyph glyph-name="paragraph" unicode="&#xb6;" horiz-adv-x="639" 
d="M305 610h-49c-61 0 -99 -16 -99 -83c0 -69 47 -85 106 -85h42v168zM35 527c0 135 106 173 222 173h307c29 0 40 -20 39 -48c0 -26 -13 -42 -39 -42h-20v-749c0 -27 -20 -38 -47 -38s-45 13 -45 39l-1 748h-54v-748c0 -29 -20 -40 -47 -39c-27 0 -45 12 -45 39v497h-48
c-112 0 -222 34 -222 168z" />
    <glyph glyph-name="section" unicode="&#xa7;" horiz-adv-x="507" 
d="M113 18c28 3 57 0 64 -31c10 -44 41 -71 87 -71c34 0 71 16 71 60c0 46 -61 70 -97 83c-99 35 -192 83 -190 204c1 55 21 101 56 142c-36 34 -58 78 -58 128c0 114 94 174 198 174c89 0 179 -46 198 -141c8 -36 -9 -54 -47 -57c-29 -2 -58 -1 -64 31c-9 44 -45 66 -89 66
c-35 0 -69 -16 -69 -60s62 -67 97 -79c99 -35 190 -83 190 -204c0 -54 -21 -102 -56 -142c37 -35 58 -80 58 -131c0 -111 -93 -171 -195 -171c-91 0 -184 46 -202 146c-6 34 14 50 48 53zM193 351c-14 -20 -19 -44 -20 -68c-2 -42 26 -63 60 -78c27 -12 58 -20 82 -30
c14 20 19 44 20 68c1 39 -24 61 -55 76c-28 14 -62 22 -87 32z" />
    <glyph glyph-name="space" unicode=" " horiz-adv-x="330" 
 />
    <glyph glyph-name="quoteright" unicode="&#x2019;" horiz-adv-x="245" 
d="M98 415c-33 2 -46 22 -42 51l27 182c7 43 36 60 82 57c63 -4 74 -47 57 -90l-65 -162c-11 -27 -28 -39 -59 -38z" />
    <glyph glyph-name="quoteleft" unicode="&#x2018;" horiz-adv-x="245" 
d="M187 705c33 -2 46 -22 42 -51l-27 -182c-7 -43 -36 -60 -82 -57c-63 4 -74 47 -57 90l65 162c11 27 28 39 59 38z" />
    <glyph glyph-name="quotedbl" unicode="&#x22;" horiz-adv-x="429" 
d="M283 415c-34 2 -47 22 -43 51l28 182c6 43 35 60 82 57c62 -4 73 -47 56 -90l-65 -162c-11 -27 -27 -39 -58 -38zM99 415c-33 2 -47 22 -43 51l28 182c6 43 35 60 82 57c62 -4 74 -47 56 -90l-65 -162c-10 -27 -27 -39 -58 -38z" />
    <glyph glyph-name="afii10065" unicode="&#x430;" 
d="M357 41c-34 -29 -76 -52 -150 -52c-91 0 -172 61 -172 164c0 172 170 190 301 182c1 69 -38 89 -79 89c-55 1 -77 -10 -124 -30c-24 -10 -45 -11 -64 11c-19 24 -20 62 10 80c58 35 115 47 180 47c114 0 211 -52 211 -191v-231c0 -22 2 -43 4 -67c3 -35 -18 -45 -50 -46
c-35 0 -52 12 -67 44zM336 237c-56 4 -169 4 -166 -84c1 -34 28 -56 70 -56c70 0 105 66 96 140z" />
    <glyph glyph-name="afii10055" unicode="&#x406;" horiz-adv-x="263" 
d="M198 658v-620c0 -37 -34 -47 -67 -47s-66 10 -66 47v620c0 36 33 46 66 46s67 -10 67 -46z" />
    <glyph glyph-name="afii10103" unicode="&#x456;" horiz-adv-x="276" 
d="M205 480v-441c0 -38 -34 -48 -67 -48c-34 0 -67 10 -67 48v441c0 38 33 48 67 48c33 0 67 -10 67 -48zM138 707c57 0 73 -26 73 -66c0 -39 -12 -70 -73 -70c-62 0 -73 31 -73 70c0 40 15 66 73 66z" />
    <glyph glyph-name="afii10062" unicode="&#x40e;" horiz-adv-x="518" 
d="M504 657l-212 -550c-21 -56 -59 -114 -124 -114c-39 0 -70 10 -71 63c-1 34 13 47 38 51c19 3 27 7 39 39l39 99l-197 404c-18 36 12 53 47 55c56 2 71 -11 87 -47l122 -256l99 256c14 36 28 47 81 47c29 -1 66 -9 52 -47zM272 732c-77 0 -131 41 -146 75
c-8 18 -12 42 10 56c18 11 37 12 51 -2c26 -27 49 -37 85 -37c37 0 60 10 86 37c13 14 34 15 51 3c23 -15 18 -39 10 -57c-16 -34 -69 -75 -147 -75z" />
    <glyph glyph-name="afii10110" unicode="&#x45e;" horiz-adv-x="480" 
d="M458 454l-183 -520c-32 -92 -99 -120 -192 -105c-31 5 -41 29 -41 62c0 38 14 60 55 56c31 -4 60 14 70 43l15 44l-160 417c-17 46 0 68 43 72c35 4 70 3 81 -28l99 -275l94 275c10 31 45 32 80 28c43 -4 55 -23 39 -69zM253 562c-68 0 -129 39 -149 79
c-7 15 -2 34 14 47c15 12 42 17 55 3c24 -27 50 -37 80 -37s57 10 81 37c13 14 40 9 55 -3c15 -13 21 -32 13 -47c-19 -40 -80 -79 -149 -79z" />
    <glyph glyph-name="bar" unicode="|" horiz-adv-x="228" 
d="M163 671v-823c0 -27 -25 -35 -49 -35c-25 0 -49 8 -49 35v823c0 26 24 34 49 34c24 0 49 -6 49 -34z" />
    <glyph glyph-name="afii10051" unicode="&#x402;" horiz-adv-x="740" 
d="M430 580h-129v-154c51 26 104 39 156 39c134 2 253 -76 252 -246c-3 -142 -110 -230 -231 -230c-44 0 -91 6 -129 33c-25 18 -25 43 -15 65c9 21 33 36 67 19c17 -9 46 -13 67 -11c78 3 120 54 120 130c0 81 -50 130 -128 133c-52 2 -111 -11 -159 -38v-283
c0 -37 -33 -45 -65 -45c-35 0 -67 10 -67 45v543h-127c-33 0 -42 30 -42 61c0 30 9 59 42 59h388c32 0 41 -29 41 -59c0 -31 -9 -61 -41 -61z" />
    <glyph glyph-name="afii10052" unicode="&#x403;" horiz-adv-x="454" 
d="M209 786l32 78c11 26 30 34 56 33c12 0 34 -2 48 -4c34 -8 37 -33 15 -58l-63 -70c-18 -19 -37 -24 -64 -17c-16 3 -35 11 -24 38zM214 580c-11 0 -16 -5 -16 -17v-526c0 -37 -33 -45 -66 -45c-35 0 -67 10 -67 45v575c0 77 46 88 98 88h234c33 0 42 -29 42 -59
c0 -31 -9 -61 -42 -61h-183z" />
    <glyph glyph-name="afii10100" unicode="&#x453;" horiz-adv-x="403" 
d="M190 610l33 76c12 24 28 30 55 30c12 0 27 0 40 -3c34 -6 36 -30 12 -55l-56 -68c-17 -18 -33 -24 -59 -19c-15 3 -37 12 -25 39zM65 420c0 55 19 98 88 98h187c36 0 48 -27 48 -53c0 -29 -12 -55 -48 -55h-124c-14 0 -17 -8 -17 -20v-353c0 -37 -35 -47 -67 -47
c-35 0 -67 10 -67 47v383z" />
    <glyph glyph-name="dagger" unicode="&#x2020;" horiz-adv-x="511" 
d="M446 420h-138v-554c0 -29 -26 -38 -52 -38s-53 9 -53 38v554h-139c-27 0 -34 25 -34 50c0 24 8 48 34 48h139v149c0 30 27 38 53 38s52 -8 52 -38v-149h138c27 0 35 -24 35 -48c0 -25 -8 -50 -35 -50z" />
    <glyph glyph-name="daggerdbl" unicode="&#x2021;" horiz-adv-x="511" 
d="M447 420h-137v-320h137c26 0 34 -27 34 -51c0 -25 -7 -49 -34 -49h-137v-134c0 -29 -27 -38 -53 -38c-25 0 -52 9 -52 38v134h-139c-28 0 -36 24 -36 49c0 24 8 51 36 51h139v320h-139c-28 0 -36 25 -36 50c0 24 8 48 36 48h139v149c0 30 27 38 52 38c26 0 53 -8 53 -38
v-149h137c26 0 34 -24 34 -48c0 -25 -7 -50 -34 -50z" />
    <glyph glyph-name="perthousand" unicode="&#x2030;" horiz-adv-x="956" 
d="M656 151c0 85 39 155 137 155c101 0 138 -71 138 -155c0 -86 -37 -156 -138 -156c-98 0 -137 69 -137 156zM834 151c0 25 0 71 -41 71c-40 0 -40 -46 -40 -71c0 -26 0 -72 40 -72c41 0 41 46 41 72zM25 550c0 87 39 157 139 157c98 0 137 -70 137 -157
c0 -85 -39 -156 -137 -156c-100 0 -139 71 -139 156zM205 550c0 27 -1 71 -41 71c-41 0 -44 -44 -44 -71s3 -70 44 -70c40 0 41 43 41 70zM354 151c0 85 39 155 138 155s138 -71 138 -155c0 -86 -39 -156 -138 -156s-138 69 -138 156zM533 151c0 25 0 71 -41 71
s-41 -46 -41 -71c0 -26 0 -72 41 -72c40 0 41 46 41 72zM555 650l-351 -621c-14 -29 -42 -39 -79 -32c-29 5 -37 25 -25 52l351 621c13 25 32 37 66 35c35 0 53 -22 38 -55z" />
    <glyph glyph-name="afii10058" unicode="&#x409;" horiz-adv-x="921" 
d="M666 315h-128v-177c0 -13 6 -16 18 -16h110c57 0 88 38 88 95c0 55 -33 98 -88 98zM265 580c-11 0 -16 -5 -16 -17c-8 -91 -13 -284 -35 -422c-15 -99 -53 -149 -139 -147c-42 0 -63 16 -64 55c-2 30 7 54 35 57c28 5 43 28 48 70c16 135 19 366 27 432
c8 73 52 92 112 92h208c49 0 97 -11 97 -88v-176h142c124 0 211 -91 211 -219c0 -127 -89 -217 -211 -217h-176c-50 0 -98 13 -98 89v474c0 12 -5 17 -17 17h-124z" />
    <glyph glyph-name="afii10059" unicode="&#x40a;" horiz-adv-x="941" 
d="M685 312h-129v-174c0 -13 6 -16 17 -16h112c55 0 86 38 86 95c0 55 -33 95 -86 95zM556 431h142c122 0 213 -86 213 -214c0 -127 -92 -217 -213 -217h-177c-51 0 -98 13 -98 89v223h-225v-275c0 -37 -34 -45 -66 -45c-34 0 -67 10 -67 45v621c0 37 33 47 67 47
c32 0 66 -10 66 -47v-227h225v227c0 37 32 47 67 47c33 0 66 -10 66 -47v-227z" />
    <glyph glyph-name="guilsinglleft" unicode="&#x2039;" horiz-adv-x="284" 
d="M32 283l123 169c15 21 32 28 58 26c31 -5 52 -25 34 -55l-95 -160c-5 -8 -5 -15 0 -22l95 -160c18 -30 -3 -51 -34 -54c-26 -3 -43 5 -58 27l-123 168c-15 18 -15 42 0 61z" />
    <glyph glyph-name="afii10061" unicode="&#x40c;" horiz-adv-x="567" 
d="M237 786l34 78c11 26 30 34 55 33c13 0 35 -2 46 -4c36 -8 40 -33 15 -58l-62 -70c-16 -19 -37 -24 -62 -17c-16 3 -37 11 -26 38zM197 658v-224c51 0 90 24 115 68s55 119 76 151c25 38 36 52 89 52c52 0 76 -19 50 -57c-22 -36 -49 -100 -87 -167
c-22 -36 -45 -74 -85 -92c52 -15 85 -65 104 -109c32 -77 56 -179 80 -226c22 -48 -7 -60 -61 -60c-43 0 -58 12 -71 38c-32 68 -43 143 -68 209c-24 68 -75 87 -142 79v-283c0 -37 -33 -45 -66 -45s-66 10 -66 45v621c0 37 33 47 66 47s66 -10 66 -47z" />
    <glyph glyph-name="afii10060" unicode="&#x40b;" horiz-adv-x="746" 
d="M574 235c0 94 -49 126 -113 128c-51 2 -110 -15 -159 -43v-283c0 -37 -33 -45 -65 -45c-35 0 -67 10 -67 45v543h-128c-33 0 -42 30 -42 61c0 30 9 59 42 59h387c33 0 43 -29 43 -59c0 -31 -10 -61 -43 -61h-127v-154c49 26 103 39 156 39c155 4 248 -83 248 -233v-195
c0 -37 -33 -45 -66 -45c-34 0 -66 10 -66 45v198z" />
    <glyph glyph-name="afii10145" unicode="&#x40f;" horiz-adv-x="613" 
d="M449 0h-88v-144c0 -30 -28 -38 -54 -38c-27 0 -57 8 -57 38v144h-87c-51 0 -98 13 -98 89v575c0 36 33 46 66 46c32 0 66 -10 66 -46v-526c0 -13 5 -16 16 -16h186c11 0 16 3 16 16v526c0 36 34 46 67 46c32 0 66 -10 66 -46v-575c0 -76 -48 -89 -99 -89z" />
    <glyph glyph-name="afii10099" unicode="&#x452;" horiz-adv-x="573" 
d="M209 656v-10h89c22 0 28 -19 28 -39s-6 -41 -28 -41h-89v-89c45 44 99 58 141 58c105 0 168 -55 168 -178v-417c0 -100 -73 -136 -136 -138c-73 0 -95 30 -94 62c2 18 18 33 38 33c49 -2 57 11 57 51v380c0 37 -6 86 -58 86c-94 0 -116 -83 -116 -153v-224
c0 -37 -35 -47 -67 -47c-36 0 -68 10 -68 47v529h-46c-22 0 -28 21 -28 41s6 39 28 39h46v10c0 39 32 49 68 49c32 0 67 -10 67 -49z" />
    <glyph glyph-name="trademark" unicode="&#x2122;" horiz-adv-x="839" 
d="M515 352l-58 145v-142c0 -26 -20 -40 -45 -40s-46 16 -46 40v304c0 30 20 46 49 46s49 -10 58 -34l97 -241l97 241c9 24 31 34 59 34c31 0 48 -16 48 -46v-304c0 -24 -20 -40 -44 -40c-27 0 -47 14 -47 40v144l-59 -147c-8 -23 -27 -35 -54 -37c-26 0 -46 16 -55 37z
M61 700h238c30 0 43 -17 43 -41c0 -22 -15 -41 -43 -41h-77v-261c0 -28 -20 -40 -47 -40c-25 0 -48 15 -48 40v261h-66c-25 0 -41 19 -41 41c0 24 14 41 41 41z" />
    <glyph glyph-name="afii10106" unicode="&#x459;" horiz-adv-x="773" 
d="M478 238v-115c0 -12 3 -20 16 -20h74c30 0 60 20 60 67s-30 68 -60 68h-90zM478 420v-78h113c143 0 172 -106 172 -172c0 -65 -38 -170 -172 -170h-159c-70 0 -89 43 -89 98v292c0 12 -5 20 -18 20h-76c-14 0 -18 -8 -18 -20c-7 -59 -7 -150 -17 -225
c-13 -101 -45 -176 -147 -176c-39 0 -55 16 -56 54c-4 38 14 57 35 60c16 2 37 15 42 46c13 79 14 217 19 271c4 55 25 98 94 98h186c71 0 91 -43 91 -98z" />
    <glyph glyph-name="guilsinglright" unicode="&#x203a;" horiz-adv-x="285" 
d="M254 283c14 -19 14 -43 0 -61l-123 -168c-15 -22 -35 -30 -59 -27c-31 3 -52 24 -35 54l95 160c3 7 5 14 0 22l-95 160c-17 30 4 50 35 55c24 2 44 -5 59 -26z" />
    <glyph glyph-name="afii10107" unicode="&#x45a;" horiz-adv-x="792" 
d="M497 235v-112c0 -12 3 -20 17 -20h75c27 0 59 20 59 67s-32 65 -59 65h-92zM362 98v137h-163v-198c0 -37 -32 -47 -67 -47c-32 0 -67 10 -67 47v444c0 37 35 47 67 47c35 0 67 -10 67 -47v-142h163v142c0 37 34 47 67 47c34 0 68 -10 68 -47v-142h113
c144 0 172 -103 172 -169c0 -65 -36 -170 -172 -170h-158c-69 0 -90 43 -90 98z" />
    <glyph glyph-name="afii10109" unicode="&#x45c;" horiz-adv-x="511" 
d="M219 608l34 76c12 24 29 32 55 31c12 0 28 0 39 -4c35 -6 38 -28 15 -55l-59 -68c-16 -17 -32 -24 -56 -19c-18 3 -39 13 -28 39zM198 481v-145c76 14 94 79 137 145c22 34 50 51 96 47c40 -2 75 -23 48 -59c-45 -62 -81 -158 -141 -182c106 -29 108 -159 147 -244
c14 -30 3 -49 -44 -54c-43 -3 -81 9 -94 54c-33 111 -44 181 -149 177v-183c0 -37 -33 -47 -66 -47s-67 10 -67 47v444c0 37 34 47 67 47s66 -10 66 -47z" />
    <glyph glyph-name="afii10108" unicode="&#x45b;" horiz-adv-x="583" 
d="M218 656v-10h89c24 0 31 -19 31 -39s-7 -41 -31 -41h-89v-89c47 44 99 58 141 58c106 0 169 -55 169 -178v-320c0 -37 -34 -47 -69 -47c-32 0 -67 10 -67 47v291c0 37 -5 86 -58 86c-92 0 -116 -83 -116 -153v-224c0 -37 -33 -47 -67 -47s-68 10 -68 47v529h-44
c-23 0 -29 21 -29 41s6 39 29 39h44v10c0 39 34 49 68 49s67 -10 67 -49z" />
    <glyph glyph-name="afii10193" unicode="&#x45f;" horiz-adv-x="559" 
d="M494 98c0 -55 -20 -98 -90 -98h-63v-95c0 -35 -30 -43 -62 -43c-30 0 -60 8 -60 43v95h-64c-70 0 -90 43 -90 98v383c0 37 34 47 68 47s67 -10 67 -47v-353c0 -11 5 -20 17 -20h125c13 0 18 9 18 20v353c0 37 33 47 67 47c33 0 67 -10 67 -47v-383z" />
    <glyph glyph-name="logicalnot" unicode="&#xac;" horiz-adv-x="547" 
d="M411 507c48 0 86 -18 86 -81v-177c0 -33 -24 -41 -48 -41c-23 0 -47 8 -47 41v135c0 14 -8 17 -18 17h-305c-34 0 -44 22 -44 52c0 32 10 54 44 54h332z" />
    <glyph glyph-name="currency" unicode="&#xa4;" horiz-adv-x="606" 
d="M355 384c53 0 86 44 86 101c0 55 -31 95 -86 95h-112c-11 0 -17 -5 -17 -17v-179h129zM375 217c41 0 52 -29 52 -60c0 -29 -11 -59 -52 -59h-149v-61c0 -35 -33 -45 -65 -45c-34 0 -68 10 -68 45v61h-21c-41 0 -52 30 -52 59c0 31 9 60 52 60h21v49h-21
c-41 0 -52 29 -52 60c0 29 9 58 52 58h21v228c0 77 48 88 98 88h177c121 0 213 -88 213 -215c0 -130 -91 -219 -213 -219h-142v-49h149z" />
    <glyph glyph-name="oe" unicode="&#x153;" horiz-adv-x="848" 
d="M603 428c-57 0 -91 -41 -98 -104h165c8 0 18 7 16 23c-3 52 -35 81 -83 81zM365 261c0 73 -12 164 -101 164s-99 -91 -99 -164c0 -76 11 -168 99 -168s101 92 101 168zM799 118c-26 -86 -100 -132 -198 -131c-81 0 -137 31 -175 81c-26 -44 -83 -78 -162 -78
c-169 0 -229 111 -229 271c0 156 60 267 229 267c79 0 131 -29 161 -73c38 47 92 77 173 77c138 0 216 -87 214 -215c0 -68 -29 -87 -89 -87h-222c1 -65 22 -135 103 -135c44 0 63 20 81 54c9 18 36 26 73 22c44 -4 47 -33 41 -53z" />
    <glyph glyph-name="OE" unicode="&#x152;" horiz-adv-x="926" 
d="M468 350c0 110 -18 245 -149 245c-130 0 -148 -135 -148 -245c0 -109 20 -244 148 -244c129 0 149 135 149 244zM627 580c-12 0 -18 -5 -18 -17v-141h204c33 0 41 -29 41 -61c0 -29 -8 -58 -41 -58h-204v-165c0 -13 6 -16 18 -16h224c32 0 40 -32 40 -62
c0 -31 -8 -60 -40 -60h-276c-44 0 -82 8 -94 56c-44 -40 -103 -66 -172 -66c-199 0 -274 148 -274 360c0 214 75 361 279 361c67 0 126 -25 167 -65c12 46 50 54 94 54h276c32 0 40 -29 40 -59c0 -31 -8 -61 -40 -61h-224z" />
    <glyph glyph-name="afii10050" unicode="&#x490;" horiz-adv-x="479" 
d="M215 580c-12 0 -17 -5 -17 -17v-526c0 -35 -34 -45 -67 -45s-66 10 -66 45v575c0 77 48 88 99 88h175c20 0 27 8 27 31v128c0 30 25 38 51 38c27 0 52 -8 52 -38v-183c0 -72 -41 -96 -102 -96h-152z" />
    <glyph glyph-name="afii10098" unicode="&#x491;" horiz-adv-x="433" 
d="M65 420c0 55 20 98 89 98h150c11 0 19 2 19 22v135c0 27 27 32 48 32c19 0 47 -7 47 -32v-171c0 -78 -38 -94 -91 -94h-111c-14 0 -18 -8 -18 -20v-353c0 -37 -33 -47 -66 -47c-34 0 -67 10 -67 47v383z" />
    <glyph glyph-name="ellipsis" unicode="&#x2026;" horiz-adv-x="880" 
d="M738 146c63 0 77 -29 77 -76c0 -46 -14 -78 -77 -78c-64 0 -75 30 -75 78c0 47 15 76 75 76zM441 146c60 0 75 -29 75 -76c0 -46 -13 -78 -75 -78c-64 0 -77 30 -77 78c0 47 16 76 77 76zM142 146c62 0 74 -29 74 -76c0 -46 -12 -78 -74 -78c-64 0 -77 30 -77 78
c0 47 16 76 77 76z" />
    <glyph glyph-name="circumflex" unicode="&#x2c6;" horiz-adv-x="367" 
d="M145 700h76c19 0 26 -3 40 -17l57 -75c21 -23 19 -44 -16 -52c-19 -5 -40 -1 -55 13l-65 60l-62 -60c-16 -14 -37 -18 -56 -13c-33 8 -36 29 -17 52l61 75c12 14 18 17 37 17z" />
    <glyph glyph-name="Oslash" unicode="&#xd8;" horiz-adv-x="671" 
d="M480 434l-252 -274c23 -31 58 -54 106 -54c130 0 151 135 151 244c0 29 -2 55 -5 84zM193 270l251 270c-22 34 -55 55 -110 55c-129 0 -144 -137 -144 -245c0 -26 0 -55 3 -80zM52 350c0 215 73 362 282 362c93 0 154 -26 201 -72l64 67c18 21 42 9 61 -7
c18 -17 29 -39 12 -61l-82 -88c21 -56 31 -122 31 -201c0 -213 -72 -359 -287 -359c-88 0 -151 25 -197 70l-62 -66c-20 -20 -44 -9 -62 7c-20 15 -33 39 -11 62l81 86c-22 55 -31 124 -31 200z" />
    <glyph glyph-name="Thorn" unicode="&#xde;" horiz-adv-x="601" 
d="M360 468h-188v-220h188c58 0 100 46 100 110c0 62 -42 110 -100 110zM50 32v632c0 36 30 44 61 44c28 0 61 -8 61 -44v-99h192c128 0 217 -87 217 -207c0 -122 -89 -211 -217 -211h-192v-115c0 -34 -33 -44 -61 -44c-31 0 -61 10 -61 44z" />
    <glyph glyph-name="germandbls" unicode="&#xdf;" horiz-adv-x="580" 
d="M65 -9v515c0 126 72 209 216 209c105 -1 197 -68 194 -172c-2 -72 -35 -107 -93 -132c-14 -6 -15 -20 6 -25c105 -31 172 -79 171 -197c-3 -113 -77 -197 -199 -197c-50 -1 -110 19 -135 55c-19 26 -13 52 2 70c15 15 35 27 65 9c18 -10 33 -20 58 -19c50 5 73 44 73 92
c-1 61 -46 74 -92 94c-14 7 -28 12 -44 18c-42 21 -70 52 -66 100c1 22 16 38 41 47c41 16 85 26 85 84c-1 45 -30 61 -74 61c-70 0 -82 -50 -82 -103v-505c0 -40 -16 -66 -65 -65c-40 1 -61 24 -61 61z" />
    <glyph glyph-name="acute" unicode="&#xb4;" horiz-adv-x="232" 
d="M54 596l35 74c10 22 26 30 53 30c13 0 27 0 39 -2c37 -7 38 -32 15 -58l-59 -67c-15 -16 -34 -22 -58 -17c-17 2 -36 12 -25 40z" />
    <glyph glyph-name="grave" unicode="`" horiz-adv-x="221" 
d="M192 596c12 -28 -8 -38 -24 -40c-26 -5 -43 1 -58 17l-60 67c-22 26 -19 51 15 58c10 2 27 2 40 2c26 0 44 -8 55 -30z" />
    <glyph glyph-name="caron" unicode="&#x2c7;" horiz-adv-x="341" 
d="M111 580l-72 72c-15 16 -10 32 8 41c14 10 40 9 59 -4l62 -46l67 46c16 13 44 14 60 4c16 -9 21 -25 8 -41l-73 -72c-19 -17 -36 -21 -62 -21c-25 0 -40 4 -57 21z" />
    <glyph glyph-name="dieresis" unicode="&#xa8;" horiz-adv-x="340" 
d="M252 700c47 0 63 -24 63 -60c0 -37 -14 -59 -63 -59c-43 0 -59 22 -59 59c0 36 16 60 59 60zM85 700c45 0 59 -24 59 -60c0 -37 -13 -59 -59 -59c-47 0 -60 22 -60 59c0 36 13 60 60 60z" />
    <glyph glyph-name="tilde" unicode="&#x2dc;" horiz-adv-x="407" 
d="M97 585c-10 -13 -21 -25 -44 -14c-18 3 -24 25 -22 40c5 27 23 49 38 61c18 15 43 24 68 24c69 0 87 -48 132 -48c24 0 35 15 42 30c6 18 24 21 41 18c18 -5 29 -17 23 -36c-13 -56 -37 -89 -96 -89c-60 0 -87 45 -140 45c-14 0 -30 -6 -42 -31z" />
    <glyph glyph-name="ring" unicode="&#x2da;" horiz-adv-x="240" 
d="M120 648c-22 0 -39 -18 -39 -39c0 -22 17 -37 39 -37s39 15 39 37c0 21 -17 39 -39 39zM120 700c53 0 90 -40 90 -91c0 -49 -37 -89 -90 -89c-50 0 -90 40 -90 89c0 51 40 91 90 91z" />
    <glyph glyph-name="ae" unicode="&#xe6;" horiz-adv-x="823" 
d="M337 237c-57 4 -176 13 -171 -79c1 -34 32 -61 74 -61c69 0 105 66 97 140zM575 430c-58 0 -90 -42 -95 -106h163c6 0 19 7 19 21c-6 54 -38 85 -87 85zM215 -10c-90 5 -180 60 -180 161c0 175 169 192 302 184c1 69 -39 90 -81 92c-54 0 -78 -13 -124 -33
c-24 -8 -45 -8 -62 11c-22 28 -23 62 10 79c57 36 112 48 177 48c66 0 125 -17 164 -63c26 39 85 62 150 62c135 0 217 -86 217 -213c-4 -67 -34 -86 -92 -86h-224c7 -66 24 -137 107 -137c42 0 62 21 79 52c13 21 36 28 72 26c44 -5 48 -36 42 -55
c-25 -84 -100 -132 -198 -130c-72 0 -132 24 -166 76c-47 -53 -125 -80 -193 -74z" />
    <glyph glyph-name="ccedilla" unicode="&#xe7;" horiz-adv-x="509" 
d="M35 260c0 156 59 268 228 268c115 0 193 -60 207 -147c4 -42 -16 -57 -61 -57c-32 0 -53 8 -59 36c-12 42 -37 67 -87 67c-89 0 -99 -94 -99 -167c0 -75 11 -167 99 -167c47 0 71 25 89 64c12 28 34 36 64 38c38 3 65 -15 56 -51c-19 -84 -79 -142 -177 -152l-6 -15
c51 0 100 -19 100 -78c2 -37 -15 -63 -49 -82c-21 -9 -44 -13 -69 -13c-23 0 -60 4 -83 13c-19 10 -27 24 -22 47c5 19 24 32 47 21c14 -10 36 -14 56 -14c24 1 38 14 38 26c0 21 -21 26 -38 26c-12 1 -25 0 -35 -1c-23 -3 -38 16 -29 39l13 32c-134 19 -183 124 -183 267z
" />
    <glyph glyph-name="eth" unicode="&#xf0;" horiz-adv-x="546" 
d="M368 241c0 72 -20 158 -100 158c-92 0 -100 -86 -100 -158c0 -67 11 -156 100 -156c87 0 100 89 100 156zM35 241c0 150 66 253 222 253c38 0 70 -11 99 -26c-16 39 -41 72 -70 104l-97 -51c-20 -6 -34 9 -41 23c-8 21 -10 38 7 46l65 35c-19 11 -35 19 -49 24
c-23 12 -17 39 4 58c18 13 44 19 69 11c33 -11 62 -23 88 -40l66 29c21 11 32 -4 40 -20c9 -18 12 -38 -8 -47l-34 -15c80 -94 109 -227 104 -351c-9 -152 -44 -283 -232 -283c-157 0 -233 104 -233 250z" />
    <glyph glyph-name="divide" unicode="&#xf7;" horiz-adv-x="514" 
d="M258 239c43 0 59 -25 59 -59c0 -36 -15 -62 -59 -62c-47 0 -59 26 -59 62c0 34 13 59 59 59zM258 540c43 0 59 -22 59 -58c0 -34 -15 -61 -59 -61c-47 0 -59 27 -59 61c0 36 13 58 59 58zM75 381h364c32 0 40 -26 40 -50s-8 -51 -40 -51h-364c-33 0 -40 27 -40 51
s7 50 40 50z" />
    <glyph glyph-name="oslash" unicode="&#xf8;" horiz-adv-x="545" 
d="M175 216l156 190c-16 13 -32 21 -58 21c-90 0 -101 -94 -101 -167c0 -12 0 -27 3 -44zM371 304l-155 -192c15 -12 33 -19 57 -19c87 0 99 92 99 167c0 13 0 26 -1 44zM45 260c0 156 56 268 228 268c54 0 97 -11 129 -33l23 26c17 22 46 15 64 -1c18 -14 30 -38 11 -62
l-30 -37c21 -42 31 -98 31 -161c0 -159 -61 -269 -228 -269c-54 0 -98 11 -131 31l-22 -24c-19 -21 -45 -16 -63 0c-20 14 -31 40 -12 59l30 40c-22 44 -30 101 -30 163z" />
    <glyph glyph-name="thorn" unicode="&#xfe;" horiz-adv-x="567" 
d="M199 285v-44c0 -63 27 -149 98 -149c82 0 92 93 92 168s-10 169 -92 169c-67 0 -98 -79 -98 -144zM65 -138v794c0 41 33 51 67 51c33 0 67 -10 67 -51v-162c27 23 70 37 110 37c162 0 223 -111 223 -271s-68 -270 -223 -270c-40 0 -83 9 -110 35v-163
c0 -39 -34 -50 -67 -50c-34 0 -67 11 -67 50z" />
    <glyph glyph-name="exclamdown" unicode="&#xa1;" horiz-adv-x="264" 
d="M132 -187c-44 0 -79 16 -76 62l30 420c2 28 23 36 46 36c25 0 44 -8 46 -36l30 -420c3 -46 -32 -62 -76 -62zM132 384c-59 0 -75 29 -75 73c0 41 11 73 75 73c60 0 75 -32 75 -73c0 -44 -15 -73 -75 -73z" />
    <glyph glyph-name="cent" unicode="&#xa2;" horiz-adv-x="508" 
d="M217 -6l-41 -143c-6 -23 -32 -31 -50 -28c-25 1 -39 15 -30 47l44 148c-77 43 -105 129 -105 241c0 158 59 270 229 270h20l46 154c4 21 25 25 45 24c28 0 37 -21 29 -46l-42 -152c59 -25 98 -68 106 -129c4 -41 -12 -55 -60 -55c-30 0 -51 7 -62 34c-3 17 -7 29 -15 37
l-83 -301c3 -1 9 -1 16 -1c46 0 70 24 89 63c9 28 32 36 61 38c42 2 65 -16 57 -51c-21 -93 -90 -152 -207 -152c-15 0 -34 1 -47 2zM177 153l79 274c-82 -7 -93 -95 -93 -168c0 -34 4 -74 14 -106z" />
    <glyph glyph-name="sterling" unicode="&#xa3;" horiz-adv-x="574" 
d="M371 298h-90c7 -63 -12 -110 -46 -160c34 3 74 0 108 -9c60 -19 91 -21 131 2c35 16 65 7 82 -28c14 -29 7 -58 -17 -78c-34 -26 -73 -33 -112 -33c-58 0 -101 25 -156 35c-58 15 -94 -6 -149 -29c-33 -19 -63 4 -77 28c-19 33 -10 66 22 84c64 42 89 141 82 188h-27
c-33 0 -53 27 -53 59c0 27 15 56 49 56c-8 37 -20 71 -18 114c9 127 103 187 223 187c121 0 195 -59 209 -162c7 -35 -6 -65 -44 -69c-35 -4 -72 9 -80 40c-10 43 -22 76 -88 76c-61 -2 -84 -34 -85 -76c-7 -37 11 -76 17 -109h119c33 0 53 -25 53 -57s-20 -59 -53 -59z" />
    <glyph glyph-name="yen" unicode="&#xa5;" horiz-adv-x="524" 
d="M197 228h-102c-40 0 -49 28 -49 52c0 29 9 55 49 55h100l-183 314c-20 37 11 55 40 57c54 1 77 -11 97 -51l115 -210l114 210c20 40 48 52 104 51c24 -2 50 -15 28 -53l-179 -318h99c40 0 52 -26 52 -55c0 -24 -13 -52 -52 -52h-99v-41h99c40 0 52 -29 52 -55
c0 -28 -13 -56 -52 -56h-99v-37c0 -39 -34 -46 -67 -46c-36 0 -67 9 -67 46v37h-102c-40 0 -49 28 -49 56c0 26 9 55 49 55h102v41z" />
    <glyph glyph-name="brokenbar" unicode="&#xa6;" horiz-adv-x="232" 
d="M167 133v-290c0 -38 -28 -45 -54 -45c-22 0 -48 7 -48 45v290c0 35 26 44 48 44c26 0 54 -9 54 -44zM167 667v-291c0 -38 -28 -44 -54 -44c-22 0 -48 6 -48 44v291c0 35 26 41 48 41c26 0 54 -6 54 -41z" />
    <glyph glyph-name="degree" unicode="&#xb0;" horiz-adv-x="365" 
d="M183 649c-39 0 -67 -29 -67 -65c0 -39 28 -68 67 -68c36 0 69 29 69 68c0 36 -33 65 -69 65zM183 716c73 0 132 -62 132 -132c0 -75 -59 -134 -132 -134c-71 0 -133 59 -133 134c0 70 62 132 133 132z" />
    <glyph glyph-name="plusminus" unicode="&#xb1;" horiz-adv-x="567" 
d="M340 597v-153h155c29 0 37 -27 37 -54c0 -29 -8 -57 -37 -57h-155v-156c0 -31 -28 -38 -55 -38c-28 0 -57 7 -57 38v156h-154c-30 0 -39 28 -39 57c0 27 10 54 39 54h154v153c0 31 29 42 57 42c27 0 55 -11 55 -42zM495 0h-421c-30 0 -39 27 -39 56c0 27 10 53 39 53h421
c29 0 37 -26 37 -53c0 -29 -8 -56 -37 -56z" />
    <glyph glyph-name="twosuperior" unicode="&#xb2;" horiz-adv-x="344" 
d="M266 343h-183c-26 0 -48 16 -48 46c0 61 108 113 152 154c15 17 24 33 24 50c0 20 -14 38 -43 38s-37 -18 -43 -34c-5 -22 -29 -28 -49 -25c-19 1 -39 12 -37 38c5 66 67 104 130 104c75 0 133 -44 133 -121c-1 -84 -90 -123 -143 -164h107c27 0 43 -18 43 -45
c0 -25 -16 -41 -43 -41z" />
    <glyph glyph-name="threesuperior" unicode="&#xb3;" horiz-adv-x="326" 
d="M80 700h164c29 0 43 -16 43 -39c0 -13 -9 -26 -14 -35l-64 -58c49 -15 92 -52 92 -106c0 -80 -54 -130 -135 -130c-53 0 -102 21 -126 70c-11 22 0 42 16 51c17 10 42 10 55 -9c13 -23 38 -32 56 -32c22 0 43 15 43 44c2 44 -39 46 -70 38c-18 -2 -36 4 -44 22
c-9 15 -6 34 8 49l49 52h-73c-24 0 -37 16 -37 38c0 27 13 45 37 45z" />
    <glyph glyph-name="mu" unicode="&#xb5;" horiz-adv-x="595" 
d="M404 50c-23 -43 -64 -59 -105 -59c-43 0 -85 23 -105 60v-182c0 -34 -27 -56 -61 -56c-35 0 -68 22 -68 56v610c0 37 33 52 68 52c34 0 61 -15 61 -52v-206c0 -111 53 -173 106 -173c82 0 104 111 104 176v203c0 37 27 52 62 52c33 0 64 -15 64 -52v-437
c0 -37 -27 -54 -58 -54c-44 0 -66 23 -68 62z" />
    <glyph glyph-name="mu" unicode="&#x3bc;" horiz-adv-x="595" 
d="M404 50c-23 -43 -64 -59 -105 -59c-43 0 -85 23 -105 60v-182c0 -34 -27 -56 -61 -56c-35 0 -68 22 -68 56v610c0 37 33 52 68 52c34 0 61 -15 61 -52v-206c0 -111 53 -173 106 -173c82 0 104 111 104 176v203c0 37 27 52 62 52c33 0 64 -15 64 -52v-437
c0 -37 -27 -54 -58 -54c-44 0 -66 23 -68 62z" />
    <glyph glyph-name="periodcentered" unicode="&#xb7;" horiz-adv-x="327" 
d="M163 278c-60 0 -73 30 -73 73c0 41 13 73 73 73c63 0 74 -32 74 -73c0 -43 -15 -73 -74 -73z" />
    <glyph glyph-name="cedilla" unicode="&#xb8;" horiz-adv-x="294" 
d="M172 6l-14 -30c56 -1 109 -19 111 -82c0 -43 -20 -70 -55 -89c-22 -10 -48 -14 -73 -14c-26 0 -69 4 -93 15c-15 8 -27 23 -21 49c7 18 27 35 51 20c15 -6 37 -12 61 -12c25 0 36 12 36 27c0 22 -17 27 -37 28c-15 0 -30 -1 -37 -1c-29 -3 -41 15 -31 42l15 47h87z" />
    <glyph glyph-name="onesuperior" unicode="&#xb9;" horiz-adv-x="273" 
d="M223 663v-287c0 -29 -21 -41 -44 -41c-27 0 -47 12 -47 41v220l-33 -20c-26 -13 -50 -3 -61 15c-7 20 -1 42 26 56l79 50c17 10 40 11 58 5c14 -7 22 -20 22 -39z" />
    <glyph glyph-name="ordmasculine" unicode="&#xba;" horiz-adv-x="409" 
d="M374 520c0 -53 -14 -101 -44 -136c-28 -30 -69 -51 -124 -51c-56 0 -98 21 -126 51c-33 35 -45 83 -45 136c0 52 13 99 45 134c28 31 70 53 126 53c55 0 96 -22 124 -53c30 -35 44 -82 44 -134zM131 520c0 -27 7 -59 21 -80c12 -16 28 -26 54 -26c24 0 40 10 50 26
c19 21 22 53 22 80c0 26 -3 59 -22 79c-10 16 -26 26 -50 26c-26 0 -43 -10 -54 -26c-14 -20 -21 -53 -21 -79z" />
    <glyph glyph-name="onequarter" unicode="&#xbc;" horiz-adv-x="727" 
d="M225 663v-287c0 -29 -21 -41 -47 -41c-25 0 -48 12 -48 41v220l-31 -20c-27 -13 -50 -3 -59 15c-10 20 -1 42 21 56l82 50c16 10 40 11 58 5c15 -7 24 -20 24 -39zM649 315v-170c26 0 43 -14 43 -41c0 -24 -17 -40 -43 -40v-39c0 -26 -21 -37 -47 -37
c-24 0 -45 11 -45 37v39h-121c-40 0 -54 40 -32 69l129 190c15 20 33 34 62 34s54 -13 54 -42zM557 214l-49 -69h49v69zM593 663l-385 -650c-11 -22 -34 -36 -60 -36c-30 0 -53 19 -35 49l382 653c13 25 32 37 58 37c34 0 59 -19 40 -53z" />
    <glyph glyph-name="onehalf" unicode="&#xbd;" horiz-adv-x="770" 
d="M593 663l-383 -650c-14 -22 -34 -36 -60 -36c-34 0 -55 19 -36 49l381 653c13 25 32 37 57 37c35 0 59 -19 41 -53zM698 0h-186c-28 0 -47 18 -47 45c0 62 108 113 153 157c16 14 23 32 23 49c0 19 -13 36 -45 36c-25 0 -36 -16 -41 -33c-6 -20 -29 -28 -49 -26
c-22 4 -40 14 -39 37c2 68 68 108 133 105c75 0 132 -41 132 -119c0 -83 -89 -121 -143 -167h109c24 0 37 -18 37 -41c0 -25 -14 -43 -37 -43zM224 663v-287c0 -29 -24 -41 -47 -41c-24 0 -48 12 -48 41v220l-32 -20c-27 -13 -49 -3 -58 15c-9 20 -2 42 25 56l81 50
c14 10 38 11 54 5c17 -7 25 -20 25 -39z" />
    <glyph glyph-name="threequarters" unicode="&#xbe;" horiz-adv-x="753" 
d="M676 315v-170c26 0 42 -14 42 -41c0 -24 -16 -40 -42 -40v-39c0 -26 -24 -37 -48 -37s-47 11 -47 37v39h-120c-36 0 -54 40 -33 69l129 190c16 20 35 34 64 34c28 0 55 -13 55 -42zM581 214l-48 -69h48v69zM626 663l-382 -650c-14 -22 -35 -36 -62 -36
c-33 0 -53 19 -37 49l383 653c15 25 31 37 58 37c31 0 57 -19 40 -53zM85 700h163c24 0 43 -16 43 -39c0 -13 -11 -26 -19 -35l-63 -58c54 -15 97 -52 97 -106c0 -80 -57 -130 -140 -130c-52 0 -102 21 -127 70c-10 22 1 42 18 51c16 10 40 10 54 -9c15 -23 37 -32 58 -32
c25 0 43 15 43 44c0 44 -40 46 -70 38c-20 -2 -36 4 -46 22c-10 15 -5 34 8 49l48 52h-67c-24 0 -42 16 -42 38c0 27 18 45 42 45z" />
    <glyph glyph-name="questiondown" unicode="&#xbf;" horiz-adv-x="484" 
d="M258 384c-59 0 -73 29 -73 73c0 41 14 73 73 73c62 0 76 -32 76 -73c0 -44 -16 -73 -76 -73zM459 -84c-45 -68 -118 -100 -202 -102c-54 -1 -114 14 -158 49c-50 39 -78 97 -73 162c3 73 48 120 104 165c36 35 61 64 83 108c12 23 33 31 57 27c27 -4 43 -16 41 -45
c-8 -70 -61 -118 -104 -164c-25 -28 -50 -60 -50 -98c0 -58 49 -95 104 -95c48 0 86 22 115 56c18 26 49 26 73 0c21 -15 26 -44 10 -63z" />
    <glyph glyph-name="Aring" unicode="&#xc5;" horiz-adv-x="604" 
d="M304 810c-27 0 -47 -19 -47 -44c0 -24 20 -45 47 -45c24 0 44 21 44 45c0 25 -20 44 -44 44zM304 855c49 0 86 -41 86 -89c0 -24 -10 -49 -26 -64l221 -661c17 -42 -25 -47 -60 -47c-32 0 -58 5 -73 47l-38 119h-221l-40 -119c-14 -42 -41 -47 -73 -47
c-33 0 -74 5 -62 47l221 663c-15 15 -25 38 -25 62c0 48 39 89 90 89zM231 276h145l-50 148c-13 38 -16 55 -22 94c-9 -39 -12 -56 -25 -94z" />
    <glyph glyph-name="AE" unicode="&#xc6;" horiz-adv-x="891" 
d="M273 276h164v304c-12 0 -24 0 -35 -21zM811 580h-223c-11 0 -16 -5 -16 -17v-142h201c33 0 44 -29 44 -60c0 -29 -11 -58 -44 -58h-201v-165c0 -15 5 -18 16 -18h223c35 0 45 -32 45 -59c0 -33 -10 -61 -45 -61h-277c-48 0 -97 14 -97 86v74h-216l-53 -119
c-21 -42 -58 -47 -88 -47c-36 0 -79 5 -60 47l266 572c31 69 79 87 148 87h377c35 0 45 -30 45 -60c0 -29 -10 -60 -45 -60z" />
    <glyph glyph-name="Ccedilla" unicode="&#xc7;" horiz-adv-x="595" 
d="M35 351c0 214 70 360 285 360c159 0 233 -96 245 -224c3 -29 -30 -46 -64 -46c-36 0 -63 6 -69 41c-17 76 -42 114 -120 114c-125 0 -145 -137 -145 -245c0 -109 21 -245 145 -245c81 0 103 52 121 115c8 29 30 42 71 42c48 0 71 -16 64 -61c-20 -103 -88 -203 -236 -210
l-8 -16c55 -1 109 -19 109 -82c0 -43 -18 -70 -54 -89c-21 -10 -45 -14 -71 -14c-27 0 -68 4 -91 15c-19 8 -29 23 -23 49c5 18 25 35 47 20c21 -6 43 -12 65 -12c24 0 37 12 37 27c0 22 -20 27 -43 28c-11 0 -25 -1 -31 -1c-30 -3 -44 15 -36 42l14 37
c-156 26 -212 166 -212 355z" />
    <glyph glyph-name="Eth" unicode="&#xd0;" horiz-adv-x="639" 
d="M88 411v200c0 75 50 89 99 89h139c198 0 278 -163 278 -349c0 -188 -79 -351 -278 -351h-139c-49 0 -99 14 -99 86v214h-36c-27 0 -37 29 -37 54c0 27 10 57 37 57h36zM242 580c-13 0 -21 -5 -21 -17v-152h118c31 0 39 -30 39 -57c0 -25 -8 -54 -39 -54h-118v-162
c0 -15 8 -18 21 -18h84c112 0 141 132 141 231c0 97 -30 229 -141 229h-84z" />
    <glyph glyph-name="multiply" unicode="&#xd7;" horiz-adv-x="470" 
d="M235 419l114 112c17 20 40 8 57 -8c15 -15 27 -40 9 -60l-113 -110l113 -114c18 -18 6 -40 -9 -59c-17 -15 -40 -27 -57 -6l-114 112l-112 -112c-19 -21 -43 -9 -61 6c-15 19 -26 41 -6 59l112 114l-112 110c-20 20 -9 45 6 60c18 16 42 28 61 8z" />
    <glyph glyph-name="_0127" horiz-adv-x="563" 
d="M281 436c-52 0 -95 -42 -95 -94c0 -54 43 -98 95 -98c53 0 97 44 97 98c0 52 -44 94 -97 94zM281 534c35 0 68 -9 94 -25l55 55c23 23 49 11 68 -8c18 -18 30 -43 6 -67l-55 -55c15 -27 24 -60 24 -92c0 -35 -9 -67 -24 -96l55 -53c24 -25 12 -49 -6 -67
c-20 -18 -45 -31 -68 -8l-55 55c-28 -14 -59 -24 -94 -24c-34 0 -65 10 -93 24l-55 -53c-24 -25 -48 -12 -66 6c-20 20 -31 44 -9 67l56 55c-16 27 -24 59 -24 94c0 32 8 65 24 92l-56 57c-22 22 -11 47 9 65c18 19 42 31 68 8l53 -55c28 16 59 25 93 25z" />
    <glyph glyph-name="afii10105" unicode="&#x458;" horiz-adv-x="280" 
d="M209 480v-496c0 -115 -80 -170 -196 -158c-36 4 -48 36 -48 69c0 40 19 57 62 57c44 0 48 38 48 59v469c0 38 34 48 67 48c34 0 67 -10 67 -48zM142 707c58 0 73 -26 73 -66c0 -39 -11 -70 -73 -70c-61 0 -73 31 -73 70c0 40 15 66 73 66z" />
    <glyph glyph-name="afii10054" unicode="&#x405;" horiz-adv-x="548" 
d="M143 196c20 -58 64 -94 123 -94c61 0 115 29 115 99c0 69 -76 87 -125 100c-108 28 -229 73 -229 213c0 128 112 198 226 198c111 0 215 -41 249 -167c8 -30 -13 -55 -51 -59c-27 -3 -61 -1 -74 31c-23 53 -52 80 -120 80c-47 0 -97 -21 -97 -82c1 -63 75 -80 118 -91
c112 -29 234 -71 235 -217c0 -138 -98 -221 -245 -221c-112 0 -224 57 -251 184c-7 34 12 56 43 63c34 8 70 -1 83 -37z" />
    <glyph glyph-name="afii10102" unicode="&#x455;" horiz-adv-x="475" 
d="M83 182c42 6 61 -10 71 -31c21 -41 55 -57 95 -57c32 0 71 17 73 55c0 39 -37 50 -111 65c-86 18 -173 52 -173 158c0 105 100 160 196 160c85 0 161 -31 189 -112c12 -36 -3 -52 -40 -57c-23 -3 -59 -5 -80 25c-17 25 -38 40 -70 40c-40 0 -70 -13 -70 -45
c0 -42 70 -53 99 -58c101 -19 188 -52 188 -163c0 -116 -96 -175 -200 -175c-90 0 -172 32 -208 121c-15 36 -5 66 41 74z" />
    <glyph glyph-name="afii10057" unicode="&#x408;" horiz-adv-x="424" 
d="M359 658v-478c0 -181 -179 -220 -317 -175c-35 12 -40 46 -34 78c6 30 30 51 59 41c34 -12 61 -14 82 -13c64 1 77 45 77 92v455c0 36 33 46 66 46s67 -10 67 -46z" />
    <glyph glyph-name="uni00AD" unicode="&#xad;" horiz-adv-x="350" 
d="M276 206h-203c-30 0 -38 28 -38 55c0 28 8 56 38 56h203c30 0 39 -28 39 -56c0 -27 -8 -55 -39 -55z" />
    <glyph glyph-name="quotesinglbase" unicode="&#x201a;" horiz-adv-x="275" 
d="M99 -149c-33 2 -47 22 -43 51l28 182c6 43 35 60 82 57c62 -4 74 -47 56 -90l-65 -162c-11 -27 -27 -40 -58 -38z" />
    <glyph glyph-name="quotedblbase" unicode="&#x201e;" horiz-adv-x="459" 
d="M283 -149c-34 2 -47 22 -43 51l28 182c6 43 35 60 82 57c62 -4 73 -47 56 -90l-65 -162c-11 -27 -27 -39 -58 -38zM99 -149c-33 2 -47 22 -43 51l28 182c6 43 35 60 82 57c62 -4 74 -47 56 -90l-65 -162c-10 -27 -27 -39 -58 -38z" />
    <glyph glyph-name="Scaron" unicode="&#x160;" horiz-adv-x="548" 
d="M143 196c20 -58 64 -94 123 -94c61 0 115 29 115 99c0 69 -76 87 -125 100c-108 28 -229 73 -229 213c0 128 112 198 226 198c111 0 215 -41 249 -167c8 -30 -13 -55 -51 -59c-27 -3 -61 -1 -74 31c-23 53 -52 80 -120 80c-47 0 -97 -21 -97 -82c1 -63 75 -80 118 -91
c112 -29 234 -71 235 -217c0 -138 -98 -221 -245 -221c-112 0 -224 57 -251 184c-7 34 12 56 43 63c34 8 70 -1 83 -37zM215 770l-72 72c-15 16 -10 32 8 41c14 10 40 9 59 -4l62 -46l67 46c16 13 44 14 60 4c16 -9 21 -25 8 -41l-73 -72c-19 -17 -36 -21 -62 -21
c-25 0 -40 4 -57 21z" />
    <glyph glyph-name="Zcaron" unicode="&#x17d;" horiz-adv-x="502" 
d="M424 0h-362c-36 0 -47 27 -47 59c0 20 4 41 15 59l238 395c19 32 30 49 43 67h-252c-34 0 -42 30 -42 60s9 60 42 60h361c36 0 47 -27 47 -59c0 -20 -5 -41 -15 -59l-235 -397c-18 -30 -28 -44 -45 -64h252c33 0 42 -31 42 -61s-9 -60 -42 -60zM192 770l-72 72
c-15 16 -10 32 8 41c14 10 40 9 59 -4l62 -46l67 46c16 13 44 14 60 4c16 -9 21 -25 8 -41l-73 -72c-19 -17 -36 -21 -62 -21c-25 0 -40 4 -57 21z" />
    <glyph glyph-name="scaron" unicode="&#x161;" horiz-adv-x="475" 
d="M83 182c42 6 61 -10 71 -31c21 -41 55 -57 95 -57c32 0 71 17 73 55c0 39 -37 50 -111 65c-86 18 -173 52 -173 158c0 105 100 160 196 160c85 0 161 -31 189 -112c12 -36 -3 -52 -40 -57c-23 -3 -59 -5 -80 25c-17 25 -38 40 -70 40c-40 0 -70 -13 -70 -45
c0 -42 70 -53 99 -58c101 -19 188 -52 188 -163c0 -116 -96 -175 -200 -175c-90 0 -172 32 -208 121c-15 36 -5 66 41 74zM188 590l-72 72c-15 16 -10 32 8 41c14 10 40 9 59 -4l62 -46l67 46c16 13 44 14 60 4c16 -9 21 -25 8 -41l-73 -72c-19 -17 -36 -21 -62 -21
c-25 0 -40 4 -57 21z" />
    <glyph glyph-name="zcaron" unicode="&#x17e;" horiz-adv-x="415" 
d="M73 518h274c38 0 48 -27 48 -54c0 -25 -4 -39 -18 -59l-160 -240c-13 -19 -29 -40 -49 -57h184c38 0 48 -27 48 -54s-10 -54 -48 -54h-287c-38 0 -50 22 -50 54c0 25 5 43 14 57l164 245c12 18 27 39 43 54h-163c-38 0 -48 27 -48 54s10 54 48 54zM148 590l-72 72
c-15 16 -10 32 8 41c14 10 40 9 59 -4l62 -46l67 46c16 13 44 14 60 4c16 -9 21 -25 8 -41l-73 -72c-19 -17 -36 -21 -62 -21c-25 0 -40 4 -57 21z" />
    <glyph glyph-name="Ydieresis" unicode="&#x178;" horiz-adv-x="523" 
d="M196 333l-184 318c-21 36 10 53 38 53c57 0 77 -10 97 -46l116 -213l115 213c20 36 46 46 101 46c28 0 52 -14 31 -51l-181 -320v-295c0 -37 -33 -47 -66 -47c-34 0 -67 10 -67 47v295zM343 870c47 0 63 -24 63 -60c0 -37 -14 -59 -63 -59c-43 0 -59 22 -59 59
c0 36 16 60 59 60zM176 870c45 0 59 -24 59 -60c0 -37 -13 -59 -59 -59c-47 0 -60 22 -60 59c0 36 13 60 60 60z" />
    <glyph glyph-name="Agrave" unicode="&#xc0;" horiz-adv-x="604" 
d="M373 277l-48 146c-13 40 -17 56 -23 96c-6 -40 -10 -56 -23 -96l-48 -146h142zM192 160l-39 -120c-14 -42 -42 -47 -75 -47s-74 6 -60 47l207 620c12 36 44 50 77 50s65 -14 77 -50l207 -620c14 -41 -27 -47 -60 -47s-61 5 -75 47l-39 120h-220zM348 786
c12 -28 -8 -38 -24 -40c-26 -5 -43 1 -58 17l-60 67c-22 26 -19 51 15 58c10 2 27 2 40 2c26 0 44 -8 55 -30z" />
    <glyph glyph-name="Aacute" unicode="&#xc1;" horiz-adv-x="604" 
d="M373 277l-48 146c-13 40 -17 56 -23 96c-6 -40 -10 -56 -23 -96l-48 -146h142zM192 160l-39 -120c-14 -42 -42 -47 -75 -47s-74 6 -60 47l207 620c12 36 44 50 77 50s65 -14 77 -50l207 -620c14 -41 -27 -47 -60 -47s-61 5 -75 47l-39 120h-220zM265 786l35 74
c10 22 26 30 53 30c13 0 27 0 39 -2c37 -7 38 -32 15 -58l-59 -67c-15 -16 -34 -22 -58 -17c-17 2 -36 12 -25 40z" />
    <glyph glyph-name="Acircumflex" unicode="&#xc2;" horiz-adv-x="604" 
d="M373 277l-48 146c-13 40 -17 56 -23 96c-6 -40 -10 -56 -23 -96l-48 -146h142zM192 160l-39 -120c-14 -42 -42 -47 -75 -47s-74 6 -60 47l207 620c12 36 44 50 77 50s65 -14 77 -50l207 -620c14 -41 -27 -47 -60 -47s-61 5 -75 47l-39 120h-220zM263 890h76
c19 0 26 -3 40 -17l57 -75c21 -23 19 -44 -16 -52c-19 -5 -40 -1 -55 13l-65 60l-62 -60c-16 -14 -37 -18 -56 -13c-33 8 -36 29 -17 52l61 75c12 14 18 17 37 17z" />
    <glyph glyph-name="Atilde" unicode="&#xc3;" horiz-adv-x="604" 
d="M373 277l-48 146c-13 40 -17 56 -23 96c-6 -40 -10 -56 -23 -96l-48 -146h142zM192 160l-39 -120c-14 -42 -42 -47 -75 -47s-74 6 -60 47l207 620c12 36 44 50 77 50s65 -14 77 -50l207 -620c14 -41 -27 -47 -60 -47s-61 5 -75 47l-39 120h-220zM194 775
c-10 -13 -21 -25 -44 -14c-18 3 -24 25 -22 40c5 27 23 49 38 61c18 15 43 24 68 24c69 0 87 -48 132 -48c24 0 35 15 42 30c6 18 24 21 41 18c18 -5 29 -17 23 -36c-13 -56 -37 -89 -96 -89c-60 0 -87 45 -140 45c-14 0 -30 -6 -42 -31z" />
    <glyph glyph-name="Adieresis" unicode="&#xc4;" horiz-adv-x="604" 
d="M373 277l-48 146c-13 40 -17 56 -23 96c-6 -40 -10 -56 -23 -96l-48 -146h142zM192 160l-39 -120c-14 -42 -42 -47 -75 -47s-74 6 -60 47l207 620c12 36 44 50 77 50s65 -14 77 -50l207 -620c14 -41 -27 -47 -60 -47s-61 5 -75 47l-39 120h-220zM384 890
c47 0 63 -24 63 -60c0 -37 -14 -59 -63 -59c-43 0 -59 22 -59 59c0 36 16 60 59 60zM217 890c45 0 59 -24 59 -60c0 -37 -13 -59 -59 -59c-47 0 -60 22 -60 59c0 36 13 60 60 60z" />
    <glyph glyph-name="Egrave" unicode="&#xc8;" horiz-adv-x="515" 
d="M215 580c-12 0 -17 -4 -17 -17v-141h203c33 0 42 -30 42 -60s-9 -60 -42 -60h-203v-165c0 -13 5 -17 17 -17h223c34 0 42 -30 42 -60s-9 -60 -42 -60h-275c-50 0 -98 13 -98 88v524c0 75 48 88 98 88h275c33 0 42 -30 42 -60s-8 -60 -42 -60h-223zM323 786
c12 -28 -8 -38 -24 -40c-26 -5 -43 1 -58 17l-60 67c-22 26 -19 51 15 58c10 2 27 2 40 2c26 0 44 -8 55 -30z" />
    <glyph glyph-name="Eacute" unicode="&#xc9;" horiz-adv-x="515" 
d="M215 580c-12 0 -17 -4 -17 -17v-141h203c33 0 42 -30 42 -60s-9 -60 -42 -60h-203v-165c0 -13 5 -17 17 -17h223c34 0 42 -30 42 -60s-9 -60 -42 -60h-275c-50 0 -98 13 -98 88v524c0 75 48 88 98 88h275c33 0 42 -30 42 -60s-8 -60 -42 -60h-223zM230 786l35 74
c10 22 26 30 53 30c13 0 27 0 39 -2c37 -7 38 -32 15 -58l-59 -67c-15 -16 -34 -22 -58 -17c-17 2 -36 12 -25 40z" />
    <glyph glyph-name="Ecircumflex" unicode="&#xca;" horiz-adv-x="515" 
d="M215 580c-12 0 -17 -4 -17 -17v-141h203c33 0 42 -30 42 -60s-9 -60 -42 -60h-203v-165c0 -13 5 -17 17 -17h223c34 0 42 -30 42 -60s-9 -60 -42 -60h-275c-50 0 -98 13 -98 88v524c0 75 48 88 98 88h275c33 0 42 -30 42 -60s-8 -60 -42 -60h-223zM239 890h76
c19 0 26 -3 40 -17l57 -75c21 -23 19 -44 -16 -52c-19 -5 -40 -1 -55 13l-65 60l-62 -60c-16 -14 -37 -18 -56 -13c-33 8 -36 29 -17 52l61 75c12 14 18 17 37 17z" />
    <glyph glyph-name="Edieresis" unicode="&#xcb;" horiz-adv-x="515" 
d="M215 580c-12 0 -17 -4 -17 -17v-141h203c33 0 42 -30 42 -60s-9 -60 -42 -60h-203v-165c0 -13 5 -17 17 -17h223c34 0 42 -30 42 -60s-9 -60 -42 -60h-275c-50 0 -98 13 -98 88v524c0 75 48 88 98 88h275c33 0 42 -30 42 -60s-8 -60 -42 -60h-223zM359 890
c47 0 63 -24 63 -60c0 -37 -14 -59 -63 -59c-43 0 -59 22 -59 59c0 36 16 60 59 60zM192 890c45 0 59 -24 59 -60c0 -37 -13 -59 -59 -59c-47 0 -60 22 -60 59c0 36 13 60 60 60z" />
    <glyph glyph-name="Igrave" unicode="&#xcc;" horiz-adv-x="263" 
d="M198 658v-620c0 -37 -34 -47 -67 -47s-66 10 -66 47v620c0 36 33 46 66 46s67 -10 67 -46zM167 786c12 -28 -8 -38 -24 -40c-26 -5 -43 1 -58 17l-60 67c-22 26 -19 51 15 58c10 2 27 2 40 2c26 0 44 -8 55 -30z" />
    <glyph glyph-name="Iacute" unicode="&#xcd;" horiz-adv-x="263" 
d="M198 658v-620c0 -37 -34 -47 -67 -47s-66 10 -66 47v620c0 36 33 46 66 46s67 -10 67 -46zM94 786l35 74c10 22 26 30 53 30c13 0 27 0 39 -2c37 -7 38 -32 15 -58l-59 -67c-15 -16 -34 -22 -58 -17c-17 2 -36 12 -25 40z" />
    <glyph glyph-name="Icircumflex" unicode="&#xce;" horiz-adv-x="263" 
d="M198 658v-620c0 -37 -34 -47 -67 -47s-66 10 -66 47v620c0 36 33 46 66 46s67 -10 67 -46zM93 890h76c19 0 26 -3 40 -17l57 -75c21 -23 19 -44 -16 -52c-19 -5 -40 -1 -55 13l-65 60l-62 -60c-16 -14 -37 -18 -56 -13c-33 8 -36 29 -17 52l61 75c12 14 18 17 37 17z" />
    <glyph glyph-name="Idieresis" unicode="&#xcf;" horiz-adv-x="263" 
d="M198 658v-620c0 -37 -34 -47 -67 -47s-66 10 -66 47v620c0 36 33 46 66 46s67 -10 67 -46zM214 880c47 0 63 -24 63 -60c0 -37 -14 -59 -63 -59c-43 0 -59 22 -59 59c0 36 16 60 59 60zM47 880c45 0 59 -24 59 -60c0 -37 -13 -59 -59 -59c-47 0 -60 22 -60 59
c0 36 13 60 60 60z" />
    <glyph glyph-name="Ntilde" unicode="&#xd1;" horiz-adv-x="644" 
d="M205 671l197 -334c15 -24 33 -56 47 -90v411c0 36 33 46 65 46s65 -10 65 -46v-620c0 -37 -38 -47 -70 -47s-56 8 -71 33l-197 334c-14 24 -32 59 -46 94v-414c0 -37 -33 -47 -65 -47s-65 10 -65 47v620c0 36 37 46 69 46s57 -7 71 -33zM214 765c-10 -13 -21 -25 -44 -14
c-18 3 -24 25 -22 40c5 27 23 49 38 61c18 15 43 24 68 24c69 0 87 -48 132 -48c24 0 35 15 42 30c6 18 24 21 41 18c18 -5 29 -17 23 -36c-13 -56 -37 -89 -96 -89c-60 0 -87 45 -140 45c-14 0 -30 -6 -42 -31z" />
    <glyph glyph-name="Ograve" unicode="&#xd2;" horiz-adv-x="638" 
d="M35 350c0 213 72 361 284 361s284 -148 284 -361c0 -212 -71 -361 -284 -361s-284 149 -284 361zM467 350c0 109 -18 244 -148 244c-131 0 -148 -135 -148 -244c0 -108 19 -243 148 -243s148 135 148 243zM365 786c12 -28 -8 -38 -24 -40c-26 -5 -43 1 -58 17l-60 67
c-22 26 -19 51 15 58c10 2 27 2 40 2c26 0 44 -8 55 -30z" />
    <glyph glyph-name="Oacute" unicode="&#xd3;" horiz-adv-x="638" 
d="M35 350c0 213 72 361 284 361s284 -148 284 -361c0 -212 -71 -361 -284 -361s-284 149 -284 361zM467 350c0 109 -18 244 -148 244c-131 0 -148 -135 -148 -244c0 -108 19 -243 148 -243s148 135 148 243zM282 786l35 74c10 22 26 30 53 30c13 0 27 0 39 -2
c37 -7 38 -32 15 -58l-59 -67c-15 -16 -34 -22 -58 -17c-17 2 -36 12 -25 40z" />
    <glyph glyph-name="Ocircumflex" unicode="&#xd4;" horiz-adv-x="638" 
d="M35 350c0 213 72 361 284 361s284 -148 284 -361c0 -212 -71 -361 -284 -361s-284 149 -284 361zM467 350c0 109 -18 244 -148 244c-131 0 -148 -135 -148 -244c0 -108 19 -243 148 -243s148 135 148 243zM280 890h76c19 0 26 -3 40 -17l57 -75c21 -23 19 -44 -16 -52
c-19 -5 -40 -1 -55 13l-65 60l-62 -60c-16 -14 -37 -18 -56 -13c-33 8 -36 29 -17 52l61 75c12 14 18 17 37 17z" />
    <glyph glyph-name="Otilde" unicode="&#xd5;" horiz-adv-x="638" 
d="M35 350c0 213 72 361 284 361s284 -148 284 -361c0 -212 -71 -361 -284 -361s-284 149 -284 361zM467 350c0 109 -18 244 -148 244c-131 0 -148 -135 -148 -244c0 -108 19 -243 148 -243s148 135 148 243zM211 775c-10 -13 -21 -25 -44 -14c-18 3 -24 25 -22 40
c5 27 23 49 38 61c18 15 43 24 68 24c69 0 87 -48 132 -48c24 0 35 15 42 30c6 18 24 21 41 18c18 -5 29 -17 23 -36c-13 -56 -37 -89 -96 -89c-60 0 -87 45 -140 45c-14 0 -30 -6 -42 -31z" />
    <glyph glyph-name="Odieresis" unicode="&#xd6;" horiz-adv-x="638" 
d="M35 350c0 213 72 361 284 361s284 -148 284 -361c0 -212 -71 -361 -284 -361s-284 149 -284 361zM467 350c0 109 -18 244 -148 244c-131 0 -148 -135 -148 -244c0 -108 19 -243 148 -243s148 135 148 243zM401 890c47 0 63 -24 63 -60c0 -37 -14 -59 -63 -59
c-43 0 -59 22 -59 59c0 36 16 60 59 60zM234 890c45 0 59 -24 59 -60c0 -37 -13 -59 -59 -59c-47 0 -60 22 -60 59c0 36 13 60 60 60z" />
    <glyph glyph-name="Ugrave" unicode="&#xd9;" horiz-adv-x="635" 
d="M197 658v-418c0 -76 42 -131 120 -131s121 55 121 131v418c0 36 33 46 66 46s66 -10 66 -46v-406c0 -186 -105 -263 -253 -263c-147 0 -252 77 -252 263v406c0 36 33 46 66 46s66 -10 66 -46zM373 776c12 -28 -8 -38 -24 -40c-26 -5 -43 1 -58 17l-60 67
c-22 26 -19 51 15 58c10 2 27 2 40 2c26 0 44 -8 55 -30z" />
    <glyph glyph-name="Uacute" unicode="&#xda;" horiz-adv-x="635" 
d="M197 658v-418c0 -76 42 -131 120 -131s121 55 121 131v418c0 36 33 46 66 46s66 -10 66 -46v-406c0 -186 -105 -263 -253 -263c-147 0 -252 77 -252 263v406c0 36 33 46 66 46s66 -10 66 -46zM280 776l35 74c10 22 26 30 53 30c13 0 27 0 39 -2c37 -7 38 -32 15 -58
l-59 -67c-15 -16 -34 -22 -58 -17c-17 2 -36 12 -25 40z" />
    <glyph glyph-name="Ucircumflex" unicode="&#xdb;" horiz-adv-x="635" 
d="M197 658v-418c0 -76 42 -131 120 -131s121 55 121 131v418c0 36 33 46 66 46s66 -10 66 -46v-406c0 -186 -105 -263 -253 -263c-147 0 -252 77 -252 263v406c0 36 33 46 66 46s66 -10 66 -46zM279 890h76c19 0 26 -3 40 -17l57 -75c21 -23 19 -44 -16 -52
c-19 -5 -40 -1 -55 13l-65 60l-62 -60c-16 -14 -37 -18 -56 -13c-33 8 -36 29 -17 52l61 75c12 14 18 17 37 17z" />
    <glyph glyph-name="Udieresis" unicode="&#xdc;" horiz-adv-x="635" 
d="M197 658v-418c0 -76 42 -131 120 -131s121 55 121 131v418c0 36 33 46 66 46s66 -10 66 -46v-406c0 -186 -105 -263 -253 -263c-147 0 -252 77 -252 263v406c0 36 33 46 66 46s66 -10 66 -46zM399 880c47 0 63 -24 63 -60c0 -37 -14 -59 -63 -59c-43 0 -59 22 -59 59
c0 36 16 60 59 60zM232 880c45 0 59 -24 59 -60c0 -37 -13 -59 -59 -59c-47 0 -60 22 -60 59c0 36 13 60 60 60z" />
    <glyph glyph-name="Yacute" unicode="&#xdd;" horiz-adv-x="523" 
d="M196 333l-184 318c-21 36 10 53 38 53c57 0 77 -10 97 -46l116 -213l115 213c20 36 46 46 101 46c28 0 52 -14 31 -51l-181 -320v-295c0 -37 -33 -47 -66 -47c-34 0 -67 10 -67 47v295zM224 776l35 74c10 22 26 30 53 30c13 0 27 0 39 -2c37 -7 38 -32 15 -58l-59 -67
c-15 -16 -34 -22 -58 -17c-17 2 -36 12 -25 40z" />
    <glyph glyph-name="agrave" unicode="&#xe0;" 
d="M357 41c-34 -29 -76 -52 -150 -52c-91 0 -172 61 -172 164c0 172 170 190 301 182c1 69 -38 89 -79 89c-55 1 -77 -10 -124 -30c-24 -10 -45 -11 -64 11c-19 24 -20 62 10 80c58 35 115 47 180 47c114 0 211 -52 211 -191v-231c0 -22 2 -43 4 -67c3 -35 -18 -45 -50 -46
c-35 0 -52 12 -67 44zM336 237c-56 4 -169 4 -166 -84c1 -34 28 -56 70 -56c70 0 105 66 96 140zM311 606c12 -28 -8 -38 -24 -40c-26 -5 -43 1 -58 17l-60 67c-22 26 -19 51 15 58c10 2 27 2 40 2c26 0 44 -8 55 -30z" />
    <glyph glyph-name="aacute" unicode="&#xe1;" 
d="M357 41c-34 -29 -76 -52 -150 -52c-91 0 -172 61 -172 164c0 172 170 190 301 182c1 69 -38 89 -79 89c-55 1 -77 -10 -124 -30c-24 -10 -45 -11 -64 11c-19 24 -20 62 10 80c58 35 115 47 180 47c114 0 211 -52 211 -191v-231c0 -22 2 -43 4 -67c3 -35 -18 -45 -50 -46
c-35 0 -52 12 -67 44zM336 237c-56 4 -169 4 -166 -84c1 -34 28 -56 70 -56c70 0 105 66 96 140zM208 606l35 74c10 22 26 30 53 30c13 0 27 0 39 -2c37 -7 38 -32 15 -58l-59 -67c-15 -16 -34 -22 -58 -17c-17 2 -36 12 -25 40z" />
    <glyph glyph-name="acircumflex" unicode="&#xe2;" 
d="M357 41c-34 -29 -76 -52 -150 -52c-91 0 -172 61 -172 164c0 172 170 190 301 182c1 69 -38 89 -79 89c-55 1 -77 -10 -124 -30c-24 -10 -45 -11 -64 11c-19 24 -20 62 10 80c58 35 115 47 180 47c114 0 211 -52 211 -191v-231c0 -22 2 -43 4 -67c3 -35 -18 -45 -50 -46
c-35 0 -52 12 -67 44zM336 237c-56 4 -169 4 -166 -84c1 -34 28 -56 70 -56c70 0 105 66 96 140zM216 710h76c19 0 26 -3 40 -17l57 -75c21 -23 19 -44 -16 -52c-19 -5 -40 -1 -55 13l-65 60l-62 -60c-16 -14 -37 -18 -56 -13c-33 8 -36 29 -17 52l61 75c12 14 18 17 37 17z
" />
    <glyph glyph-name="atilde" unicode="&#xe3;" 
d="M357 41c-34 -29 -76 -52 -150 -52c-91 0 -172 61 -172 164c0 172 170 190 301 182c1 69 -38 89 -79 89c-55 1 -77 -10 -124 -30c-24 -10 -45 -11 -64 11c-19 24 -20 62 10 80c58 35 115 47 180 47c114 0 211 -52 211 -191v-231c0 -22 2 -43 4 -67c3 -35 -18 -45 -50 -46
c-35 0 -52 12 -67 44zM336 237c-56 4 -169 4 -166 -84c1 -34 28 -56 70 -56c70 0 105 66 96 140zM147 595c-10 -13 -21 -25 -44 -14c-18 3 -24 25 -22 40c5 27 23 49 38 61c18 15 43 24 68 24c69 0 87 -48 132 -48c24 0 35 15 42 30c6 18 24 21 41 18c18 -5 29 -17 23 -36
c-13 -56 -37 -89 -96 -89c-60 0 -87 45 -140 45c-14 0 -30 -6 -42 -31z" />
    <glyph glyph-name="adieresis" unicode="&#xe4;" 
d="M357 41c-34 -29 -76 -52 -150 -52c-91 0 -172 61 -172 164c0 172 170 190 301 182c1 69 -38 89 -79 89c-55 1 -77 -10 -124 -30c-24 -10 -45 -11 -64 11c-19 24 -20 62 10 80c58 35 115 47 180 47c114 0 211 -52 211 -191v-231c0 -22 2 -43 4 -67c3 -35 -18 -45 -50 -46
c-35 0 -52 12 -67 44zM336 237c-56 4 -169 4 -166 -84c1 -34 28 -56 70 -56c70 0 105 66 96 140zM347 710c47 0 63 -24 63 -60c0 -37 -14 -59 -63 -59c-43 0 -59 22 -59 59c0 36 16 60 59 60zM180 710c45 0 59 -24 59 -60c0 -37 -13 -59 -59 -59c-47 0 -60 22 -60 59
c0 36 13 60 60 60z" />
    <glyph glyph-name="aring" unicode="&#xe5;" 
d="M357 41c-34 -29 -76 -52 -150 -52c-91 0 -172 61 -172 164c0 172 170 190 301 182c1 69 -38 89 -79 89c-55 1 -77 -10 -124 -30c-24 -10 -45 -11 -64 11c-19 24 -20 62 10 80c58 35 115 47 180 47c114 0 211 -52 211 -191v-231c0 -22 2 -43 4 -67c3 -35 -18 -45 -50 -46
c-35 0 -52 12 -67 44zM336 237c-56 4 -169 4 -166 -84c1 -34 28 -56 70 -56c70 0 105 66 96 140zM265 698c-22 0 -39 -18 -39 -39c0 -22 17 -37 39 -37s39 15 39 37c0 21 -17 39 -39 39zM265 750c53 0 90 -40 90 -91c0 -49 -37 -89 -90 -89c-50 0 -90 40 -90 89
c0 51 40 91 90 91z" />
    <glyph glyph-name="egrave" unicode="&#xe8;" horiz-adv-x="518" 
d="M273 428c-58 0 -92 -41 -99 -104h164c10 0 19 6 18 22c-4 53 -37 82 -83 82zM468 118c-26 -85 -101 -132 -197 -132c-166 1 -235 130 -236 276c0 141 63 269 232 269c137 0 216 -87 215 -214c-1 -67 -30 -86 -91 -86h-221c2 -66 22 -136 104 -135c42 0 62 19 80 53
c10 19 35 27 73 23c44 -5 48 -34 41 -54zM305 616c12 -28 -8 -38 -24 -40c-26 -5 -43 1 -58 17l-60 67c-22 26 -19 51 15 58c10 2 27 2 40 2c26 0 44 -8 55 -30z" />
    <glyph glyph-name="eacute" unicode="&#xe9;" horiz-adv-x="518" 
d="M273 428c-58 0 -92 -41 -99 -104h164c10 0 19 6 18 22c-4 53 -37 82 -83 82zM468 118c-26 -85 -101 -132 -197 -132c-166 1 -235 130 -236 276c0 141 63 269 232 269c137 0 216 -87 215 -214c-1 -67 -30 -86 -91 -86h-221c2 -66 22 -136 104 -135c42 0 62 19 80 53
c10 19 35 27 73 23c44 -5 48 -34 41 -54zM222 616l35 74c10 22 26 30 53 30c13 0 27 0 39 -2c37 -7 38 -32 15 -58l-59 -67c-15 -16 -34 -22 -58 -17c-17 2 -36 12 -25 40z" />
    <glyph glyph-name="ecircumflex" unicode="&#xea;" horiz-adv-x="518" 
d="M273 428c-58 0 -92 -41 -99 -104h164c10 0 19 6 18 22c-4 53 -37 82 -83 82zM468 118c-26 -85 -101 -132 -197 -132c-166 1 -235 130 -236 276c0 141 63 269 232 269c137 0 216 -87 215 -214c-1 -67 -30 -86 -91 -86h-221c2 -66 22 -136 104 -135c42 0 62 19 80 53
c10 19 35 27 73 23c44 -5 48 -34 41 -54zM220 710h76c19 0 26 -3 40 -17l57 -75c21 -23 19 -44 -16 -52c-19 -5 -40 -1 -55 13l-65 60l-62 -60c-16 -14 -37 -18 -56 -13c-33 8 -36 29 -17 52l61 75c12 14 18 17 37 17z" />
    <glyph glyph-name="edieresis" unicode="&#xeb;" horiz-adv-x="518" 
d="M273 428c-58 0 -92 -41 -99 -104h164c10 0 19 6 18 22c-4 53 -37 82 -83 82zM468 118c-26 -85 -101 -132 -197 -132c-166 1 -235 130 -236 276c0 141 63 269 232 269c137 0 216 -87 215 -214c-1 -67 -30 -86 -91 -86h-221c2 -66 22 -136 104 -135c42 0 62 19 80 53
c10 19 35 27 73 23c44 -5 48 -34 41 -54zM341 710c47 0 63 -24 63 -60c0 -37 -14 -59 -63 -59c-43 0 -59 22 -59 59c0 36 16 60 59 60zM174 710c45 0 59 -24 59 -60c0 -37 -13 -59 -59 -59c-47 0 -60 22 -60 59c0 36 13 60 60 60z" />
    <glyph glyph-name="igrave" unicode="&#xec;" horiz-adv-x="276" 
d="M205 480v-441c0 -38 -34 -48 -67 -48c-34 0 -67 10 -67 48v441c0 38 33 48 67 48c33 0 67 -10 67 -48zM174 616c12 -28 -8 -38 -24 -40c-26 -5 -43 1 -58 17l-60 67c-22 26 -19 51 15 58c10 2 27 2 40 2c26 0 44 -8 55 -30z" />
    <glyph glyph-name="iacute" unicode="&#xed;" horiz-adv-x="276" 
d="M205 480v-441c0 -38 -34 -48 -67 -48c-34 0 -67 10 -67 48v441c0 38 33 48 67 48c33 0 67 -10 67 -48zM101 616l35 74c10 22 26 30 53 30c13 0 27 0 39 -2c37 -7 38 -32 15 -58l-59 -67c-15 -16 -34 -22 -58 -17c-17 2 -36 12 -25 40z" />
    <glyph glyph-name="icircumflex" unicode="&#xee;" horiz-adv-x="276" 
d="M205 480v-441c0 -38 -34 -48 -67 -48c-34 0 -67 10 -67 48v441c0 38 33 48 67 48c33 0 67 -10 67 -48zM100 720h76c19 0 26 -3 40 -17l57 -75c21 -23 19 -44 -16 -52c-19 -5 -40 -1 -55 13l-65 60l-62 -60c-16 -14 -37 -18 -56 -13c-33 8 -36 29 -17 52l61 75
c12 14 18 17 37 17z" />
    <glyph glyph-name="idieresis" unicode="&#xef;" horiz-adv-x="276" 
d="M205 480v-441c0 -38 -34 -48 -67 -48c-34 0 -67 10 -67 48v441c0 38 33 48 67 48c33 0 67 -10 67 -48zM220 700c47 0 63 -24 63 -60c0 -37 -14 -59 -63 -59c-43 0 -59 22 -59 59c0 36 16 60 59 60zM53 700c45 0 59 -24 59 -60c0 -37 -13 -59 -59 -59c-47 0 -60 22 -60 59
c0 36 13 60 60 60z" />
    <glyph glyph-name="ntilde" unicode="&#xf1;" horiz-adv-x="563" 
d="M189 480l2 -12c45 56 105 67 148 67c107 0 169 -56 169 -179v-317c0 -38 -33 -48 -67 -48c-33 0 -67 10 -67 48v288c0 38 -12 88 -65 88c-84 0 -110 -69 -110 -139v-237c0 -38 -33 -48 -67 -48c-33 0 -67 10 -67 48v442c0 35 29 47 59 47c37 0 60 -9 65 -48zM183 595
c-10 -13 -21 -25 -44 -14c-18 3 -24 25 -22 40c5 27 23 49 38 61c18 15 43 24 68 24c69 0 87 -48 132 -48c24 0 35 15 42 30c6 18 24 21 41 18c18 -5 29 -17 23 -36c-13 -56 -37 -89 -96 -89c-60 0 -87 45 -140 45c-14 0 -30 -6 -42 -31z" />
    <glyph glyph-name="ograve" unicode="&#xf2;" horiz-adv-x="528" 
d="M35 259c0 158 60 269 229 269s229 -111 229 -269s-60 -269 -229 -269s-229 111 -229 269zM364 259c0 74 -10 166 -100 166c-89 0 -99 -92 -99 -166s12 -166 99 -166c88 0 100 92 100 166zM300 606c12 -28 -8 -38 -24 -40c-26 -5 -43 1 -58 17l-60 67c-22 26 -19 51 15 58
c10 2 27 2 40 2c26 0 44 -8 55 -30z" />
    <glyph glyph-name="oacute" unicode="&#xf3;" horiz-adv-x="528" 
d="M35 259c0 158 60 269 229 269s229 -111 229 -269s-60 -269 -229 -269s-229 111 -229 269zM364 259c0 74 -10 166 -100 166c-89 0 -99 -92 -99 -166s12 -166 99 -166c88 0 100 92 100 166zM227 606l35 74c10 22 26 30 53 30c13 0 27 0 39 -2c37 -7 38 -32 15 -58l-59 -67
c-15 -16 -34 -22 -58 -17c-17 2 -36 12 -25 40z" />
    <glyph glyph-name="ocircumflex" unicode="&#xf4;" horiz-adv-x="528" 
d="M35 259c0 158 60 269 229 269s229 -111 229 -269s-60 -269 -229 -269s-229 111 -229 269zM364 259c0 74 -10 166 -100 166c-89 0 -99 -92 -99 -166s12 -166 99 -166c88 0 100 92 100 166zM225 710h76c19 0 26 -3 40 -17l57 -75c21 -23 19 -44 -16 -52
c-19 -5 -40 -1 -55 13l-65 60l-62 -60c-16 -14 -37 -18 -56 -13c-33 8 -36 29 -17 52l61 75c12 14 18 17 37 17z" />
    <glyph glyph-name="otilde" unicode="&#xf5;" horiz-adv-x="528" 
d="M35 259c0 158 60 269 229 269s229 -111 229 -269s-60 -269 -229 -269s-229 111 -229 269zM364 259c0 74 -10 166 -100 166c-89 0 -99 -92 -99 -166s12 -166 99 -166c88 0 100 92 100 166zM146 595c-10 -13 -21 -25 -44 -14c-18 3 -24 25 -22 40c5 27 23 49 38 61
c18 15 43 24 68 24c69 0 87 -48 132 -48c24 0 35 15 42 30c6 18 24 21 41 18c18 -5 29 -17 23 -36c-13 -56 -37 -89 -96 -89c-60 0 -87 45 -140 45c-14 0 -30 -6 -42 -31z" />
    <glyph glyph-name="odieresis" unicode="&#xf6;" horiz-adv-x="528" 
d="M35 259c0 158 60 269 229 269s229 -111 229 -269s-60 -269 -229 -269s-229 111 -229 269zM364 259c0 74 -10 166 -100 166c-89 0 -99 -92 -99 -166s12 -166 99 -166c88 0 100 92 100 166zM346 710c47 0 63 -24 63 -60c0 -37 -14 -59 -63 -59c-43 0 -59 22 -59 59
c0 36 16 60 59 60zM179 710c45 0 59 -24 59 -60c0 -37 -13 -59 -59 -59c-47 0 -60 22 -60 59c0 36 13 60 60 60z" />
    <glyph glyph-name="ugrave" unicode="&#xf9;" horiz-adv-x="557" 
d="M369 39l-3 11c-44 -51 -99 -65 -142 -65c-107 0 -169 56 -169 179v316c0 38 33 48 67 48s67 -10 67 -48v-287c0 -38 6 -88 59 -88c83 0 110 64 110 135v240c0 38 33 48 67 48c33 0 67 -10 67 -48v-439c0 -38 -30 -50 -61 -50c-36 0 -54 14 -62 48zM324 606
c12 -28 -8 -38 -24 -40c-26 -5 -43 1 -58 17l-60 67c-22 26 -19 51 15 58c10 2 27 2 40 2c26 0 44 -8 55 -30z" />
    <glyph glyph-name="uacute" unicode="&#xfa;" horiz-adv-x="557" 
d="M369 39l-3 11c-44 -51 -99 -65 -142 -65c-107 0 -169 56 -169 179v316c0 38 33 48 67 48s67 -10 67 -48v-287c0 -38 6 -88 59 -88c83 0 110 64 110 135v240c0 38 33 48 67 48c33 0 67 -10 67 -48v-439c0 -38 -30 -50 -61 -50c-36 0 -54 14 -62 48zM241 606l35 74
c10 22 26 30 53 30c13 0 27 0 39 -2c37 -7 38 -32 15 -58l-59 -67c-15 -16 -34 -22 -58 -17c-17 2 -36 12 -25 40z" />
    <glyph glyph-name="ucircumflex" unicode="&#xfb;" horiz-adv-x="557" 
d="M369 39l-3 11c-44 -51 -99 -65 -142 -65c-107 0 -169 56 -169 179v316c0 38 33 48 67 48s67 -10 67 -48v-287c0 -38 6 -88 59 -88c83 0 110 64 110 135v240c0 38 33 48 67 48c33 0 67 -10 67 -48v-439c0 -38 -30 -50 -61 -50c-36 0 -54 14 -62 48zM240 710h76
c19 0 26 -3 40 -17l57 -75c21 -23 19 -44 -16 -52c-19 -5 -40 -1 -55 13l-65 60l-62 -60c-16 -14 -37 -18 -56 -13c-33 8 -36 29 -17 52l61 75c12 14 18 17 37 17z" />
    <glyph glyph-name="udieresis" unicode="&#xfc;" horiz-adv-x="557" 
d="M369 39l-3 11c-44 -51 -99 -65 -142 -65c-107 0 -169 56 -169 179v316c0 38 33 48 67 48s67 -10 67 -48v-287c0 -38 6 -88 59 -88c83 0 110 64 110 135v240c0 38 33 48 67 48c33 0 67 -10 67 -48v-439c0 -38 -30 -50 -61 -50c-36 0 -54 14 -62 48zM360 710
c47 0 63 -24 63 -60c0 -37 -14 -59 -63 -59c-43 0 -59 22 -59 59c0 36 16 60 59 60zM193 710c45 0 59 -24 59 -60c0 -37 -13 -59 -59 -59c-47 0 -60 22 -60 59c0 36 13 60 60 60z" />
    <glyph glyph-name="yacute" unicode="&#xfd;" horiz-adv-x="480" 
d="M458 454l-183 -520c-32 -92 -99 -120 -192 -105c-31 5 -41 29 -41 62c0 38 14 61 55 56c31 -4 60 14 70 43l15 44l-160 417c-17 46 0 68 43 72c35 4 70 3 81 -28l99 -275l94 275c10 31 45 32 80 28c43 -4 55 -23 39 -69zM203 606l35 74c10 22 26 30 53 30
c13 0 27 0 39 -2c37 -7 38 -32 15 -58l-59 -67c-15 -16 -34 -22 -58 -17c-17 2 -36 12 -25 40z" />
    <glyph glyph-name="ydieresis" unicode="&#xff;" horiz-adv-x="480" 
d="M458 454l-183 -520c-32 -92 -99 -120 -192 -105c-31 5 -41 29 -41 62c0 38 14 61 55 56c31 -4 60 14 70 43l15 44l-160 417c-17 46 0 68 43 72c35 4 70 3 81 -28l99 -275l94 275c10 31 45 32 80 28c43 -4 55 -23 39 -69zM322 700c47 0 63 -24 63 -60
c0 -37 -14 -59 -63 -59c-43 0 -59 22 -59 59c0 36 16 60 59 60zM155 700c45 0 59 -24 59 -60c0 -37 -13 -59 -59 -59c-47 0 -60 22 -60 59c0 36 13 60 60 60z" />
    </font>
</defs>
</svg>
