<?xml version="1.0" standalone="no"?>
<!DOCTYPE svg PUBLIC "-//W3C//DTD SVG 1.1//EN" "http://www.w3.org/Graphics/SVG/1.1/DTD/svg11.dtd" >
<svg>
<metadata>
Created by FontForge 20120731 at Sun Nov 16 11:39:01 2014
 By Orthosie Webhosting
Copyright (C) 1993; Type Market Ltd. Moscow, 119136, Box 20; phone:(095)2071022; Created by A.Kustov
</metadata>
<defs>
<font id="Helios-Bold" horiz-adv-x="562" >
  <font-face 
    font-family="Helios"
    font-weight="700"
    font-stretch="normal"
    units-per-em="1000"
    panose-1="4 0 8 0 0 0 0 0 0 0"
    ascent="775"
    descent="-225"
    x-height="538"
    cap-height="726"
    bbox="-34 -225 1287 937"
    underline-thickness="50"
    underline-position="-50"
    stemh="113"
    stemv="141"
    unicode-range="U+0020-2122"
  />
<missing-glyph horiz-adv-x="500" 
 />
    <glyph glyph-name=".notdef" horiz-adv-x="500" 
 />
    <glyph glyph-name="space" unicode=" " horiz-adv-x="281" 
 />
    <glyph glyph-name="space" unicode="&#xa0;" horiz-adv-x="281" 
 />
    <glyph glyph-name="exclam" unicode="!" horiz-adv-x="337" 
d="M243 143v-143h-148v143h148zM95 726h148v-185l-36 -342h-75l-37 342v185z" />
    <glyph glyph-name="quotedbl" unicode="&#x22;" horiz-adv-x="478" 
d="M280 452v274h99v-274h-99zM99 452v274h99v-274h-99z" />
    <glyph glyph-name="numbersign" unicode="#" 
d="M514 292l-12 -91h-98l-28 -201h-95l28 201h-98l-28 -201h-95l28 201h-98l13 91h98l17 121h-98l12 91h98l28 200h95l-28 -200h99l27 200h95l-27 -200h96l-12 -91h-97l-18 -121h98zM339 413h-98l-17 -121h97z" />
    <glyph glyph-name="dollar" unicode="$" 
d="M517 506h-130c-6 93 -43 104 -83 104v-189c95 -30 144 -56 169 -80c54 -51 55 -116 55 -141c0 -93 -57 -208 -224 -217v-99h-46v99c-164 13 -227 83 -227 234h132c6 -71 17 -113 95 -127v212c-99 26 -212 65 -212 205c0 110 66 210 212 210v65h46v-65
c76 -8 200 -32 213 -211zM258 435v175c-60 -3 -85 -46 -85 -79c0 -66 45 -87 85 -96zM304 285v-195c34 0 89 21 89 99c0 58 -48 84 -89 96z" />
    <glyph glyph-name="percent" unicode="%" horiz-adv-x="897" 
d="M502 171c0 102 83 184 184 184c100 0 183 -83 183 -184c0 -102 -83 -184 -183 -184c-101 0 -184 81 -184 184zM606 171c0 -45 36 -80 80 -80c43 0 79 35 79 80c0 44 -36 80 -79 80c-44 0 -80 -36 -80 -80zM28 533c0 102 83 184 184 184c100 0 183 -83 183 -184
c0 -102 -83 -184 -183 -184c-101 0 -184 81 -184 184zM132 533c0 -45 36 -80 80 -80c43 0 79 35 79 80c0 44 -36 80 -79 80c-44 0 -80 -36 -80 -80zM684 717l-402 -737h-74l402 737h74z" />
    <glyph glyph-name="ampersand" unicode="&#x26;" horiz-adv-x="729" 
d="M325 468c39 24 67 53 67 90c0 40 -26 60 -60 60c-32 0 -59 -21 -59 -59c0 -24 18 -53 52 -91zM535 376h125c-9 -98 -35 -154 -83 -218l131 -158h-170l-50 61c-42 -42 -98 -81 -207 -81c-138 0 -226 98 -226 206c0 70 19 139 154 221c-30 34 -65 88 -65 151
c0 99 79 167 193 167c79 0 177 -52 177 -168c0 -102 -91 -156 -120 -173l103 -127c18 28 32 64 38 119zM415 150l-133 167c-60 -44 -86 -64 -86 -122c0 -28 22 -96 107 -96c47 0 88 29 112 51z" />
    <glyph glyph-name="quotesingle" unicode="'" horiz-adv-x="240" 
d="M71 452v274h99v-274h-99z" />
    <glyph glyph-name="parenleft" unicode="(" horiz-adv-x="337" 
d="M213 742h104c-77 -133 -136 -269 -136 -478s63 -345 136 -474h-104c-90 121 -177 277 -177 474s83 352 177 478z" />
    <glyph glyph-name="parenright" unicode=")" horiz-adv-x="337" 
d="M20 742h104c90 -121 177 -277 177 -474s-83 -352 -177 -478h-104c77 133 136 269 136 478s-63 345 -136 474z" />
    <glyph glyph-name="asterisk" unicode="*" horiz-adv-x="393" 
d="M341 640l25 -74l-106 -32l69 -98l-63 -45l-69 92l-70 -92l-63 45l68 98l-105 32l24 74l103 -35v121h86v-120z" />
    <glyph glyph-name="plus" unicode="+" horiz-adv-x="590" 
d="M238 312v200h113v-200h199v-113h-199v-199h-113v199h-198v113h198z" />
    <glyph glyph-name="comma" unicode="," horiz-adv-x="280" 
d="M64 0v147h151v-127c0 -124 -64 -169 -150 -190h-1v54c39 13 80 31 85 116h-85z" />
    <glyph glyph-name="hyphenminus" horiz-adv-x="362" 
d="M322 312v-113h-282v113h282z" />
    <glyph glyph-name="period" unicode="." horiz-adv-x="280" 
d="M215 147v-147h-151v147h151z" />
    <glyph glyph-name="slash" unicode="/" horiz-adv-x="280" 
d="M314 745l-230 -764h-118l230 764h118z" />
    <glyph glyph-name="zero" unicode="0" 
d="M33 349c0 252 81 368 250 368s246 -116 246 -368c0 -251 -79 -369 -248 -369s-248 118 -248 369zM178 349c0 -185 22 -256 103 -256s103 71 103 256s-22 255 -103 255s-103 -70 -103 -255z" />
    <glyph glyph-name="one" unicode="1" horiz-adv-x="561" 
d="M69 494v99h21c136 0 172 70 175 124h116v-717h-141v494h-171z" />
    <glyph glyph-name="two" unicode="2" 
d="M172 464h-137c0 233 170 253 234 253c137 0 246 -80 246 -226c0 -123 -77 -186 -149 -233c-97 -64 -145 -100 -162 -133h311v-125h-488c5 84 11 172 166 285c130 94 181 131 181 211c0 48 -30 102 -99 102c-99 0 -103 -81 -103 -134z" />
    <glyph glyph-name="three" unicode="3" 
d="M171 486h-131c0 135 75 231 237 231c96 0 222 -49 222 -200c0 -73 -45 -118 -86 -137v-2c26 -7 108 -44 108 -166c0 -136 -100 -231 -244 -231c-68 0 -249 15 -249 239h138l-1 -1c0 -39 10 -125 105 -125c57 0 106 38 106 118c0 98 -95 102 -161 102v101h23
c42 0 120 4 120 97c0 26 -12 92 -90 92c-95 0 -97 -92 -97 -118z" />
    <glyph glyph-name="four" unicode="4" 
d="M134 272h176c0 174 3 283 3 305h-2zM291 717h160v-445h80v-113h-80v-159h-141v159h-282v122z" />
    <glyph glyph-name="five" unicode="5" 
d="M99 704h394v-119h-292l-25 -155c26 18 59 39 128 39c96 0 217 -66 217 -231c0 -98 -49 -257 -260 -257c-112 0 -226 66 -233 211h141c6 -59 36 -98 99 -98c68 0 108 57 108 134c0 63 -30 128 -105 128c-19 0 -68 -1 -95 -51l-126 6z" />
    <glyph glyph-name="six" unicode="6" 
d="M511 535h-140c-4 40 -30 69 -83 69c-92 0 -113 -106 -118 -198l2 -2c19 26 54 59 134 59c149 0 219 -114 219 -221c0 -157 -96 -261 -234 -261c-217 0 -259 181 -259 360c0 136 18 376 266 376c122 0 213 -81 213 -182zM384 230c0 91 -59 120 -103 120
c-54 0 -108 -33 -108 -123c0 -78 44 -133 112 -133c52 0 99 39 99 136z" />
    <glyph glyph-name="seven" unicode="7" 
d="M25 704h509v-109c-69 -74 -245 -286 -262 -595h-146c16 286 195 515 256 579h-357v125z" />
    <glyph glyph-name="eight" unicode="8" 
d="M282 426c56 0 88 37 88 89c0 54 -37 89 -83 89c-64 0 -97 -37 -97 -89c0 -43 31 -89 92 -89zM529 213c0 -91 -58 -232 -248 -232c-185 0 -248 120 -248 218c0 36 4 131 109 181c-57 29 -87 74 -87 141c0 122 98 196 223 196c148 0 227 -88 227 -187
c0 -62 -25 -114 -83 -145c69 -34 107 -79 107 -172zM384 207c0 50 -26 112 -105 112c-52 0 -101 -34 -101 -111c0 -69 39 -114 104 -114c74 0 102 63 102 113z" />
    <glyph glyph-name="nine" unicode="9" 
d="M172 479c0 -108 52 -131 106 -131c49 0 104 35 104 120c0 82 -35 133 -108 133c-36 0 -102 -19 -102 -122zM45 165h140v-1c8 -49 39 -70 83 -70c58 0 118 48 118 199l-2 2c-32 -48 -88 -60 -136 -60c-138 0 -217 104 -217 224c0 176 103 258 243 258
c248 0 253 -268 253 -369c0 -278 -131 -367 -260 -367c-122 0 -210 70 -222 184z" />
    <glyph glyph-name="colon" unicode=":" horiz-adv-x="337" 
d="M244 147v-147h-151v147h151zM244 517v-147h-151v147h151z" />
    <glyph glyph-name="semicolon" unicode=";" horiz-adv-x="337" 
d="M93 0v147h151v-127c0 -124 -64 -169 -150 -190h-1v54c39 13 80 31 85 116h-85zM244 517v-147h-151v147h151z" />
    <glyph glyph-name="less" unicode="&#x3c;" horiz-adv-x="590" 
d="M552 101v-109l-513 220v89l513 219v-109l-367 -155z" />
    <glyph glyph-name="equal" unicode="=" horiz-adv-x="590" 
d="M549 424v-113h-509v113h509zM549 199v-113h-509v113h509z" />
    <glyph glyph-name="greater" unicode="&#x3e;" horiz-adv-x="590" 
d="M38 101l367 155l-367 155v109l513 -219v-89l-513 -220v109z" />
    <glyph glyph-name="question" unicode="?" horiz-adv-x="617" 
d="M387 210h-147c0 97 14 140 107 205c40 28 63 59 63 100c0 79 -56 100 -98 100c-91 0 -104 -68 -109 -116v-1h-142c0 176 132 236 242 236c61 0 258 -17 258 -214c0 -82 -41 -129 -122 -186c-44 -31 -52 -51 -52 -124zM387 142v-142h-147v142h147z" />
    <glyph glyph-name="at" unicode="@" horiz-adv-x="985" 
d="M587 380c0 50 -33 86 -81 86c-70 0 -118 -74 -118 -136c0 -53 29 -90 79 -90c71 0 120 74 120 140zM617 498l13 54h89c-13 -61 -65 -287 -65 -300c0 -10 4 -21 15 -21c53 0 114 67 114 177c0 165 -120 256 -276 256c-174 0 -288 -131 -288 -303c0 -180 128 -299 302 -299
c84 0 159 32 212 82h90c-70 -104 -182 -163 -308 -163c-218 0 -396 162 -396 382c0 216 177 382 390 382c183 0 356 -123 356 -312c0 -217 -188 -294 -258 -294c-29 0 -55 17 -57 53l-2 1c-27 -29 -67 -54 -107 -54c-87 0 -162 81 -162 176c0 126 86 249 216 249
c51 0 93 -18 122 -66z" />
    <glyph glyph-name="A" unicode="A" horiz-adv-x="730" 
d="M279 726h175l255 -726h-164l-47 150h-267l-51 -150h-159zM364 562l-93 -287h194l-99 287h-2z" />
    <glyph glyph-name="B" unicode="B" horiz-adv-x="718" 
d="M70 0v726h358c177 0 222 -111 222 -185c0 -104 -58 -135 -88 -150c89 -33 111 -103 111 -174c0 -62 -23 -217 -291 -217h-312zM221 320v-195h184c74 0 117 33 117 107c0 63 -54 88 -109 88h-192zM221 601v-159h177c60 0 107 23 107 81c0 59 -42 78 -111 78h-173z" />
    <glyph glyph-name="C" unicode="C" horiz-adv-x="730" 
d="M691 488h-151c-12 44 -36 129 -161 129c-73 0 -183 -52 -183 -257c0 -130 55 -251 183 -251c84 0 143 51 161 140h151c-30 -158 -133 -268 -315 -268c-193 0 -331 131 -331 381c0 254 146 383 333 383c217 0 305 -150 313 -257z" />
    <glyph glyph-name="D" unicode="D" horiz-adv-x="731" 
d="M70 0v726h320c245 0 296 -208 296 -346c0 -155 -63 -380 -302 -380h-314zM218 601v-476h148c123 0 165 125 165 244c0 214 -102 232 -167 232h-146z" />
    <glyph glyph-name="E" unicode="E" horiz-adv-x="667" 
d="M70 726h536v-125h-385v-150h353v-125h-353v-201h401v-125h-552v726z" />
    <glyph glyph-name="F" unicode="F" horiz-adv-x="613" 
d="M70 726h517v-125h-366v-150h320v-125h-320v-326h-151v726z" />
    <glyph glyph-name="G" unicode="G" horiz-adv-x="790" 
d="M417 269v122h303v-391h-101l-15 91c-36 -45 -94 -110 -226 -110c-175 0 -333 125 -333 380c0 198 109 384 352 384c222 0 312 -145 320 -245h-151c0 29 -51 117 -158 117c-108 0 -212 -71 -212 -256c0 -199 111 -252 214 -252c34 0 145 14 176 160h-169z" />
    <glyph glyph-name="H" unicode="H" horiz-adv-x="725" 
d="M221 726v-275h283v275h151v-726h-151v326h-283v-326h-151v726h151z" />
    <glyph glyph-name="I" unicode="I" horiz-adv-x="291" 
d="M221 726v-726h-151v726h151z" />
    <glyph glyph-name="J" unicode="J" horiz-adv-x="561" 
d="M340 726h151v-516c0 -154 -79 -229 -225 -229c-237 0 -241 154 -241 292h141c0 -114 6 -170 87 -170c79 0 87 51 87 107v516z" />
    <glyph glyph-name="K" unicode="K" horiz-adv-x="716" 
d="M221 726v-295l277 295h196l-296 -297l313 -429h-195l-224 319l-71 -73v-246h-151v726h151z" />
    <glyph glyph-name="L" unicode="L" horiz-adv-x="611" 
d="M221 726v-601h362v-125h-513v726h151z" />
    <glyph glyph-name="M" unicode="M" horiz-adv-x="842" 
d="M70 726h221l131 -572h2l129 572h219v-726h-141v607h-1l-136 -607h-149l-132 607h-2v-607h-141v726z" />
    <glyph glyph-name="N" unicode="N" horiz-adv-x="731" 
d="M70 726h160l288 -505h2v505h141v-726h-152l-295 518h-3v-518h-141v726z" />
    <glyph glyph-name="O" unicode="O" horiz-adv-x="786" 
d="M45 363c0 340 252 382 348 382s348 -42 348 -382s-252 -382 -348 -382s-348 42 -348 382zM196 363c0 -203 115 -254 197 -254s197 51 197 254s-115 254 -197 254s-197 -51 -197 -254z" />
    <glyph glyph-name="P" unicode="P" horiz-adv-x="671" 
d="M221 262v-262h-151v726h332c140 0 224 -89 224 -232c0 -65 -36 -232 -231 -232h-174zM221 601v-214h141c100 0 113 68 113 113c0 71 -39 101 -133 101h-121z" />
    <glyph glyph-name="Q" unicode="Q" horiz-adv-x="786" 
d="M402 197l78 81l77 -71c20 37 33 88 33 155c0 203 -115 255 -197 255s-197 -52 -197 -255s115 -253 197 -253c25 0 55 5 82 19zM744 29l-79 -82l-86 82c-69 -41 -144 -48 -186 -48c-96 0 -348 41 -348 381c0 341 252 383 348 383s348 -42 348 -383
c0 -119 -31 -202 -75 -258z" />
    <glyph glyph-name="R" unicode="R" horiz-adv-x="712" 
d="M221 284v-284h-151v726h370c193 0 227 -143 227 -205c0 -80 -39 -149 -111 -173c59 -26 91 -49 91 -184c0 -106 1 -132 33 -144v-20h-168c-10 35 -16 72 -16 147c0 99 -6 137 -118 137h-157zM221 601v-195h178c79 0 117 28 117 99c0 39 -18 96 -107 96h-188z" />
    <glyph glyph-name="S" unicode="S" horiz-adv-x="673" 
d="M39 224h145c0 -41 22 -118 154 -118c72 0 152 18 152 94c0 57 -55 71 -132 90l-146 36c-103 25 -162 86 -162 196c0 80 44 223 279 223c222 0 282 -146 282 -235h-145c-4 33 -16 110 -148 110c-58 0 -127 -22 -127 -87c0 -57 47 -69 77 -76l177 -43
c99 -25 190 -65 190 -195c0 -219 -222 -238 -286 -238c-264 0 -310 153 -310 243z" />
    <glyph glyph-name="T" unicode="T" horiz-adv-x="617" 
d="M384 601v-601h-151v601h-219v125h589v-125h-219z" />
    <glyph glyph-name="U" unicode="U" horiz-adv-x="717" 
d="M70 726h151v-472c0 -101 58 -145 129 -145c104 0 146 50 146 138v479h151v-470c0 -191 -111 -275 -294 -275c-123 0 -283 48 -283 265v480z" />
    <glyph glyph-name="V" unicode="V" horiz-adv-x="673" 
d="M19 726h162l156 -550h2l158 550h157l-246 -726h-145z" />
    <glyph glyph-name="W" unicode="W" horiz-adv-x="954" 
d="M16 726h162c93 -397 102 -448 115 -531h2c13 76 24 150 101 531h161c85 -398 92 -437 108 -531h2c12 69 24 132 118 531h154l-204 -726h-146c-75 356 -88 427 -112 566h-2c-22 -139 -34 -192 -112 -566h-142z" />
    <glyph glyph-name="X" unicode="X" horiz-adv-x="673" 
d="M27 726h181l129 -235l132 235h175l-221 -349l236 -377h-185l-137 248l-146 -248h-177l234 371z" />
    <glyph glyph-name="Y" unicode="Y" horiz-adv-x="673" 
d="M22 726h172l150 -316l143 316h172l-243 -452v-274h-151v274z" />
    <glyph glyph-name="Z" unicode="Z" horiz-adv-x="618" 
d="M35 726h557v-128l-385 -470h385v-128h-567v129l375 469h-365v128z" />
    <glyph glyph-name="bracketleft" unicode="[" horiz-adv-x="336" 
d="M64 730h248v-97h-125v-734h125v-97h-248v928z" />
    <glyph glyph-name="backslash" unicode="\" horiz-adv-x="280" 
d="M-34 745h118l230 -764h-118z" />
    <glyph glyph-name="bracketright" unicode="]" horiz-adv-x="336" 
d="M24 730h248v-928h-248v97h125v734h-125v97z" />
    <glyph glyph-name="asciicircum" unicode="^" horiz-adv-x="590" 
d="M173 326h-110l182 379h100l182 -379h-111l-121 266z" />
    <glyph glyph-name="underscore" unicode="_" 
d="M562 -126h-562v50h562v-50z" />
    <glyph glyph-name="grave" unicode="`" horiz-adv-x="336" 
d="M125 610l-148 147h155l95 -147h-102z" />
    <glyph glyph-name="a" unicode="a" horiz-adv-x="567" 
d="M188 364h-136c16 165 130 188 240 188c76 0 214 -23 214 -156v-291c0 -63 14 -77 31 -83v-22h-152c-8 26 -10 34 -13 64c-32 -33 -78 -78 -174 -78c-81 0 -163 46 -163 157c0 124 116 175 251 186c60 5 82 21 82 47c0 60 -57 63 -93 63c-71 0 -83 -44 -87 -75zM368 262
c-14 -11 -38 -20 -96 -29c-53 -9 -96 -23 -96 -81c0 -50 38 -65 66 -65c62 0 126 41 126 106v69z" />
    <glyph glyph-name="b" unicode="b" horiz-adv-x="618" 
d="M317 430c-90 0 -121 -80 -121 -165c0 -64 26 -163 117 -163c90 0 125 75 125 155c0 86 -24 173 -121 173zM201 726v-258h3c22 34 64 84 155 84c119 0 224 -88 224 -274c0 -147 -67 -292 -227 -292c-58 0 -119 22 -153 82h-2v-68h-141v726h141z" />
    <glyph glyph-name="c" unicode="c" horiz-adv-x="564" 
d="M386 196h142c-5 -55 -48 -210 -245 -210c-202 0 -248 155 -248 268c0 174 75 298 257 298c85 0 224 -39 237 -206h-143c-6 35 -27 87 -94 87c-89 0 -112 -89 -112 -156c0 -58 2 -175 109 -175c72 0 97 69 97 94z" />
    <glyph glyph-name="d" unicode="d" horiz-adv-x="617" 
d="M557 726v-726h-138v68h-2c-34 -60 -97 -82 -155 -82c-160 0 -227 142 -227 289c0 186 105 277 224 277c91 0 133 -50 155 -84h2v258h141zM301 430c-90 0 -121 -80 -121 -165c0 -64 26 -163 117 -163c90 0 125 75 125 155c0 86 -24 173 -121 173z" />
    <glyph glyph-name="e" unicode="e" horiz-adv-x="580" 
d="M394 158h145c-37 -129 -144 -172 -236 -172c-151 0 -268 73 -268 294c0 65 23 272 258 272c151 0 252 -83 252 -268v-53h-365c0 -41 9 -132 123 -132c40 0 80 21 91 59zM180 323h220c-8 86 -64 113 -109 113c-67 0 -103 -43 -111 -113z" />
    <glyph glyph-name="f" unicode="f" horiz-adv-x="337" 
d="M229 437v-437h-141v437h-78v101h78v43c0 111 61 153 158 153h73v-116h-40c-48 0 -50 -15 -50 -59v-21h93v-101h-93z" />
    <glyph glyph-name="g" unicode="g" horiz-adv-x="617" 
d="M422 538h135v-509c0 -93 -7 -254 -271 -254c-111 0 -228 48 -234 162h153c6 -27 17 -55 99 -55c76 0 118 42 118 128v67h-4c-23 -41 -70 -91 -146 -91c-130 0 -237 99 -237 287c0 186 109 279 228 279c100 0 140 -59 157 -94h2v80zM301 430c-90 0 -121 -80 -121 -165
c0 -64 26 -163 117 -163c90 0 125 75 125 155c0 86 -24 173 -121 173z" />
    <glyph glyph-name="h" unicode="h" horiz-adv-x="605" 
d="M201 726v-258h2c18 44 79 84 156 84c105 0 186 -62 186 -180v-372h-141v327c0 39 -2 106 -92 106c-63 0 -111 -43 -111 -125v-308h-141v726h141z" />
    <glyph glyph-name="i" unicode="i" horiz-adv-x="261" 
d="M201 538v-538h-141v538h141zM201 732v-131h-141v131h141z" />
    <glyph glyph-name="j" unicode="j" horiz-adv-x="261" 
d="M60 538h141v-594c0 -141 -65 -160 -208 -160v113c53 0 67 6 67 50v591zM201 732v-131h-141v131h141z" />
    <glyph glyph-name="k" unicode="k" 
d="M201 726v-392l178 204h173l-189 -208l194 -330h-169l-128 231l-59 -61v-170h-141v726h141z" />
    <glyph glyph-name="l" unicode="l" horiz-adv-x="261" 
d="M201 726v-726h-141v726h141z" />
    <glyph glyph-name="m" unicode="m" horiz-adv-x="889" 
d="M60 538h136v-79h2c18 35 57 93 152 93c78 0 113 -29 150 -86c17 26 57 86 143 86c105 0 186 -62 186 -180v-372h-141v327c0 79 -35 106 -76 106c-71 0 -97 -47 -97 -111v-322h-141v323c0 46 -13 110 -85 110c-66 0 -88 -45 -88 -103v-330h-141v538z" />
    <glyph glyph-name="n" unicode="n" horiz-adv-x="605" 
d="M60 538h135v-79h2c19 32 60 93 162 93c105 0 186 -62 186 -180v-372h-141v327c0 39 -2 106 -92 106c-63 0 -111 -43 -111 -125v-308h-141v538z" />
    <glyph glyph-name="o" unicode="o" horiz-adv-x="619" 
d="M310 552c144 0 274 -88 274 -282s-130 -284 -274 -284s-275 89 -275 283s131 283 275 283zM310 433c-109 0 -130 -94 -130 -163s21 -165 130 -165s129 95 129 164s-20 164 -129 164z" />
    <glyph glyph-name="p" unicode="p" horiz-adv-x="618" 
d="M317 430c-90 0 -121 -80 -121 -165c0 -64 26 -163 117 -163c90 0 125 75 125 155c0 86 -24 173 -121 173zM196 538v-78h2c26 42 65 92 160 92c119 0 225 -93 225 -279c0 -147 -68 -287 -228 -287c-99 0 -134 54 -151 83l-3 1v-286h-141v754h136z" />
    <glyph glyph-name="q" unicode="q" horiz-adv-x="618" 
d="M301 430c-90 0 -121 -80 -121 -165c0 -64 26 -163 117 -163c90 0 125 75 125 155c0 86 -24 173 -121 173zM422 538h136v-754h-141v286l-3 -1c-17 -29 -52 -83 -151 -83c-160 0 -228 140 -228 287c0 186 106 279 225 279c95 0 134 -50 160 -92h2v78z" />
    <glyph glyph-name="r" unicode="r" horiz-adv-x="389" 
d="M60 538h136v-93h2c29 54 61 107 147 107c7 0 22 -1 28 -2v-144c-13 2 -28 3 -41 3c-110 0 -131 -67 -131 -127v-282h-141v538z" />
    <glyph glyph-name="s" unicode="s" horiz-adv-x="563" 
d="M512 374h-138c-6 34 -18 71 -95 71s-87 -30 -87 -53c0 -85 336 -23 336 -221c0 -157 -151 -185 -235 -185c-122 0 -258 43 -258 186h145c0 -45 28 -79 117 -79c73 0 90 36 90 56c0 90 -333 22 -333 223c0 79 49 180 217 180c105 0 230 -26 241 -178z" />
    <glyph glyph-name="t" unicode="t" horiz-adv-x="337" 
d="M83 682h141v-145h88v-101h-88v-292c0 -31 2 -43 59 -43c9 0 26 1 29 2v-106c-18 -2 -44 -3 -66 -3c-141 0 -163 46 -163 116v326h-72v101h72v145z" />
    <glyph glyph-name="u" unicode="u" horiz-adv-x="603" 
d="M60 538h141v-334c0 -82 48 -99 92 -99c46 0 109 27 109 123v310h141v-538h-135v76h-2c-32 -57 -89 -90 -164 -90c-106 0 -182 61 -182 198v354z" />
    <glyph glyph-name="v" unicode="v" 
d="M13 538h151l114 -397h2l118 397h151l-194 -538h-149z" />
    <glyph glyph-name="w" unicode="w" horiz-adv-x="786" 
d="M10 538h151l84 -387h1l76 387h143l81 -387h1l84 387h146l-155 -538h-145l-84 393h-2l-84 -393h-145z" />
    <glyph glyph-name="x" unicode="x" 
d="M22 538h172l91 -157l89 157h167l-177 -264l183 -274h-175l-93 162l-93 -162h-171l183 274z" />
    <glyph glyph-name="y" unicode="y" 
d="M10 538h158l115 -396h2l110 396h150l-185 -528c-61 -175 -85 -226 -208 -226c-19 0 -44 1 -64 2v113c6 -1 15 -2 27 -2c52 0 80 7 93 81z" />
    <glyph glyph-name="z" unicode="z" horiz-adv-x="504" 
d="M39 538h435v-116l-279 -309h290v-113h-465v110l283 315h-264v113z" />
    <glyph glyph-name="braceleft" unicode="{" horiz-adv-x="393" 
d="M369 730v-89h-46c-51 0 -57 -35 -57 -65v-198c0 -84 -82 -108 -115 -111v-2c33 -3 115 -15 115 -105v-198c0 -30 6 -71 57 -71h46v-89h-84c-64 0 -142 44 -142 139v202c0 62 -66 77 -95 77v93c29 0 95 14 95 76v202c0 95 78 139 142 139h84z" />
    <glyph glyph-name="bar" unicode="|" horiz-adv-x="282" 
d="M197 745v-764h-113v764h113z" />
    <glyph glyph-name="braceright" unicode="}" horiz-adv-x="393" 
d="M24 641v89h84c64 0 141 -43 141 -138v-202c0 -62 67 -77 96 -78v-92c-29 0 -96 -14 -96 -76v-202c0 -95 -77 -140 -141 -140h-84v89h46c51 0 56 37 56 67v198c0 88 83 106 116 109v2c-33 3 -116 27 -116 109v198c0 30 -5 67 -56 67h-46z" />
    <glyph glyph-name="asciitilde" unicode="~" horiz-adv-x="590" 
d="M492 347l36 -91c-30 -42 -63 -87 -126 -87c-80 0 -129 70 -219 70c-45 0 -69 -39 -85 -74l-36 91c22 42 58 87 126 87c78 0 158 -70 215 -70c40 0 66 39 89 74z" />
    <glyph glyph-name="afii10051" unicode="&#x402;" horiz-adv-x="826" 
d="M384 601v-159c30 5 76 9 149 9c140 0 248 -85 248 -229c0 -143 -105 -222 -251 -222h-59v125h44c73 0 115 45 115 105c0 64 -47 96 -115 96c-37 0 -110 -6 -131 -9v-317h-151v601h-219v125h589v-125h-219z" />
    <glyph glyph-name="afii10052" unicode="&#x403;" horiz-adv-x="613" 
d="M70 726h517v-125h-366v-601h-151v726zM493 937l-148 -147h-102l95 147h155z" />
    <glyph glyph-name="quotesinglbase" unicode="&#x201a;" horiz-adv-x="280" 
d="M64 0v147h151v-127c0 -124 -64 -169 -150 -190h-1v54c39 13 80 31 85 116h-85z" />
    <glyph glyph-name="afii10100" unicode="&#x453;" horiz-adv-x="442" 
d="M60 538h365v-113h-224v-425h-141v538zM365 733l-114 -113h-82l74 113h122z" />
    <glyph glyph-name="quotedblbase" unicode="&#x201e;" horiz-adv-x="504" 
d="M54 0v147h151v-127c0 -124 -64 -169 -150 -190h-1v54c39 13 80 31 85 116h-85zM288 0v147h151v-127c0 -124 -64 -169 -150 -190h-1v54c39 13 80 31 85 116h-85z" />
    <glyph glyph-name="ellipsis" unicode="&#x2026;" horiz-adv-x="1010" 
d="M244 147v-147h-151v147h151zM580 147v-147h-151v147h151zM916 147v-147h-151v147h151z" />
    <glyph glyph-name="dagger" unicode="&#x2020;" 
d="M525 504v-113h-177v-563h-135v563h-176v113h176v221h135v-221h177z" />
    <glyph glyph-name="daggerdbl" unicode="&#x2021;" 
d="M380 386v-61h-120c3 -18 5 -36 5 -54c0 -65 -43 -125 -103 -166l2 -3c43 18 78 27 114 27c66 0 98 -26 125 -26s78 21 102 37l42 -110c-37 -22 -88 -46 -154 -46c-67 0 -139 41 -196 41c-26 0 -44 -6 -110 -36l-55 98c17 6 113 75 113 148c0 29 -14 71 -24 90h-93v61h59
c-32 70 -41 92 -41 143c0 72 60 197 241 197c105 0 243 -49 243 -234h-132c-10 69 -24 121 -112 121c-78 0 -99 -62 -99 -93c0 -20 2 -31 48 -134h145z" />
    <glyph glyph-name="perthousand" unicode="&#x2030;" horiz-adv-x="1311" 
d="M502 171c0 102 83 184 184 184c100 0 183 -83 183 -184c0 -102 -83 -184 -183 -184c-101 0 -184 81 -184 184zM606 171c0 -45 36 -80 80 -80c43 0 79 35 79 80c0 44 -36 80 -79 80c-44 0 -80 -36 -80 -80zM28 533c0 102 83 184 184 184c100 0 183 -83 183 -184
c0 -102 -83 -184 -183 -184c-101 0 -184 81 -184 184zM132 533c0 -45 36 -80 80 -80c43 0 79 35 79 80c0 44 -36 80 -79 80c-44 0 -80 -36 -80 -80zM684 717l-402 -737h-74l402 737h74zM920 171c0 102 83 184 184 184c100 0 183 -83 183 -184c0 -102 -83 -184 -183 -184
c-101 0 -184 81 -184 184zM1024 171c0 -45 36 -80 80 -80c43 0 79 35 79 80c0 44 -36 80 -79 80c-44 0 -80 -36 -80 -80z" />
    <glyph glyph-name="afii10058" unicode="&#x409;" horiz-adv-x="1133" 
d="M144 726h507v-275h189c140 0 248 -85 248 -229c0 -143 -105 -222 -250 -222h-338v601h-205v-310c0 -188 -46 -310 -189 -310c-34 0 -66 3 -92 11v116c9 -3 25 -6 45 -6c68 0 85 48 85 205v419zM651 326v-201h171c73 0 115 45 115 105c0 64 -47 96 -115 96h-171z" />
    <glyph glyph-name="guilsinglleft" unicode="&#x2039;" horiz-adv-x="337" 
d="M253 489v-117l-101 -89l101 -89v-117l-169 145v122z" />
    <glyph glyph-name="afii10059" unicode="&#x40a;" horiz-adv-x="1137" 
d="M221 726v-275h283v275h151v-275h189c140 0 248 -85 248 -229c0 -143 -105 -222 -250 -222h-338v326h-283v-326h-151v726h151zM655 326v-201h171c73 0 115 45 115 105c0 64 -47 96 -115 96h-171z" />
    <glyph glyph-name="afii10061" unicode="&#x40c;" horiz-adv-x="716" 
d="M221 726v-295l277 295h196l-296 -297l313 -429h-195l-224 319l-71 -73v-246h-151v726h151zM516 937l-148 -147h-102l95 147h155z" />
    <glyph glyph-name="afii10060" unicode="&#x40b;" horiz-adv-x="826" 
d="M384 601v-159c30 5 76 9 149 9c140 0 248 -85 248 -229v-222h-151v230c0 64 -47 96 -115 96c-37 0 -110 -6 -131 -9v-317h-151v601h-219v125h589v-125h-219z" />
    <glyph glyph-name="afii10145" unicode="&#x40f;" horiz-adv-x="725" 
d="M221 726v-601h283v601h151v-726h-222v-154h-141v154h-222v726h151z" />
    <glyph glyph-name="afii10099" unicode="&#x452;" horiz-adv-x="605" 
d="M60 726h141v-53h161v-87h-161v-118h2c18 44 79 84 156 84c105 0 186 -62 186 -180c0 -372 -24 -513 -254 -546v119c98 27 113 129 113 382c0 39 -2 106 -92 106c-63 0 -111 -43 -111 -125v-308h-141v586h-60v87h60v53z" />
    <glyph glyph-name="quoteleft" unicode="&#x2018;" horiz-adv-x="280" 
d="M210 587v-128h-141v103c0 127 81 160 139 172v-51c-67 -21 -73 -58 -75 -96h77z" />
    <glyph glyph-name="quoteright" unicode="&#x2019;" horiz-adv-x="280" 
d="M69 597v128h141v-102c0 -127 -80 -161 -138 -173v51c67 21 73 58 75 96h-78z" />
    <glyph glyph-name="quotedblleft" unicode="&#x201c;" horiz-adv-x="504" 
d="M205 587v-128h-141v103c0 127 81 160 139 172v-51c-67 -21 -73 -58 -75 -96h77zM439 587v-128h-141v103c0 127 81 160 139 172v-51c-67 -21 -73 -58 -75 -96h77z" />
    <glyph glyph-name="quotedblright" unicode="&#x201d;" horiz-adv-x="504" 
d="M64 597v128h141v-102c0 -127 -80 -161 -138 -173v51c67 21 73 58 75 96h-78zM298 597v128h141v-102c0 -127 -80 -161 -138 -173v51c67 21 73 58 75 96h-78z" />
    <glyph glyph-name="bullet" unicode="&#x2022;" horiz-adv-x="354" 
d="M10 364c0 93 75 165 168 165c92 0 165 -72 165 -165c0 -94 -74 -168 -166 -168c-93 0 -167 73 -167 168z" />
    <glyph glyph-name="endash" unicode="&#x2013;" 
d="M562 312v-113h-562v113h562z" />
    <glyph glyph-name="emdash" unicode="&#x2014;" horiz-adv-x="1010" 
d="M1010 312v-113h-1010v113h1010z" />
    <glyph glyph-name="trademark" unicode="&#x2122;" horiz-adv-x="1010" 
d="M622 725l95 -252l94 252h154v-416h-107v284h-5l-96 -284h-81l-99 284h-2v-284h-107v416h154zM389 725v-86h-116v-330h-113v330h-116v86h345z" />
    <glyph glyph-name="afii10106" unicode="&#x459;" horiz-adv-x="906" 
d="M121 538h433v-201h100c131 0 217 -66 217 -178c0 -108 -95 -159 -216 -159h-242v425h-151v-166c0 -206 -62 -271 -161 -271c-25 0 -65 4 -86 12v105c3 -2 21 -4 42 -4c42 0 64 21 64 185v252zM554 240v-143h96c51 0 80 24 80 65c0 47 -29 78 -80 78h-96z" />
    <glyph glyph-name="guilsinglright" unicode="&#x203a;" horiz-adv-x="337" 
d="M185 283l-101 89v117l169 -145v-122l-169 -145v117z" />
    <glyph glyph-name="afii10107" unicode="&#x45a;" horiz-adv-x="895" 
d="M201 538v-201h201v201h141v-201h100c131 0 217 -66 217 -178c0 -108 -95 -159 -216 -159h-242v240h-201v-240h-141v538h141zM543 240v-143h96c51 0 80 24 80 65c0 47 -29 78 -80 78h-96z" />
    <glyph glyph-name="afii10109" unicode="&#x45c;" 
d="M201 538v-204l178 204h173l-189 -208l194 -330h-169l-128 231l-59 -61v-170h-141v538h141zM425 733l-114 -113h-82l74 113h122z" />
    <glyph glyph-name="afii10108" unicode="&#x45b;" horiz-adv-x="612" 
d="M67 726h141v-53h161v-87h-161v-118h2c18 44 79 84 156 84c105 0 186 -62 186 -180v-372h-141v327c0 39 -2 106 -92 106c-63 0 -111 -43 -111 -125v-308h-141v586h-60v87h60v53z" />
    <glyph glyph-name="afii10193" unicode="&#x45f;" horiz-adv-x="604" 
d="M201 538v-425h202v425h141v-538h-177v-145h-130v145h-177v538h141z" />
    <glyph glyph-name="afii10062" unicode="&#x40e;" horiz-adv-x="708" 
d="M9 726h171l196 -406l151 406h171l-267 -614c-49 -112 -100 -131 -171 -131c-30 0 -77 5 -93 9v129c13 -6 40 -12 59 -12c41 0 53 11 78 57zM273 937c5 -27 13 -70 98 -70s93 43 98 70h67c-3 -41 -30 -147 -165 -147s-162 106 -165 147h67z" />
    <glyph glyph-name="afii10110" unicode="&#x45e;" 
d="M10 538h158l115 -396h2l110 396h150l-185 -528c-61 -175 -85 -226 -208 -226c-19 0 -44 1 -64 2v113c6 -1 15 -2 27 -2c52 0 80 7 93 81zM392 758h66c-4 -46 -29 -148 -180 -148c-135 0 -158 107 -161 148h67c5 -27 15 -71 100 -71c47 0 97 5 108 71z" />
    <glyph glyph-name="afii10057" unicode="&#x408;" horiz-adv-x="561" 
d="M340 726h151v-516c0 -154 -79 -229 -225 -229c-237 0 -241 154 -241 292h141c0 -114 6 -170 87 -170c79 0 87 51 87 107v516z" />
    <glyph glyph-name="currency" unicode="&#xa4;" 
d="M281 247c63 0 105 50 105 114s-42 112 -105 112s-103 -48 -103 -112s40 -114 103 -114zM-3 576l67 67l99 -99c31 19 74 33 118 33c46 0 89 -14 118 -33l99 99l67 -67l-99 -99c19 -29 33 -72 33 -116c0 -46 -14 -89 -33 -118l99 -99l-67 -67l-99 99
c-29 -19 -72 -33 -118 -33c-44 0 -87 14 -118 33l-99 -99l-67 67l99 99c-19 31 -31 72 -31 118c0 44 14 89 31 116z" />
    <glyph glyph-name="afii10050" unicode="&#x490;" horiz-adv-x="613" 
d="M70 726h384v127h133v-252h-366v-601h-151v726z" />
    <glyph glyph-name="brokenbar" unicode="&#xa6;" horiz-adv-x="282" 
d="M84 -19v293h113v-293h-113zM84 452v293h113v-293h-113z" />
    <glyph glyph-name="section" unicode="&#xa7;" 
d="M484 550h-128c-3 47 -29 77 -79 77c-48 0 -73 -30 -73 -56c0 -22 10 -39 39 -54l163 -81c67 -34 121 -74 121 -165c0 -24 -24 -103 -96 -135c24 -20 63 -62 63 -130c0 -128 -107 -192 -218 -192c-180 0 -212 140 -212 189h133c4 -38 20 -82 88 -82c62 0 74 52 74 72
c0 35 -22 50 -60 69l-154 79c-72 36 -110 74 -110 162c0 63 41 104 93 134c-23 21 -52 59 -52 117c0 93 71 180 202 180c95 0 200 -40 206 -184zM197 387c-31 -11 -43 -45 -43 -58c0 -32 19 -49 46 -63l159 -85c27 15 43 35 43 67c0 30 -28 49 -57 64z" />
    <glyph glyph-name="afii10023" unicode="&#x401;" horiz-adv-x="667" 
d="M70 726h536v-125h-385v-150h353v-125h-353v-201h401v-125h-552v726zM310 924v-116h-127v116h127zM519 924v-116h-127v116h127z" />
    <glyph glyph-name="copyright" unicode="&#xa9;" horiz-adv-x="745" 
d="M757 364c0 -241 -182 -383 -384 -383s-384 142 -384 383s182 381 384 381s384 -140 384 -381zM373 657c-151 0 -274 -117 -274 -293c0 -177 123 -295 273 -295c147 0 275 118 275 295c0 176 -126 293 -274 293zM478 306h91c-16 -102 -93 -158 -181 -158
c-127 0 -210 96 -210 219c0 125 79 218 208 218c91 0 163 -52 179 -154h-87c-9 46 -48 66 -92 66c-66 0 -104 -50 -104 -128c0 -75 44 -133 106 -133c50 0 86 23 90 70z" />
    <glyph glyph-name="afii10053" unicode="&#x404;" horiz-adv-x="735" 
d="M412 445v-125h-210c11 -113 63 -211 178 -211c83 0 143 51 161 140h151c-30 -158 -133 -268 -315 -268c-193 0 -332 131 -332 381c0 254 147 383 334 383c217 0 305 -150 313 -257h-151c-12 44 -37 129 -162 129c-62 0 -145 -39 -171 -172h204z" />
    <glyph glyph-name="guillemotleft" unicode="&#xab;" 
d="M258 372l-101 -89l101 -89v-117l-169 145v122l169 145v-117zM473 372l-101 -89l101 -89v-117l-169 145v122l169 145v-117z" />
    <glyph glyph-name="logicalnot" unicode="&#xac;" horiz-adv-x="590" 
d="M436 0v199h-396v113h509v-312h-113z" />
    <glyph glyph-name="hyphen" unicode="-" horiz-adv-x="362" 
d="M322 312v-113h-282v113h282z" />
    <glyph glyph-name="hyphen" unicode="&#xad;" horiz-adv-x="362" 
d="M322 312v-113h-282v113h282z" />
    <glyph glyph-name="registered" unicode="&#xae;" horiz-adv-x="745" 
d="M310 331v-173h-88v411h153c106 0 169 -30 169 -124c0 -76 -45 -103 -99 -107l105 -180h-104l-95 173h-41zM310 499v-98h77c40 0 63 7 63 53c0 42 -46 45 -79 45h-61zM756 363c0 -241 -181 -382 -383 -382c-203 0 -384 141 -384 382s181 382 384 382
c202 0 383 -141 383 -382zM646 363c0 176 -126 293 -273 293c-151 0 -274 -117 -274 -293s123 -294 274 -294c147 0 273 118 273 294z" />
    <glyph glyph-name="afii10056" unicode="&#x407;" horiz-adv-x="291" 
d="M221 726v-726h-151v726h151zM111 924v-116h-127v116h127zM308 924v-116h-127v116h127z" />
    <glyph glyph-name="degree" unicode="&#xb0;" horiz-adv-x="404" 
d="M58 575c0 80 64 145 144 145s145 -64 145 -144s-65 -145 -145 -145s-144 64 -144 144zM202 663c-48 0 -87 -40 -87 -88s39 -87 87 -87s88 39 88 87s-40 88 -88 88z" />
    <glyph glyph-name="plusminus" unicode="&#xb1;" horiz-adv-x="590" 
d="M238 451v127h113v-127h199v-113h-199v-127h-113v127h-198v113h198zM40 66v113h510v-113h-510z" />
    <glyph glyph-name="afii10055" unicode="&#x406;" horiz-adv-x="291" 
d="M221 726v-726h-151v726h151z" />
    <glyph glyph-name="afii10103" unicode="&#x456;" horiz-adv-x="261" 
d="M201 538v-538h-141v538h141zM201 732v-131h-141v131h141z" />
    <glyph glyph-name="afii10098" unicode="&#x491;" horiz-adv-x="442" 
d="M60 538h268v95h97v-208h-224v-425h-141v538z" />
    <glyph glyph-name="mu" unicode="&#xb5;" horiz-adv-x="617" 
d="M67 538h141v-334c0 -82 48 -99 92 -99c46 0 109 27 109 123v310h141v-538h-135v76h-2c-32 -59 -85 -90 -125 -90s-61 7 -80 26v-221h-141v747z" />
    <glyph glyph-name="mu" unicode="&#x3bc;" horiz-adv-x="617" 
d="M67 538h141v-334c0 -82 48 -99 92 -99c46 0 109 27 109 123v310h141v-538h-135v76h-2c-32 -59 -85 -90 -125 -90s-61 7 -80 26v-221h-141v747z" />
    <glyph glyph-name="paragraph" unicode="&#xb6;" 
d="M216 -192v543c-143 0 -224 67 -224 175c0 143 106 182 247 182h306v-900h-113v814h-103v-814h-113z" />
    <glyph glyph-name="periodcentered" unicode="&#xb7;" horiz-adv-x="280" 
d="M58 256c0 45 37 82 82 82s82 -37 82 -82c0 -44 -35 -82 -82 -82s-82 38 -82 82z" />
    <glyph glyph-name="periodcentered" unicode="&#x2219;" horiz-adv-x="280" 
d="M58 256c0 45 37 82 82 82s82 -37 82 -82c0 -44 -35 -82 -82 -82s-82 38 -82 82z" />
    <glyph glyph-name="afii10071" unicode="&#x451;" horiz-adv-x="580" 
d="M394 158h145c-37 -129 -144 -172 -236 -172c-151 0 -268 73 -268 294c0 65 23 272 258 272c106 0 252 -50 252 -295v-26h-365c0 -41 9 -132 123 -132c40 0 80 21 91 59zM180 323h220c-8 86 -64 113 -109 113c-67 0 -103 -43 -111 -113zM258 736v-116h-127v116h127z
M455 736v-116h-127v116h127z" />
    <glyph glyph-name="afii61352" unicode="&#x2116;" horiz-adv-x="1181" 
d="M519 222v504h141v-726h-150l-297 519h-2v-519h-141v726h159l288 -504h2zM1121 334c0 -78 -50 -170 -179 -170c-128 0 -178 92 -178 170c0 77 50 170 178 170c129 0 179 -93 179 -170zM1022 334c0 52 -28 97 -80 97c-51 0 -79 -45 -79 -97c0 -53 28 -97 79 -97
c52 0 80 44 80 97zM791 119h303v-81h-303v81z" />
    <glyph glyph-name="afii10101" unicode="&#x454;" 
d="M527 196c-5 -55 -48 -210 -245 -210c-202 0 -247 155 -247 268c0 174 74 298 256 298c87 0 209 -39 231 -191h-140c-9 34 -32 72 -91 72c-72 0 -96 -47 -107 -104h132v-92h-133c4 -73 29 -132 104 -132c72 0 99 66 99 91h141z" />
    <glyph glyph-name="guillemotright" unicode="&#xbb;" 
d="M405 283l-101 89v117l169 -145v-122l-169 -145v117zM190 283l-101 89v117l169 -145v-122l-169 -145v117z" />
    <glyph glyph-name="afii10105" unicode="&#x458;" horiz-adv-x="261" 
d="M60 538h141v-594c0 -141 -65 -160 -208 -160v113c53 0 67 6 67 50v591zM201 732v-131h-141v131h141z" />
    <glyph glyph-name="afii10054" unicode="&#x405;" horiz-adv-x="673" 
d="M39 224h145c0 -41 22 -118 154 -118c72 0 152 18 152 94c0 57 -55 71 -132 90l-146 36c-103 25 -162 86 -162 196c0 80 44 223 279 223c222 0 282 -146 282 -235h-145c-4 33 -16 110 -148 110c-58 0 -127 -22 -127 -87c0 -57 47 -69 77 -76l177 -43
c99 -25 190 -65 190 -195c0 -219 -222 -238 -286 -238c-264 0 -310 153 -310 243z" />
    <glyph glyph-name="afii10102" unicode="&#x455;" horiz-adv-x="563" 
d="M512 374h-138c-6 34 -18 71 -95 71s-87 -30 -87 -53c0 -85 336 -23 336 -221c0 -157 -151 -185 -235 -185c-122 0 -258 43 -258 186h145c0 -45 28 -79 117 -79c73 0 90 36 90 56c0 90 -333 22 -333 223c0 79 49 180 217 180c105 0 230 -26 241 -178z" />
    <glyph glyph-name="afii10104" unicode="&#x457;" horiz-adv-x="261" 
d="M201 538v-538h-141v538h141zM96 736v-116h-127v116h127zM293 736v-116h-127v116h127z" />
    <glyph glyph-name="afii10017" unicode="&#x410;" horiz-adv-x="730" 
d="M279 726h175l255 -726h-164l-47 150h-267l-51 -150h-159zM364 562l-93 -287h194l-99 287h-2z" />
    <glyph glyph-name="afii10018" unicode="&#x411;" horiz-adv-x="703" 
d="M70 726h534v-125h-383v-150h189c140 0 248 -85 248 -229c0 -143 -105 -222 -250 -222h-338v726zM221 326v-201h171c73 0 115 45 115 105c0 64 -47 96 -115 96h-171z" />
    <glyph glyph-name="afii10019" unicode="&#x412;" horiz-adv-x="718" 
d="M70 0v726h358c177 0 222 -111 222 -185c0 -104 -58 -135 -88 -150c89 -33 111 -103 111 -174c0 -62 -23 -217 -291 -217h-312zM221 320v-195h184c74 0 117 33 117 107c0 63 -54 88 -109 88h-192zM221 601v-159h177c60 0 107 23 107 81c0 59 -42 78 -111 78h-173z" />
    <glyph glyph-name="afii10020" unicode="&#x413;" horiz-adv-x="613" 
d="M70 726h517v-125h-366v-601h-151v726z" />
    <glyph glyph-name="afii10021" unicode="&#x414;" horiz-adv-x="761" 
d="M173 726h491v-601h71v-278h-141v153h-427v-153h-141v278h65c67 103 82 200 82 385v216zM241 125h272v476h-198v-101c0 -187 -12 -272 -74 -375z" />
    <glyph glyph-name="afii10022" unicode="&#x415;" horiz-adv-x="667" 
d="M70 726h536v-125h-385v-150h353v-125h-353v-201h401v-125h-552v726z" />
    <glyph glyph-name="afii10024" unicode="&#x416;" horiz-adv-x="1039" 
d="M34 726h184l225 -299v299h151v-297l226 297h184l-247 -305l266 -421h-184l-186 321l-59 -77v-244h-151v244l-58 77l-186 -321h-184l266 421z" />
    <glyph glyph-name="afii10025" unicode="&#x417;" horiz-adv-x="673" 
d="M188 510h-142c8 120 97 235 283 235c201 0 277 -111 277 -192c0 -92 -51 -147 -125 -168c79 -14 152 -78 152 -191c0 -112 -90 -213 -294 -213c-248 0 -304 125 -304 243h142c0 -64 28 -118 157 -118c91 0 148 40 148 104c0 73 -60 110 -133 110h-70v122h66
c72 0 116 35 116 94c0 55 -49 84 -129 84c-101 0 -138 -41 -144 -110z" />
    <glyph glyph-name="afii10026" unicode="&#x418;" horiz-adv-x="751" 
d="M221 726v-506h1l289 506h170v-726h-151v517h-2l-296 -517h-162v726h151z" />
    <glyph glyph-name="afii10027" unicode="&#x419;" horiz-adv-x="751" 
d="M221 726v-506h2l288 506h170v-726h-151v517h-2l-296 -517h-162v726h151zM277 937c5 -27 13 -70 98 -70s93 43 98 70h67c-3 -41 -30 -147 -165 -147s-162 106 -165 147h67z" />
    <glyph glyph-name="afii10028" unicode="&#x41a;" horiz-adv-x="716" 
d="M221 726v-295l277 295h196l-296 -297l313 -429h-195l-224 319l-71 -73v-246h-151v726h151z" />
    <glyph glyph-name="afii10029" unicode="&#x41b;" horiz-adv-x="721" 
d="M144 726h507v-726h-151v601h-205v-310c0 -188 -46 -310 -189 -310c-34 0 -66 3 -92 11v116c9 -3 25 -6 45 -6c68 0 85 48 85 205v419z" />
    <glyph glyph-name="afii10030" unicode="&#x41c;" horiz-adv-x="842" 
d="M70 726h221l131 -572h2l129 572h219v-726h-141v607h-1l-136 -607h-149l-132 607h-2v-607h-141v726z" />
    <glyph glyph-name="afii10031" unicode="&#x41d;" horiz-adv-x="725" 
d="M221 726v-275h283v275h151v-726h-151v326h-283v-326h-151v726h151z" />
    <glyph glyph-name="afii10032" unicode="&#x41e;" horiz-adv-x="786" 
d="M45 363c0 340 252 382 348 382s348 -42 348 -382s-252 -382 -348 -382s-348 42 -348 382zM196 363c0 -203 115 -254 197 -254s197 51 197 254s-115 254 -197 254s-197 -51 -197 -254z" />
    <glyph glyph-name="afii10033" unicode="&#x41f;" horiz-adv-x="725" 
d="M70 726h585v-726h-151v601h-283v-601h-151v726z" />
    <glyph glyph-name="afii10034" unicode="&#x420;" horiz-adv-x="671" 
d="M221 262v-262h-151v726h332c140 0 224 -89 224 -232c0 -65 -36 -232 -231 -232h-174zM221 601v-214h141c100 0 113 68 113 113c0 71 -39 101 -133 101h-121z" />
    <glyph glyph-name="afii10035" unicode="&#x421;" horiz-adv-x="730" 
d="M691 488h-151c-12 44 -36 129 -161 129c-73 0 -183 -52 -183 -257c0 -130 55 -251 183 -251c84 0 143 51 161 140h151c-30 -158 -133 -268 -315 -268c-193 0 -331 131 -331 381c0 254 146 383 333 383c217 0 305 -150 313 -257z" />
    <glyph glyph-name="afii10036" unicode="&#x422;" horiz-adv-x="617" 
d="M384 601v-601h-151v601h-219v125h589v-125h-219z" />
    <glyph glyph-name="afii10037" unicode="&#x423;" horiz-adv-x="708" 
d="M9 726h171l196 -406l151 406h171l-267 -614c-49 -112 -100 -131 -171 -131c-30 0 -77 5 -93 9v129c13 -6 40 -12 59 -12c41 0 53 11 78 57z" />
    <glyph glyph-name="afii10038" unicode="&#x424;" horiz-adv-x="903" 
d="M527 726v-74c129 0 331 -68 331 -289s-202 -285 -331 -285v-78h-151v78c-129 0 -331 64 -331 285s202 289 331 289v74h151zM196 363c0 -136 103 -163 180 -163v330c-77 0 -180 -30 -180 -167zM707 363c0 137 -103 167 -180 167v-330c77 0 180 27 180 163z" />
    <glyph glyph-name="afii10039" unicode="&#x425;" horiz-adv-x="673" 
d="M27 726h181l129 -235l132 235h175l-221 -349l236 -377h-185l-137 248l-146 -248h-177l234 371z" />
    <glyph glyph-name="afii10040" unicode="&#x426;" horiz-adv-x="748" 
d="M221 726v-601h283v601h151v-601h72v-279h-141v154h-516v726h151z" />
    <glyph glyph-name="afii10041" unicode="&#x427;" horiz-adv-x="705" 
d="M71 726h151v-213c0 -70 51 -97 112 -97c49 0 100 4 150 11v299h151v-726h-151v303c-64 -11 -126 -12 -191 -12c-117 0 -222 60 -222 225v210z" />
    <glyph glyph-name="afii10042" unicode="&#x428;" horiz-adv-x="973" 
d="M221 726v-601h190v601h151v-601h190v601h151v-726h-833v726h151z" />
    <glyph glyph-name="afii10043" unicode="&#x429;" horiz-adv-x="996" 
d="M221 726v-601h190v601h151v-601h190v601h151v-601h72v-279h-141v154h-764v726h151z" />
    <glyph glyph-name="afii10044" unicode="&#x42a;" horiz-adv-x="801" 
d="M7 726h312v-275h189c140 0 248 -85 248 -229c0 -143 -105 -222 -250 -222h-338v601h-161v125zM319 326v-201h171c73 0 115 45 115 105c0 64 -47 96 -115 96h-171z" />
    <glyph glyph-name="afii10045" unicode="&#x42b;" horiz-adv-x="1006" 
d="M221 726v-275h189c140 0 248 -85 248 -229c0 -143 -105 -222 -250 -222h-338v726h151zM221 326v-201h171c73 0 115 45 115 105c0 64 -47 96 -115 96h-171zM936 726v-726h-151v726h151z" />
    <glyph glyph-name="afii10046" unicode="&#x42c;" horiz-adv-x="703" 
d="M221 726v-275h189c140 0 248 -85 248 -229c0 -143 -105 -222 -250 -222h-338v726h151zM221 326v-201h171c73 0 115 45 115 105c0 64 -47 96 -115 96h-171z" />
    <glyph glyph-name="afii10047" unicode="&#x42d;" horiz-adv-x="734" 
d="M321 445h204c-26 133 -109 172 -171 172c-125 0 -150 -85 -162 -129h-151c8 107 96 257 313 257c187 0 335 -129 335 -383c0 -250 -140 -381 -333 -381c-182 0 -285 110 -315 268h151c18 -89 78 -140 161 -140c115 0 167 98 178 211h-210v125z" />
    <glyph glyph-name="afii10048" unicode="&#x42e;" horiz-adv-x="1008" 
d="M221 726v-275h104c36 259 242 294 319 294c86 0 319 -42 319 -382s-233 -382 -319 -382c-83 0 -303 39 -319 345h-104v-326h-151v726h151zM476 364c0 -203 102 -255 168 -255c67 0 168 51 168 254s-101 254 -168 254c-66 0 -168 -50 -168 -253z" />
    <glyph glyph-name="afii10049" unicode="&#x42f;" horiz-adv-x="715" 
d="M645 726v-726h-151v284h-112l-168 -284h-177l177 298c-82 27 -164 92 -164 207s88 221 228 221h367zM494 409v192h-187c-77 0 -106 -52 -106 -91c0 -60 39 -101 118 -101h175z" />
    <glyph glyph-name="afii10065" unicode="&#x430;" horiz-adv-x="567" 
d="M188 364h-136c16 165 130 188 240 188c76 0 214 -23 214 -156v-291c0 -63 14 -77 31 -83v-22h-152c-8 26 -10 34 -13 64c-32 -33 -78 -78 -174 -78c-81 0 -163 46 -163 157c0 124 116 175 251 186c60 5 82 21 82 47c0 60 -57 63 -93 63c-71 0 -83 -44 -87 -75zM368 262
c-14 -11 -38 -20 -96 -29c-53 -9 -96 -23 -96 -81c0 -50 38 -65 66 -65c62 0 126 41 126 106v69z" />
    <glyph glyph-name="afii10066" unicode="&#x431;" horiz-adv-x="601" 
d="M143 405c32 63 94 113 171 113c132 0 252 -68 252 -249c0 -187 -110 -283 -266 -283c-162 0 -265 103 -265 300c0 208 45 356 237 402c92 22 147 25 156 59h107c-16 -90 -76 -131 -183 -148c-115 -18 -199 -62 -209 -194zM305 405c-94 0 -125 -77 -125 -149
c0 -69 25 -151 120 -151c94 0 121 83 121 152s-26 148 -116 148z" />
    <glyph glyph-name="afii10067" unicode="&#x432;" 
d="M60 0v538h243c120 0 208 -49 208 -139c0 -62 -44 -102 -100 -116c55 -13 116 -48 116 -136c0 -100 -75 -147 -197 -147h-270zM201 235v-138h104c52 0 84 16 84 69c0 47 -34 69 -86 69h-102zM201 441v-121h92c47 0 80 19 80 61c0 44 -32 60 -79 60h-93z" />
    <glyph glyph-name="afii10068" unicode="&#x433;" horiz-adv-x="442" 
d="M60 538h365v-113h-224v-425h-141v538z" />
    <glyph glyph-name="afii10069" unicode="&#x434;" horiz-adv-x="637" 
d="M133 538h415v-425h65v-258h-131v145h-334v-145h-131v258h59c36 45 57 150 57 279v146zM407 113v312h-143v-66c0 -144 -20 -205 -48 -246h191z" />
    <glyph glyph-name="afii10070" unicode="&#x435;" horiz-adv-x="580" 
d="M394 158h145c-37 -129 -144 -172 -236 -172c-151 0 -268 73 -268 294c0 65 23 272 258 272c151 0 252 -83 252 -268v-53h-365c0 -41 9 -132 123 -132c40 0 80 21 91 59zM180 323h220c-8 86 -64 113 -109 113c-67 0 -103 -43 -111 -113z" />
    <glyph glyph-name="afii10072" unicode="&#x436;" horiz-adv-x="817" 
d="M13 538h166l160 -198v198h141v-200l159 200h167l-187 -215l192 -323h-170l-120 220l-41 -44v-176h-141v175l-41 46l-119 -221h-170l191 324z" />
    <glyph glyph-name="afii10073" unicode="&#x437;" horiz-adv-x="559" 
d="M178 374h-136c25 121 110 178 239 178s222 -60 222 -141c0 -83 -52 -117 -120 -131c68 -9 141 -44 141 -135c0 -114 -105 -159 -240 -159c-134 0 -248 47 -253 186h137c0 -47 30 -79 109 -79c73 0 106 22 106 68c0 45 -30 75 -90 75h-60v90h53c46 0 81 20 81 62
c0 35 -31 57 -90 57c-68 0 -93 -37 -99 -71z" />
    <glyph glyph-name="afii10074" unicode="&#x438;" horiz-adv-x="616" 
d="M201 538v-341l204 341h151v-538h-141v342l-204 -342h-151v538h141z" />
    <glyph glyph-name="afii10075" unicode="&#x439;" horiz-adv-x="616" 
d="M201 538v-341l204 341h151v-538h-141v342l-204 -342h-151v538h141zM433 758h66c-4 -46 -29 -148 -180 -148c-135 0 -158 107 -161 148h67c5 -27 15 -71 100 -71c47 0 97 5 108 71z" />
    <glyph glyph-name="afii10076" unicode="&#x43a;" 
d="M201 538v-204l178 204h173l-189 -208l194 -330h-169l-128 231l-59 -61v-170h-141v538h141z" />
    <glyph glyph-name="afii10077" unicode="&#x43b;" horiz-adv-x="614" 
d="M121 538h433v-538h-141v425h-151v-166c0 -206 -62 -271 -161 -271c-25 0 -65 4 -86 12v105c3 -2 21 -4 42 -4c42 0 64 21 64 185v252z" />
    <glyph glyph-name="afii10078" unicode="&#x43c;" horiz-adv-x="748" 
d="M255 538l117 -366h4l116 366h196v-538h-135v330c0 29 4 63 4 63h-4l-127 -393h-104l-127 393h-4s4 -34 4 -63v-330h-135v538h195z" />
    <glyph glyph-name="afii10079" unicode="&#x43d;" horiz-adv-x="603" 
d="M201 538v-201h201v201h141v-538h-141v224h-201v-224h-141v538h141z" />
    <glyph glyph-name="afii10080" unicode="&#x43e;" horiz-adv-x="619" 
d="M310 552c144 0 274 -88 274 -282s-130 -284 -274 -284s-275 89 -275 283s131 283 275 283zM310 433c-109 0 -130 -94 -130 -163s21 -165 130 -165s129 95 129 164s-20 164 -129 164z" />
    <glyph glyph-name="afii10081" unicode="&#x43f;" horiz-adv-x="603" 
d="M60 538h483v-538h-141v425h-201v-425h-141v538z" />
    <glyph glyph-name="afii10082" unicode="&#x440;" horiz-adv-x="618" 
d="M317 430c-90 0 -121 -80 -121 -165c0 -64 26 -163 117 -163c90 0 125 75 125 155c0 86 -24 173 -121 173zM196 538v-78h2c26 42 65 92 160 92c119 0 225 -93 225 -279c0 -147 -68 -287 -228 -287c-99 0 -134 54 -151 83l-3 1v-286h-141v754h136z" />
    <glyph glyph-name="afii10083" unicode="&#x441;" horiz-adv-x="564" 
d="M386 196h142c-5 -55 -48 -210 -245 -210c-202 0 -248 155 -248 268c0 174 75 298 257 298c85 0 224 -39 237 -206h-143c-6 35 -27 87 -94 87c-89 0 -112 -89 -112 -156c0 -58 2 -175 109 -175c72 0 97 69 97 94z" />
    <glyph glyph-name="afii10084" unicode="&#x442;" horiz-adv-x="495" 
d="M318 0h-141v425h-160v113h461v-113h-160v-425z" />
    <glyph glyph-name="afii10085" unicode="&#x443;" 
d="M10 538h158l115 -396h2l110 396h150l-185 -528c-61 -175 -85 -226 -208 -226c-19 0 -44 1 -64 2v113c6 -1 15 -2 27 -2c52 0 80 7 93 81z" />
    <glyph glyph-name="afii10086" unicode="&#x444;" horiz-adv-x="901" 
d="M380 726h141v-266h1c26 42 62 92 145 92c108 0 199 -91 199 -277c0 -147 -55 -289 -202 -289c-87 0 -123 54 -140 83h-3v-285h-141v285h-2c-17 -29 -53 -83 -140 -83c-147 0 -203 142 -203 289c0 186 92 277 200 277c83 0 118 -50 144 -92h1v266zM516 259
c0 -80 24 -154 112 -154c77 0 93 94 93 159c0 84 -20 169 -94 169c-84 0 -111 -78 -111 -174zM386 259c0 96 -23 174 -107 174c-74 0 -99 -85 -99 -169c0 -65 17 -159 94 -159c88 0 112 74 112 154z" />
    <glyph glyph-name="afii10087" unicode="&#x445;" 
d="M22 538h172l91 -157l89 157h167l-177 -264l183 -274h-175l-93 162l-93 -162h-171l183 274z" />
    <glyph glyph-name="afii10088" unicode="&#x446;" horiz-adv-x="624" 
d="M201 538v-425h202v425h141v-425h64v-258h-131v145h-417v538h141z" />
    <glyph glyph-name="afii10089" unicode="&#x447;" horiz-adv-x="595" 
d="M60 538h141v-157c0 -63 49 -73 92 -73s83 3 101 8v222h141v-538h-141v206c-50 -11 -98 -17 -152 -17c-106 0 -182 51 -182 188v161z" />
    <glyph glyph-name="afii10090" unicode="&#x448;" horiz-adv-x="889" 
d="M201 538v-425h173v425h141v-425h173v425h141v-538h-769v538h141z" />
    <glyph glyph-name="afii10091" unicode="&#x449;" horiz-adv-x="908" 
d="M201 538v-425h173v425h141v-425h173v425h141v-425h65v-258h-131v145h-703v538h141z" />
    <glyph glyph-name="afii10092" unicode="&#x44a;" horiz-adv-x="595" 
d="M0 538h245v-201h100c131 0 217 -66 217 -178c0 -108 -95 -159 -216 -159h-242v425h-104v113zM245 240v-143h96c51 0 80 24 80 65c0 47 -29 78 -80 78h-96z" />
    <glyph glyph-name="afii10093" unicode="&#x44b;" horiz-adv-x="814" 
d="M201 538v-201h100c131 0 217 -66 217 -178c0 -108 -95 -159 -216 -159h-242v538h141zM201 240v-143h96c51 0 80 24 80 65c0 47 -29 78 -80 78h-96zM754 538v-538h-141v538h141z" />
    <glyph glyph-name="afii10094" unicode="&#x44c;" horiz-adv-x="563" 
d="M211 538v-201h100c131 0 217 -66 217 -178c0 -108 -95 -159 -216 -159h-242v538h141zM211 240v-143h96c51 0 80 24 80 65c0 47 -29 78 -80 78h-96z" />
    <glyph glyph-name="afii10095" unicode="&#x44d;" 
d="M35 196h141c0 -25 28 -94 100 -94c75 0 102 64 106 138h-142v92h142c-13 66 -36 104 -106 104c-59 0 -87 -41 -96 -75h-140c29 146 149 191 236 191c172 0 251 -124 251 -298c0 -113 -50 -268 -248 -268c-197 0 -239 155 -244 210z" />
    <glyph glyph-name="afii10096" unicode="&#x44e;" horiz-adv-x="836" 
d="M201 538v-201h98c22 140 132 215 249 215c130 0 253 -89 253 -283s-123 -283 -253 -283c-117 0 -230 67 -249 238h-98v-224h-141v538h141zM548 433c-88 0 -110 -95 -110 -164s22 -164 110 -164s112 95 112 164s-24 164 -112 164z" />
    <glyph glyph-name="afii10097" unicode="&#x44f;" horiz-adv-x="561" 
d="M501 538v-538h-141v212h-61l-108 -212h-164l131 225c-47 11 -123 52 -123 151c0 108 76 162 213 162h253zM360 305v136h-104c-48 0 -83 -27 -83 -68c0 -47 31 -68 83 -68h104z" />
    <glyph glyph-name="Euro" unicode="&#x20ac;" 
d="M518 680v-129c-23 23 -68 46 -138 46c-87 0 -134 -44 -148 -124h253l-32 -94h-233c-1 -8 -1 -17 -1 -27c0 -12 1 -24 1 -32h212l-32 -95h-167c14 -81 63 -124 148 -124c67 0 112 21 137 44v-129c-20 -15 -73 -35 -157 -35c-143 0 -236 77 -262 244h-81l32 95h39
c-1 8 -1 18 -1 31c0 11 0 20 1 28h-71l32 94h48c25 146 104 244 263 244c76 0 134 -21 157 -37z" />
    </font>
</defs>
</svg>
